<svg aria-hidden="true" style="width:0;height:0;position:absolute;overflow:hidden" xmlns="http://www.w3.org/2000/svg"><defs><symbol id="icon-deutsch-qr" viewBox="0 0 32 32"><path fill="#fff" style="fill:var(--color1,#fff)" d="M0 0h32v32H0V0z"/><path style="fill:var(--color2,#000)" d="M1.391 1.391h1.391v1.391H1.391zm1.392 0h1.391v1.391H2.783zm1.391 0h1.391v1.391H4.174zm1.391 0h1.391v1.391H5.565zm1.392 0h1.391v1.391H6.957zm1.391 0h1.391v1.391H8.348zm1.391 0h1.391v1.391H9.739zm5.565 0h1.391v1.391h-1.391zm1.392 0h1.391v1.391h-1.391zm1.391 0h1.391v1.391h-1.391zm2.783 0h1.391v1.391H20.87zm1.391 0h1.391v1.391h-1.391zm1.391 0h1.391v1.391h-1.391zm1.391 0h1.391v1.391h-1.391zm1.392 0h1.391v1.391h-1.391zm1.391 0h1.391v1.391h-1.391zm1.391 0h1.391v1.391h-1.391zM1.391 2.783h1.391v1.391H1.391zm8.348 0h1.391v1.391H9.739zm2.783 0h1.391v1.391h-1.391zm1.391 0h1.391v1.391h-1.391zm1.391 0h1.391v1.391h-1.391zm2.783 0h1.391v1.391h-1.391zm2.783 0h1.391v1.391H20.87zm8.347 0h1.391v1.391h-1.391zM1.391 4.174h1.391v1.391H1.391zm2.783 0h1.391v1.391H4.174zm1.391 0h1.391v1.391H5.565zm1.392 0h1.391v1.391H6.957zm2.782 0h1.391v1.391H9.739zm5.565 0h1.391v1.391h-1.391zm1.392 0h1.391v1.391h-1.391zm1.391 0h1.391v1.391h-1.391zm2.783 0h1.391v1.391H20.87zm2.782 0h1.391v1.391h-1.391zm1.391 0h1.391v1.391h-1.391zm1.392 0h1.391v1.391h-1.391zm2.782 0h1.391v1.391h-1.391zM1.391 5.565h1.391v1.391H1.391zm2.783 0h1.391v1.391H4.174zm1.391 0h1.391v1.391H5.565zm1.392 0h1.391v1.391H6.957zm2.782 0h1.391v1.391H9.739zm2.783 0h1.391v1.391h-1.391zm1.391 0h1.391v1.391h-1.391zm4.174 0h1.391v1.391h-1.391zm2.783 0h1.391v1.391H20.87zm2.782 0h1.391v1.391h-1.391zm1.391 0h1.391v1.391h-1.391zm1.392 0h1.391v1.391h-1.391zm2.782 0h1.391v1.391h-1.391zM1.391 6.957h1.391v1.391H1.391zm2.783 0h1.391v1.391H4.174zm1.391 0h1.391v1.391H5.565zm1.392 0h1.391v1.391H6.957zm2.782 0h1.391v1.391H9.739zm4.174 0h1.391v1.391h-1.391zm4.174 0h1.391v1.391h-1.391zm2.783 0h1.391v1.391H20.87zm2.782 0h1.391v1.391h-1.391zm1.391 0h1.391v1.391h-1.391zm1.392 0h1.391v1.391h-1.391zm2.782 0h1.391v1.391h-1.391zM1.391 8.348h1.391v1.391H1.391zm8.348 0h1.391v1.391H9.739zm2.783 0h1.391v1.391h-1.391zm4.174 0h1.391v1.391h-1.391zm4.174 0h1.391v1.391H20.87zm8.347 0h1.391v1.391h-1.391zM1.391 9.739h1.391v1.391H1.391zm1.392 0h1.391v1.391H2.783zm1.391 0h1.391v1.391H4.174zm1.391 0h1.391v1.391H5.565zm1.392 0h1.391v1.391H6.957zm1.391 0h1.391v1.391H8.348zm1.391 0h1.391v1.391H9.739zm2.783 0h1.391v1.391h-1.391zm2.782 0h1.391v1.391h-1.391zm2.783 0h1.391v1.391h-1.391zm2.783 0h1.391v1.391H20.87zm1.391 0h1.391v1.391h-1.391zm1.391 0h1.391v1.391h-1.391zm1.391 0h1.391v1.391h-1.391zm1.392 0h1.391v1.391h-1.391zm1.391 0h1.391v1.391h-1.391zm1.391 0h1.391v1.391h-1.391zM13.913 11.13h1.391v1.391h-1.391zM1.391 12.522h1.391v1.391H1.391zm1.392 0h1.391v1.391H2.783zm1.391 0h1.391v1.391H4.174zm1.391 0h1.391v1.391H5.565zm1.392 0h1.391v1.391H6.957zm2.782 0h1.391v1.391H9.739zm1.391 0h1.391v1.391H11.13zm1.392 0h1.391v1.391h-1.391zm4.174 0h1.391v1.391h-1.391zm2.782 0h1.391v1.391h-1.391zm2.783 0h1.391v1.391h-1.391zm2.782 0h1.391v1.391h-1.391zm2.783 0h1.391v1.391h-1.391zM2.783 13.913h1.391v1.391H2.783zm12.521 0h1.391v1.391h-1.391zm2.783 0h1.391v1.391h-1.391zm5.565 0h1.391v1.391h-1.391zm1.391 0h1.391v1.391h-1.391zm1.392 0h1.391v1.391h-1.391zm2.782 0h1.391v1.391h-1.391zM1.391 15.304h1.391v1.391H1.391zm1.392 0h1.391v1.391H2.783zm1.391 0h1.391v1.391H4.174zm2.783 0h1.391v1.391H6.957zm2.782 0h1.391v1.391H9.739zm1.391 0h1.391v1.391H11.13zm2.783 0h1.391v1.391h-1.391zm4.174 0h1.391v1.391h-1.391zm1.391 0h1.391v1.391h-1.391zm2.783 0h1.391v1.391h-1.391zm2.782 0h1.391v1.391h-1.391zm1.392 0h1.391v1.391h-1.391zm1.391 0h1.391v1.391h-1.391zm-15.304 1.392h1.391v1.391h-1.391zm2.782 0h1.391v1.391h-1.391zm2.783 0h1.391v1.391h-1.391zm1.391 0h1.391v1.391h-1.391zm1.392 0h1.391v1.391H20.87zm1.391 0h1.391v1.391h-1.391zm2.782 0h1.391v1.391h-1.391zm1.392 0h1.391v1.391h-1.391zM1.391 18.087h1.391v1.391H1.391zm2.783 0h1.391v1.391H4.174zm1.391 0h1.391v1.391H5.565zm2.783 0h1.391v1.391H8.348zm1.391 0h1.391v1.391H9.739zm4.174 0h1.391v1.391h-1.391zm2.783 0h1.391v1.391h-1.391zm4.174 0h1.391v1.391H20.87zm1.391 0h1.391v1.391h-1.391zm5.565 0h1.391v1.391h-1.391zm-15.304 1.391h1.391v1.391h-1.391zm1.391 0h1.391v1.391h-1.391zm1.391 0h1.391v1.391h-1.391zm1.392 0h1.391v1.391h-1.391zm1.391 0h1.391v1.391h-1.391zm2.783 0h1.391v1.391H20.87zm4.173 0h1.391v1.391h-1.391zm2.783 0h1.391v1.391h-1.391zm1.391 0h1.391v1.391h-1.391zM1.391 20.87h1.391v1.391H1.391zm1.392 0h1.391v1.391H2.783zm1.391 0h1.391v1.391H4.174zm1.391 0h1.391v1.391H5.565zm1.392 0h1.391v1.391H6.957zm1.391 0h1.391v1.391H8.348zm1.391 0h1.391v1.391H9.739zm2.783 0h1.391v1.391h-1.391zm2.782 0h1.391v1.391h-1.391zm2.783 0h1.391v1.391h-1.391zm1.391 0h1.391v1.391h-1.391zm1.392 0h1.391v1.391H20.87zm1.391 0h1.391v1.391h-1.391zm4.174 0h1.391v1.391h-1.391zm1.391 0h1.391v1.391h-1.391zM1.391 22.261h1.391v1.391H1.391zm8.348 0h1.391v1.391H9.739zm6.957 0h1.391v1.391h-1.391zm2.782 0h1.391v1.391h-1.391zm1.392 0h1.391v1.391H20.87zm1.391 0h1.391v1.391h-1.391zm4.174 0h1.391v1.391h-1.391zm1.391 0h1.391v1.391h-1.391zm1.391 0h1.391v1.391h-1.391zM1.391 23.652h1.391v1.391H1.391zm2.783 0h1.391v1.391H4.174zm1.391 0h1.391v1.391H5.565zm1.392 0h1.391v1.391H6.957zm2.782 0h1.391v1.391H9.739zm2.783 0h1.391v1.391h-1.391zm4.174 0h1.391v1.391h-1.391zM1.391 25.043h1.391v1.391H1.391zm2.783 0h1.391v1.391H4.174zm1.391 0h1.391v1.391H5.565zm1.392 0h1.391v1.391H6.957zm2.782 0h1.391v1.391H9.739zm2.783 0h1.391v1.391h-1.391zm1.391 0h1.391v1.391h-1.391zm1.391 0h1.391v1.391h-1.391zm1.392 0h1.391v1.391h-1.391zm1.391 0h1.391v1.391h-1.391zm1.391 0h1.391v1.391h-1.391zm2.783 0h1.391v1.391h-1.391zm1.391 0h1.391v1.391h-1.391zm2.783 0h1.391v1.391h-1.391zM1.391 26.435h1.391v1.391H1.391zm2.783 0h1.391v1.391H4.174zm1.391 0h1.391v1.391H5.565zm1.392 0h1.391v1.391H6.957zm2.782 0h1.391v1.391H9.739zm2.783 0h1.391v1.391h-1.391zm4.174 0h1.391v1.391h-1.391zm1.391 0h1.391v1.391h-1.391zm5.565 0h1.391v1.391h-1.391zm2.783 0h1.391v1.391h-1.391zM1.391 27.826h1.391v1.391H1.391zm8.348 0h1.391v1.391H9.739zm2.783 0h1.391v1.391h-1.391zm2.782 0h1.391v1.391h-1.391zm1.392 0h1.391v1.391h-1.391zm1.391 0h1.391v1.391h-1.391zm1.391 0h1.391v1.391h-1.391zm4.174 0h1.391v1.391h-1.391zm2.783 0h1.391v1.391h-1.391zM1.391 29.217h1.391v1.391H1.391zm1.392 0h1.391v1.391H2.783zm1.391 0h1.391v1.391H4.174zm1.391 0h1.391v1.391H5.565zm1.392 0h1.391v1.391H6.957zm1.391 0h1.391v1.391H8.348zm1.391 0h1.391v1.391H9.739zm2.783 0h1.391v1.391h-1.391zm2.782 0h1.391v1.391h-1.391zm2.783 0h1.391v1.391h-1.391zm6.956 0h1.391v1.391h-1.391zm1.392 0h1.391v1.391h-1.391zm1.391 0h1.391v1.391h-1.391z"/></symbol><symbol id="icon-instagram-qr" viewBox="0 0 32 32"><path fill="#fff" style="fill:var(--color1,#fff)" d="M0 0h32v32H0V0z"/><path style="fill:var(--color2,#000)" d="M1.032 1.032h1.032v1.032H1.032zm1.033 0h1.032v1.032H2.065zm1.032 0h1.032v1.032H3.097zm1.032 0h1.032v1.032H4.129zm1.032 0h1.032v1.032H5.161zm1.033 0h1.032v1.032H6.194zm1.032 0h1.032v1.032H7.226zm4.129 0h1.032v1.032h-1.032zm1.032 0h1.032v1.032h-1.032zm1.032 0h1.032v1.032h-1.032zm1.033 0h1.032v1.032h-1.032zm3.096 0h1.032v1.032h-1.032zm3.097 0h1.032v1.032h-1.032zm1.032 0h1.032v1.032h-1.032zm2.065 0h1.032v1.032h-1.032zm1.032 0h1.032v1.032h-1.032zm1.032 0h1.032v1.032h-1.032zm1.033 0h1.032v1.032h-1.032zm1.032 0h1.032v1.032h-1.032zm1.032 0h1.032v1.032h-1.032zm1.032 0h1.032v1.032h-1.032zM1.032 2.065h1.032v1.032H1.032zm6.194 0h1.032v1.032H7.226zm2.064 0h1.032v1.032H9.29zm1.033 0h1.032v1.032h-1.032zm1.032 0h1.032v1.032h-1.032zm5.161 0h1.032v1.032h-1.032zm2.065 0h1.032v1.032h-1.032zm1.032 0h1.032v1.032h-1.032zm2.064 0h1.032v1.032h-1.032zm2.065 0h1.032v1.032h-1.032zm6.193 0h1.032v1.032h-1.032zM1.032 3.097h1.032v1.032H1.032zm2.065 0h1.032v1.032H3.097zm1.032 0h1.032v1.032H4.129zm1.032 0h1.032v1.032H5.161zm2.065 0h1.032v1.032H7.226zm3.097 0h1.032v1.032h-1.032zm1.032 0h1.032v1.032h-1.032zm2.064 0h1.032v1.032h-1.032zm2.065 0h1.032v1.032h-1.032zm1.032 0h1.032v1.032h-1.032zm3.097 0h1.032v1.032h-1.032zm1.032 0h1.032v1.032h-1.032zm1.032 0h1.032v1.032h-1.032zm2.065 0h1.032v1.032h-1.032zm2.064 0h1.032v1.032h-1.032zm1.033 0h1.032v1.032h-1.032zm1.032 0h1.032v1.032h-1.032zm2.064 0h1.032v1.032h-1.032zM1.032 4.129h1.032v1.032H1.032zm2.065 0h1.032v1.032H3.097zm1.032 0h1.032v1.032H4.129zm1.032 0h1.032v1.032H5.161zm2.065 0h1.032v1.032H7.226zm2.064 0h1.032v1.032H9.29zm1.033 0h1.032v1.032h-1.032zm2.064 0h1.032v1.032h-1.032zm2.065 0h1.032v1.032h-1.032zm1.032 0h1.032v1.032h-1.032zm3.097 0h1.032v1.032h-1.032zm2.064 0h1.032v1.032h-1.032zm3.097 0h1.032v1.032h-1.032zm2.064 0h1.032v1.032h-1.032zm1.033 0h1.032v1.032h-1.032zm1.032 0h1.032v1.032h-1.032zm2.064 0h1.032v1.032h-1.032zM1.032 5.161h1.032v1.032H1.032zm2.065 0h1.032v1.032H3.097zm1.032 0h1.032v1.032H4.129zm1.032 0h1.032v1.032H5.161zm2.065 0h1.032v1.032H7.226zm10.322 0h1.032v1.032h-1.032zm1.033 0h1.032v1.032h-1.032zm1.032 0h1.032v1.032h-1.032zm1.032 0h1.032v1.032h-1.032zm3.097 0h1.032v1.032h-1.032zm2.064 0h1.032v1.032h-1.032zm1.033 0h1.032v1.032h-1.032zm1.032 0h1.032v1.032h-1.032zm2.064 0h1.032v1.032h-1.032zM1.032 6.194h1.032v1.032H1.032zm6.194 0h1.032v1.032H7.226zm2.064 0h1.032v1.032H9.29zm2.065 0h1.032v1.032h-1.032zm2.064 0h1.032v1.032h-1.032zm2.065 0h1.032v1.032h-1.032zm1.032 0h1.032v1.032h-1.032zm1.032 0h1.032v1.032h-1.032zm2.065 0h1.032v1.032h-1.032zm2.064 0h1.032v1.032h-1.032zm2.065 0h1.032v1.032h-1.032zm6.193 0h1.032v1.032h-1.032zM1.032 7.226h1.032v1.032H1.032zm1.033 0h1.032v1.032H2.065zm1.032 0h1.032v1.032H3.097zm1.032 0h1.032v1.032H4.129zm1.032 0h1.032v1.032H5.161zm1.033 0h1.032v1.032H6.194zm1.032 0h1.032v1.032H7.226zm2.064 0h1.032v1.032H9.29zm2.065 0h1.032v1.032h-1.032zm2.064 0h1.032v1.032h-1.032zm2.065 0h1.032v1.032h-1.032zm2.064 0h1.032v1.032h-1.032zm2.065 0h1.032v1.032h-1.032zm2.064 0h1.032v1.032h-1.032zm2.065 0h1.032v1.032h-1.032zm1.032 0h1.032v1.032h-1.032zm1.032 0h1.032v1.032h-1.032zm1.033 0h1.032v1.032h-1.032zm1.032 0h1.032v1.032h-1.032zm1.032 0h1.032v1.032h-1.032zm1.032 0h1.032v1.032h-1.032zM12.387 8.258h1.032V9.29h-1.032zm1.032 0h1.032V9.29h-1.032zm8.258 0h1.032V9.29h-1.032zM1.032 9.29h1.032v1.032H1.032zm1.033 0h1.032v1.032H2.065zm1.032 0h1.032v1.032H3.097zm1.032 0h1.032v1.032H4.129zm1.032 0h1.032v1.032H5.161zm2.065 0h1.032v1.032H7.226zm1.032 0H9.29v1.032H8.258zm1.032 0h1.032v1.032H9.29zm1.033 0h1.032v1.032h-1.032zm1.032 0h1.032v1.032h-1.032zm3.097 0h1.032v1.032h-1.032zm2.064 0h1.032v1.032h-1.032zm1.032 0h1.032v1.032h-1.032zm1.033 0h1.032v1.032h-1.032zm2.064 0h1.032v1.032h-1.032zm2.065 0h1.032v1.032H22.71zm2.064 0h1.032v1.032h-1.032zm2.065 0h1.032v1.032h-1.032zm2.064 0h1.032v1.032h-1.032zM1.032 10.323h1.032v1.032H1.032zm1.033 0h1.032v1.032H2.065zm1.032 0h1.032v1.032H3.097zm1.032 0h1.032v1.032H4.129zm1.032 0h1.032v1.032H5.161zm5.162 0h1.032v1.032h-1.032zm2.064 0h1.032v1.032h-1.032zm1.032 0h1.032v1.032h-1.032zm1.033 0h1.032v1.032h-1.032zm1.032 0h1.032v1.032h-1.032zm2.064 0h1.032v1.032h-1.032zm1.033 0h1.032v1.032h-1.032zm1.032 0h1.032v1.032h-1.032zm1.032 0h1.032v1.032h-1.032zm1.032 0h1.032v1.032h-1.032zm1.033 0h1.032v1.032H22.71zm1.032 0h1.032v1.032h-1.032zm1.032 0h1.032v1.032h-1.032zm1.032 0h1.032v1.032h-1.032zm4.129 0h1.032v1.032h-1.032zM3.097 11.355h1.032v1.032H3.097zm4.129 0h1.032v1.032H7.226zm2.064 0h1.032v1.032H9.29zm1.033 0h1.032v1.032h-1.032zm5.161 0h1.032v1.032h-1.032zm1.032 0h1.032v1.032h-1.032zm1.032 0h1.032v1.032h-1.032zm1.033 0h1.032v1.032h-1.032zm3.096 0h1.032v1.032h-1.032zm1.033 0h1.032v1.032H22.71zm3.096 0h1.032v1.032h-1.032zM5.161 12.387h1.032v1.032H5.161zm1.033 0h1.032v1.032H6.194zm4.129 0h1.032v1.032h-1.032zm1.032 0h1.032v1.032h-1.032zm4.129 0h1.032v1.032h-1.032zm2.064 0h1.032v1.032h-1.032zm2.065 0h1.032v1.032h-1.032zm1.032 0h1.032v1.032h-1.032zm1.032 0h1.032v1.032h-1.032zm3.097 0h1.032v1.032h-1.032zm1.032 0h1.032v1.032h-1.032zm1.033 0h1.032v1.032h-1.032zm2.064 0h1.032v1.032h-1.032zM1.032 13.419h1.032v1.032H1.032zm1.033 0h1.032v1.032H2.065zm3.096 0h1.032v1.032H5.161zm2.065 0h1.032v1.032H7.226zm1.032 0H9.29v1.032H8.258zm1.032 0h1.032v1.032H9.29zm1.033 0h1.032v1.032h-1.032zm2.064 0h1.032v1.032h-1.032zm1.032 0h1.032v1.032h-1.032zm2.065 0h1.032v1.032h-1.032zm1.032 0h1.032v1.032h-1.032zm2.065 0h1.032v1.032h-1.032zm2.064 0h1.032v1.032h-1.032zm4.129 0h1.032v1.032h-1.032zm2.065 0h1.032v1.032h-1.032zm1.032 0h1.032v1.032h-1.032zM2.065 14.452h1.032v1.032H2.065zm2.064 0h1.032v1.032H4.129zm4.129 0H9.29v1.032H8.258zm1.032 0h1.032v1.032H9.29zm2.065 0h1.032v1.032h-1.032zm3.097 0h1.032v1.032h-1.032zm1.032 0h1.032v1.032h-1.032zm2.064 0h1.032v1.032h-1.032zm2.065 0h1.032v1.032h-1.032zm1.032 0h1.032v1.032h-1.032zm1.032 0h1.032v1.032h-1.032zm1.033 0h1.032v1.032H22.71zm1.032 0h1.032v1.032h-1.032zm1.032 0h1.032v1.032h-1.032zm1.032 0h1.032v1.032h-1.032zm4.129 0h1.032v1.032h-1.032zM3.097 15.484h1.032v1.032H3.097zm2.064 0h1.032v1.032H5.161zm1.033 0h1.032v1.032H6.194zm1.032 0h1.032v1.032H7.226zm1.032 0H9.29v1.032H8.258zm1.032 0h1.032v1.032H9.29zm1.033 0h1.032v1.032h-1.032zm1.032 0h1.032v1.032h-1.032zm2.064 0h1.032v1.032h-1.032zm3.097 0h1.032v1.032h-1.032zm1.032 0h1.032v1.032h-1.032zm1.033 0h1.032v1.032h-1.032zm3.096 0h1.032v1.032h-1.032zm3.097 0h1.032v1.032h-1.032zm2.065 0h1.032v1.032h-1.032zm1.032 0h1.032v1.032h-1.032zM1.032 16.516h1.032v1.032H1.032zm2.065 0h1.032v1.032H3.097zm1.032 0h1.032v1.032H4.129zm1.032 0h1.032v1.032H5.161zm3.097 0H9.29v1.032H8.258zm1.032 0h1.032v1.032H9.29zm3.097 0h1.032v1.032h-1.032zm1.032 0h1.032v1.032h-1.032zm2.065 0h1.032v1.032h-1.032zm1.032 0h1.032v1.032h-1.032zm4.129 0h1.032v1.032h-1.032zm3.097 0h1.032v1.032h-1.032zm2.064 0h1.032v1.032h-1.032zm3.097 0h1.032v1.032h-1.032zM1.032 17.548h1.032v1.032H1.032zm1.033 0h1.032v1.032H2.065zm1.032 0h1.032v1.032H3.097zm4.129 0h1.032v1.032H7.226zm3.097 0h1.032v1.032h-1.032zm1.032 0h1.032v1.032h-1.032zm3.097 0h1.032v1.032h-1.032zm1.032 0h1.032v1.032h-1.032zm9.29 0h1.032v1.032h-1.032zm2.065 0h1.032v1.032h-1.032zm1.032 0h1.032v1.032h-1.032zM1.032 18.581h1.032v1.032H1.032zm2.065 0h1.032v1.032H3.097zm1.032 0h1.032v1.032H4.129zm4.129 0H9.29v1.032H8.258zm4.129 0h1.032v1.032h-1.032zm1.032 0h1.032v1.032h-1.032zm1.033 0h1.032v1.032h-1.032zm3.096 0h1.032v1.032h-1.032zm1.033 0h1.032v1.032h-1.032zm2.064 0h1.032v1.032h-1.032zm1.032 0h1.032v1.032h-1.032zm2.065 0h1.032v1.032h-1.032zm1.032 0h1.032v1.032h-1.032zm1.032 0h1.032v1.032h-1.032zm2.065 0h1.032v1.032h-1.032zm2.064 0h1.032v1.032h-1.032zM1.032 19.613h1.032v1.032H1.032zm2.065 0h1.032v1.032H3.097zm4.129 0h1.032v1.032H7.226zm1.032 0H9.29v1.032H8.258zm7.226 0h1.032v1.032h-1.032zm1.032 0h1.032v1.032h-1.032zm1.032 0h1.032v1.032h-1.032zm1.033 0h1.032v1.032h-1.032zm4.129 0h1.032v1.032H22.71zm5.161 0h1.032v1.032h-1.032zM1.032 20.645h1.032v1.032H1.032zm2.065 0h1.032v1.032H3.097zm1.032 0h1.032v1.032H4.129zm1.032 0h1.032v1.032H5.161zm3.097 0H9.29v1.032H8.258zm2.065 0h1.032v1.032h-1.032zm3.096 0h1.032v1.032h-1.032zm2.065 0h1.032v1.032h-1.032zm2.064 0h1.032v1.032h-1.032zm3.097 0h1.032v1.032h-1.032zm1.032 0h1.032v1.032h-1.032zm1.033 0h1.032v1.032H22.71zm1.032 0h1.032v1.032h-1.032zm1.032 0h1.032v1.032h-1.032zm4.129 0h1.032v1.032h-1.032zM1.032 21.677h1.032v1.032H1.032zm3.097 0h1.032v1.032H4.129zm1.032 0h1.032v1.032H5.161zm1.033 0h1.032v1.032H6.194zm1.032 0h1.032v1.032H7.226zm1.032 0H9.29v1.032H8.258zm2.065 0h1.032v1.032h-1.032zm1.032 0h1.032v1.032h-1.032zm2.064 0h1.032v1.032h-1.032zm2.065 0h1.032v1.032h-1.032zm2.064 0h1.032v1.032h-1.032zm3.097 0h1.032v1.032h-1.032zm1.032 0h1.032v1.032h-1.032zm1.033 0h1.032v1.032H22.71zm1.032 0h1.032v1.032h-1.032zm1.032 0h1.032v1.032h-1.032zm1.032 0h1.032v1.032h-1.032zm2.065 0h1.032v1.032h-1.032zm1.032 0h1.032v1.032h-1.032zm1.032 0h1.032v1.032h-1.032zM9.29 22.71h1.032v1.032H9.29zm1.033 0h1.032v1.032h-1.032zm4.129 0h1.032v1.032h-1.032zm4.129 0h1.032v1.032h-1.032zm3.096 0h1.032v1.032h-1.032zm4.129 0h1.032v1.032h-1.032zm1.033 0h1.032v1.032h-1.032zm1.032 0h1.032v1.032h-1.032zm1.032 0h1.032v1.032h-1.032zm1.032 0h1.032v1.032h-1.032zM1.032 23.742h1.032v1.032H1.032zm1.033 0h1.032v1.032H2.065zm1.032 0h1.032v1.032H3.097zm1.032 0h1.032v1.032H4.129zm1.032 0h1.032v1.032H5.161zm1.033 0h1.032v1.032H6.194zm1.032 0h1.032v1.032H7.226zm2.064 0h1.032v1.032H9.29zm2.065 0h1.032v1.032h-1.032zm2.064 0h1.032v1.032h-1.032zm2.065 0h1.032v1.032h-1.032zm1.032 0h1.032v1.032h-1.032zm1.032 0h1.032v1.032h-1.032zm1.033 0h1.032v1.032h-1.032zm2.064 0h1.032v1.032h-1.032zm1.032 0h1.032v1.032h-1.032zm2.065 0h1.032v1.032h-1.032zm2.064 0h1.032v1.032h-1.032zm1.033 0h1.032v1.032h-1.032zm1.032 0h1.032v1.032h-1.032zM1.032 24.774h1.032v1.032H1.032zm6.194 0h1.032v1.032H7.226zm8.258 0h1.032v1.032h-1.032zm6.193 0h1.032v1.032h-1.032zm4.129 0h1.032v1.032h-1.032zm4.129 0h1.032v1.032h-1.032zM1.032 25.806h1.032v1.032H1.032zm2.065 0h1.032v1.032H3.097zm1.032 0h1.032v1.032H4.129zm1.032 0h1.032v1.032H5.161zm2.065 0h1.032v1.032H7.226zm2.064 0h1.032v1.032H9.29zm1.033 0h1.032v1.032h-1.032zm4.129 0h1.032v1.032h-1.032zm1.032 0h1.032v1.032h-1.032zm1.032 0h1.032v1.032h-1.032zm1.032 0h1.032v1.032h-1.032zm1.033 0h1.032v1.032h-1.032zm3.096 0h1.032v1.032h-1.032zm1.033 0h1.032v1.032H22.71zm1.032 0h1.032v1.032h-1.032zm1.032 0h1.032v1.032h-1.032zm1.032 0h1.032v1.032h-1.032zm2.065 0h1.032v1.032h-1.032zm1.032 0h1.032v1.032h-1.032zM1.032 26.839h1.032v1.032H1.032zm2.065 0h1.032v1.032H3.097zm1.032 0h1.032v1.032H4.129zm1.032 0h1.032v1.032H5.161zm2.065 0h1.032v1.032H7.226zm2.064 0h1.032v1.032H9.29zm1.033 0h1.032v1.032h-1.032zm4.129 0h1.032v1.032h-1.032zm1.032 0h1.032v1.032h-1.032zm2.064 0h1.032v1.032h-1.032zm2.065 0h1.032v1.032h-1.032zm1.032 0h1.032v1.032h-1.032zm6.194 0h1.032v1.032h-1.032zm1.032 0h1.032v1.032h-1.032zm2.064 0h1.032v1.032h-1.032zM1.032 27.871h1.032v1.032H1.032zm2.065 0h1.032v1.032H3.097zm1.032 0h1.032v1.032H4.129zm1.032 0h1.032v1.032H5.161zm2.065 0h1.032v1.032H7.226zm2.064 0h1.032v1.032H9.29zm7.226 0h1.032v1.032h-1.032zm1.032 0h1.032v1.032h-1.032zm1.033 0h1.032v1.032h-1.032zm1.032 0h1.032v1.032h-1.032zm1.032 0h1.032v1.032h-1.032zm1.032 0h1.032v1.032h-1.032zm1.033 0h1.032v1.032H22.71zm1.032 0h1.032v1.032h-1.032zm1.032 0h1.032v1.032h-1.032zm1.032 0h1.032v1.032h-1.032zm1.033 0h1.032v1.032h-1.032zm1.032 0h1.032v1.032h-1.032zm1.032 0h1.032v1.032h-1.032zM1.032 28.903h1.032v1.032H1.032zm6.194 0h1.032v1.032H7.226zm2.064 0h1.032v1.032H9.29zm1.033 0h1.032v1.032h-1.032zm5.161 0h1.032v1.032h-1.032zm1.032 0h1.032v1.032h-1.032zm1.032 0h1.032v1.032h-1.032zm2.065 0h1.032v1.032h-1.032zm2.064 0h1.032v1.032h-1.032zm1.033 0h1.032v1.032H22.71zm2.064 0h1.032v1.032h-1.032zm1.032 0h1.032v1.032h-1.032zm1.033 0h1.032v1.032h-1.032zm2.064 0h1.032v1.032h-1.032zM1.032 29.935h1.032v1.032H1.032zm1.033 0h1.032v1.032H2.065zm1.032 0h1.032v1.032H3.097zm1.032 0h1.032v1.032H4.129zm1.032 0h1.032v1.032H5.161zm1.033 0h1.032v1.032H6.194zm1.032 0h1.032v1.032H7.226zm2.064 0h1.032v1.032H9.29zm3.097 0h1.032v1.032h-1.032zm1.032 0h1.032v1.032h-1.032zm2.065 0h1.032v1.032h-1.032zm1.032 0h1.032v1.032h-1.032zm1.032 0h1.032v1.032h-1.032zm1.033 0h1.032v1.032h-1.032zm2.064 0h1.032v1.032h-1.032zm7.226 0h1.032v1.032h-1.032z"/></symbol><symbol id="icon-kyivstar-qr" viewBox="0 0 32 32"><path fill="#fff" style="fill:var(--color1,#fff)" d="M0 0h32v32H0V0z"/><path style="fill:var(--color2,#000)" d="M1.391 1.391h1.391v1.391H1.391zm1.392 0h1.391v1.391H2.783zm1.391 0h1.391v1.391H4.174zm1.391 0h1.391v1.391H5.565zm1.392 0h1.391v1.391H6.957zm1.391 0h1.391v1.391H8.348zm1.391 0h1.391v1.391H9.739zm5.565 0h1.391v1.391h-1.391zm1.392 0h1.391v1.391h-1.391zm1.391 0h1.391v1.391h-1.391zm2.783 0h1.391v1.391H20.87zm1.391 0h1.391v1.391h-1.391zm1.391 0h1.391v1.391h-1.391zm1.391 0h1.391v1.391h-1.391zm1.392 0h1.391v1.391h-1.391zm1.391 0h1.391v1.391h-1.391zm1.391 0h1.391v1.391h-1.391zM1.391 2.783h1.391v1.391H1.391zm8.348 0h1.391v1.391H9.739zm2.783 0h1.391v1.391h-1.391zm1.391 0h1.391v1.391h-1.391zm1.391 0h1.391v1.391h-1.391zm2.783 0h1.391v1.391h-1.391zm2.783 0h1.391v1.391H20.87zm8.347 0h1.391v1.391h-1.391zM1.391 4.174h1.391v1.391H1.391zm2.783 0h1.391v1.391H4.174zm1.391 0h1.391v1.391H5.565zm1.392 0h1.391v1.391H6.957zm2.782 0h1.391v1.391H9.739zm5.565 0h1.391v1.391h-1.391zm1.392 0h1.391v1.391h-1.391zm1.391 0h1.391v1.391h-1.391zm2.783 0h1.391v1.391H20.87zm2.782 0h1.391v1.391h-1.391zm1.391 0h1.391v1.391h-1.391zm1.392 0h1.391v1.391h-1.391zm2.782 0h1.391v1.391h-1.391zM1.391 5.565h1.391v1.391H1.391zm2.783 0h1.391v1.391H4.174zm1.391 0h1.391v1.391H5.565zm1.392 0h1.391v1.391H6.957zm2.782 0h1.391v1.391H9.739zm2.783 0h1.391v1.391h-1.391zm1.391 0h1.391v1.391h-1.391zm4.174 0h1.391v1.391h-1.391zm2.783 0h1.391v1.391H20.87zm2.782 0h1.391v1.391h-1.391zm1.391 0h1.391v1.391h-1.391zm1.392 0h1.391v1.391h-1.391zm2.782 0h1.391v1.391h-1.391zM1.391 6.957h1.391v1.391H1.391zm2.783 0h1.391v1.391H4.174zm1.391 0h1.391v1.391H5.565zm1.392 0h1.391v1.391H6.957zm2.782 0h1.391v1.391H9.739zm4.174 0h1.391v1.391h-1.391zm4.174 0h1.391v1.391h-1.391zm2.783 0h1.391v1.391H20.87zm2.782 0h1.391v1.391h-1.391zm1.391 0h1.391v1.391h-1.391zm1.392 0h1.391v1.391h-1.391zm2.782 0h1.391v1.391h-1.391zM1.391 8.348h1.391v1.391H1.391zm8.348 0h1.391v1.391H9.739zm2.783 0h1.391v1.391h-1.391zm4.174 0h1.391v1.391h-1.391zm4.174 0h1.391v1.391H20.87zm8.347 0h1.391v1.391h-1.391zM1.391 9.739h1.391v1.391H1.391zm1.392 0h1.391v1.391H2.783zm1.391 0h1.391v1.391H4.174zm1.391 0h1.391v1.391H5.565zm1.392 0h1.391v1.391H6.957zm1.391 0h1.391v1.391H8.348zm1.391 0h1.391v1.391H9.739zm2.783 0h1.391v1.391h-1.391zm2.782 0h1.391v1.391h-1.391zm2.783 0h1.391v1.391h-1.391zm2.783 0h1.391v1.391H20.87zm1.391 0h1.391v1.391h-1.391zm1.391 0h1.391v1.391h-1.391zm1.391 0h1.391v1.391h-1.391zm1.392 0h1.391v1.391h-1.391zm1.391 0h1.391v1.391h-1.391zm1.391 0h1.391v1.391h-1.391zM13.913 11.13h1.391v1.391h-1.391zM1.391 12.522h1.391v1.391H1.391zm1.392 0h1.391v1.391H2.783zm1.391 0h1.391v1.391H4.174zm1.391 0h1.391v1.391H5.565zm1.392 0h1.391v1.391H6.957zm2.782 0h1.391v1.391H9.739zm1.391 0h1.391v1.391H11.13zm1.392 0h1.391v1.391h-1.391zm4.174 0h1.391v1.391h-1.391zm2.782 0h1.391v1.391h-1.391zm2.783 0h1.391v1.391h-1.391zm2.782 0h1.391v1.391h-1.391zm2.783 0h1.391v1.391h-1.391zM1.391 13.913h1.391v1.391H1.391zm2.783 0h1.391v1.391H4.174zm1.391 0h1.391v1.391H5.565zm1.392 0h1.391v1.391H6.957zm5.565 0h1.391v1.391h-1.391zm1.391 0h1.391v1.391h-1.391zm4.174 0h1.391v1.391h-1.391zm5.565 0h1.391v1.391h-1.391zm1.391 0h1.391v1.391h-1.391zm1.392 0h1.391v1.391h-1.391zm2.782 0h1.391v1.391h-1.391zM1.391 15.304h1.391v1.391H1.391zm1.392 0h1.391v1.391H2.783zm1.391 0h1.391v1.391H4.174zm2.783 0h1.391v1.391H6.957zm2.782 0h1.391v1.391H9.739zm1.391 0h1.391v1.391H11.13zm1.392 0h1.391v1.391h-1.391zm2.782 0h1.391v1.391h-1.391zm2.783 0h1.391v1.391h-1.391zm1.391 0h1.391v1.391h-1.391zm2.783 0h1.391v1.391h-1.391zm2.782 0h1.391v1.391h-1.391zm1.392 0h1.391v1.391h-1.391zm1.391 0h1.391v1.391h-1.391zM1.391 16.696h1.391v1.391H1.391zm2.783 0h1.391v1.391H4.174zm6.956 0h1.391v1.391H11.13zm1.392 0h1.391v1.391h-1.391zm2.782 0h1.391v1.391h-1.391zm2.783 0h1.391v1.391h-1.391zm1.391 0h1.391v1.391h-1.391zm2.783 0h1.391v1.391h-1.391zm2.782 0h1.391v1.391h-1.391zm1.392 0h1.391v1.391h-1.391zM1.391 18.087h1.391v1.391H1.391zm1.392 0h1.391v1.391H2.783zm1.391 0h1.391v1.391H4.174zm5.565 0h1.391v1.391H9.739zm2.783 0h1.391v1.391h-1.391zm1.391 0h1.391v1.391h-1.391zm2.783 0h1.391v1.391h-1.391zm2.782 0h1.391v1.391h-1.391zm1.392 0h1.391v1.391H20.87zm1.391 0h1.391v1.391h-1.391zm5.565 0h1.391v1.391h-1.391zm-15.304 1.391h1.391v1.391h-1.391zm1.391 0h1.391v1.391h-1.391zm1.391 0h1.391v1.391h-1.391zm2.783 0h1.391v1.391h-1.391zm1.391 0h1.391v1.391h-1.391zm1.392 0h1.391v1.391H20.87zm4.173 0h1.391v1.391h-1.391zm2.783 0h1.391v1.391h-1.391zm1.391 0h1.391v1.391h-1.391zM1.391 20.87h1.391v1.391H1.391zm1.392 0h1.391v1.391H2.783zm1.391 0h1.391v1.391H4.174zm1.391 0h1.391v1.391H5.565zm1.392 0h1.391v1.391H6.957zm1.391 0h1.391v1.391H8.348zm1.391 0h1.391v1.391H9.739zm2.783 0h1.391v1.391h-1.391zm1.391 0h1.391v1.391h-1.391zm1.391 0h1.391v1.391h-1.391zm1.392 0h1.391v1.391h-1.391zm1.391 0h1.391v1.391h-1.391zm4.174 0h1.391v1.391h-1.391zm4.174 0h1.391v1.391h-1.391zm1.391 0h1.391v1.391h-1.391zM1.391 22.261h1.391v1.391H1.391zm8.348 0h1.391v1.391H9.739zm4.174 0h1.391v1.391h-1.391zm4.174 0h1.391v1.391h-1.391zm1.391 0h1.391v1.391h-1.391zm1.392 0h1.391v1.391H20.87zm1.391 0h1.391v1.391h-1.391zm4.174 0h1.391v1.391h-1.391zm1.391 0h1.391v1.391h-1.391zm1.391 0h1.391v1.391h-1.391zM1.391 23.652h1.391v1.391H1.391zm2.783 0h1.391v1.391H4.174zm1.391 0h1.391v1.391H5.565zm1.392 0h1.391v1.391H6.957zm2.782 0h1.391v1.391H9.739zm2.783 0h1.391v1.391h-1.391zm2.782 0h1.391v1.391h-1.391zm2.783 0h1.391v1.391h-1.391zm1.391 0h1.391v1.391h-1.391zm1.392 0h1.391v1.391H20.87zM1.391 25.043h1.391v1.391H1.391zm2.783 0h1.391v1.391H4.174zm1.391 0h1.391v1.391H5.565zm1.392 0h1.391v1.391H6.957zm2.782 0h1.391v1.391H9.739zm2.783 0h1.391v1.391h-1.391zm2.782 0h1.391v1.391h-1.391zm1.392 0h1.391v1.391h-1.391zm1.391 0h1.391v1.391h-1.391zm1.391 0h1.391v1.391h-1.391zm2.783 0h1.391v1.391h-1.391zm1.391 0h1.391v1.391h-1.391zm2.783 0h1.391v1.391h-1.391zM1.391 26.435h1.391v1.391H1.391zm2.783 0h1.391v1.391H4.174zm1.391 0h1.391v1.391H5.565zm1.392 0h1.391v1.391H6.957zm2.782 0h1.391v1.391H9.739zm2.783 0h1.391v1.391h-1.391zm1.391 0h1.391v1.391h-1.391zm6.957 0h1.391v1.391H20.87zm2.782 0h1.391v1.391h-1.391zm2.783 0h1.391v1.391h-1.391zM1.391 27.826h1.391v1.391H1.391zm8.348 0h1.391v1.391H9.739zm2.783 0h1.391v1.391h-1.391zm1.391 0h1.391v1.391h-1.391zm4.174 0h1.391v1.391h-1.391zm5.565 0h1.391v1.391h-1.391zm2.783 0h1.391v1.391h-1.391zM1.391 29.217h1.391v1.391H1.391zm1.392 0h1.391v1.391H2.783zm1.391 0h1.391v1.391H4.174zm1.391 0h1.391v1.391H5.565zm1.392 0h1.391v1.391H6.957zm1.391 0h1.391v1.391H8.348zm1.391 0h1.391v1.391H9.739zm2.783 0h1.391v1.391h-1.391zm1.391 0h1.391v1.391h-1.391zm1.391 0h1.391v1.391h-1.391zm4.174 0h1.391v1.391h-1.391zm5.565 0h1.391v1.391h-1.391zm1.392 0h1.391v1.391h-1.391zm1.391 0h1.391v1.391h-1.391z"/></symbol><symbol id="icon-search" viewBox="0 0 32 32"><path d="M14.36 24.4a10.041 10.041 0 1 1-.004-20.078 10.041 10.041 0 0 1 .006 20.076zm0-18.067a8.003 8.003 0 0 0-7.391 4.938 8.007 8.007 0 0 0 1.734 8.718c1.119 1.119 2.544 1.881 4.096 2.189s3.16.15 4.622-.455a8 8 0 0 0-3.062-15.392z"/><path d="M26.667 27.667a.987.987 0 0 1-.707-.293l-5.507-5.507a.996.996 0 0 1 .025-1.388 1.002 1.002 0 0 1 1.388-.025l5.507 5.507a1 1 0 0 1-.707 1.707z"/></symbol><symbol id="icon-seatbelt" viewBox="0 0 32 32"><path d="M19.013 31.186a.814.814 0 0 1-.814.814H13.8a.814.814 0 0 1 0-1.628h4.399c.449 0 .814.364.814.814zm7.178-7.772v2.344a3.162 3.162 0 0 1-3.158 3.158H8.967a3.162 3.162 0 0 1-3.158-3.158v-2.344c0-.449.364-.814.814-.814h.216a.825.825 0 0 1-.003-.071v-2.181a.797.797 0 0 1 .138-.472.808.808 0 0 1 .381-.305c.322-.134.643-.273.959-.415V9.214a3.84 3.84 0 0 1 2.495-3.582 2.962 2.962 0 0 1-.003-.134v-2.01A3.492 3.492 0 0 1 14.294 0h3.411a3.492 3.492 0 0 1 3.488 3.488v2.01c0 .045-.001.089-.003.134a3.837 3.837 0 0 1 1.51 1.026l.043-.081a.814.814 0 0 1 1.439.759c-1.523 2.887-3.735 5.561-6.574 7.949-2.266 1.906-4.838 3.553-7.668 4.911V22.6h12.117v-9.794a.814.814 0 0 1 1.628 0v9.793h1.691c.449 0 .814.364.814.814zM12.434 5.498a1.868 1.868 0 0 0 .08.543 1.864 1.864 0 0 0 1.78 1.318h3.411a1.865 1.865 0 0 0 1.861-1.86v-2.01a1.863 1.863 0 0 0-1.861-1.861h-3.411c-1.026 0-1.86.835-1.86 1.861v2.01zM9.941 18.379c5.08-2.579 9.253-6.162 11.859-10.193a2.211 2.211 0 0 0-1.055-.979 3.49 3.49 0 0 1-3.04 1.779h-3.411a3.49 3.49 0 0 1-3.04-1.78 2.205 2.205 0 0 0-1.313 2.008v9.165zm14.623 5.848H7.437v1.531c0 .844.687 1.531 1.531 1.531h14.066c.844 0 1.531-.687 1.531-1.531v-1.531z"/></symbol><symbol id="icon-ring-bus-logo" viewBox="0 0 122 32"><path fill="#fed800" style="fill:var(--color3,#fed800)" opacity=".986" d="M3.433 1.858v24.315H8.85V14.582c.19-.01.379 0 .567.031.538.084.864.389.976.913a291.194 291.194 0 0 0 0 7.118c.038.719.122 1.433.252 2.142.089.466.246.907.472 1.323 1.826.073 3.653.084 5.48.032a2.03 2.03 0 0 1-.535-.976 23.094 23.094 0 0 1-.472-5.134c.049-1.291.06-2.583.031-3.874a4.018 4.018 0 0 0-.504-1.512c-.638-.913-1.509-1.491-2.614-1.732a15.3 15.3 0 0 0 1.197-.504c1.098-.588 1.738-1.501 1.921-2.74a68.59 68.59 0 0 0 0-4.157 3.813 3.813 0 0 0-.693-1.827c-1.051-1.045-2.321-1.643-3.811-1.795a468.744 468.744 0 0 0-7.685-.032zm5.417 3.15c.67-.075 1.163.177 1.48.756.072.815.103 1.634.095 2.457.008.843-.023 1.683-.095 2.52-.317.579-.811.831-1.48.756V5.009z"/><path fill="#fefffe" style="fill:var(--color4,#fefffe)" opacity=".978" d="M17.165 1.858h4.85v3.591h-4.85V1.858z"/><path fill="#fed800" style="fill:var(--color3,#fed800)" opacity=".988" d="M47.654 1.858V26.11c2.583.011 5.165 0 7.748-.032.318-.047.633-.11.945-.189 1.982-.554 3.105-1.845 3.37-3.874.042-1.974.042-3.948 0-5.921a3.23 3.23 0 0 0-.441-1.26c-.658-.876-1.53-1.443-2.614-1.701a9.718 9.718 0 0 0 1.323-.661 3.455 3.455 0 0 0 1.543-2.236 93.359 93.359 0 0 0 0-4.85 3.395 3.395 0 0 0-1.165-2.236 6.666 6.666 0 0 0-2.835-1.197 172.213 172.213 0 0 0-7.874-.095zm5.417 3.15c.643-.071 1.094.181 1.354.756.07.848.101 1.698.094 2.551.007.853-.025 1.703-.094 2.551-.263.575-.714.827-1.354.756V5.008zm0 9.386c.643-.071 1.094.181 1.354.756a52.5 52.5 0 0 1 .094 3.528 52.518 52.518 0 0 1-.094 3.528c-.26.575-.712.827-1.354.756v-8.567z"/><path fill="#fed800" style="fill:var(--color3,#fed800)" opacity=".004" d="M104.283 2.362c.084.042.084.042 0 0z"/><path fill="#fed800" style="fill:var(--color3,#fed800)" opacity=".984" d="M111.465 2.362c3.021 2.822 6.035 5.656 9.039 8.504.027.069-.004.111-.094.126-.419.123-.828.27-1.228.441l-.063-.063c-.902.309-1.815.582-2.74.819.569 4.915-1.005 8.978-4.724 12.189-3.677 2.772-7.688 3.549-12.031 2.331-4.302-1.405-7.211-4.271-8.724-8.598-1.281-4.619-.441-8.798 2.52-12.535.148-.159.305-.306.472-.441a91.35 91.35 0 0 1 2.898 2.772c-2.504 2.971-3.06 6.268-1.669 9.89 1.243 2.584 3.237 4.285 5.984 5.102 3.802.806 6.973-.285 9.512-3.276 1.351-1.857 1.929-3.935 1.732-6.236-1.244.36-2.483.738-3.717 1.134l-.063-.126c.956-4.014 1.922-8.024 2.898-12.031z"/><path fill="#fefffe" style="fill:var(--color4,#fefffe)" opacity=".991" d="M29.701 6.331c1.376-.202 2.636.082 3.78.85.342.301.584.668.724 1.102.094 5.961.125 11.924.094 17.89h-4.85c.011-5.333 0-10.667-.032-16-.043-.488-.305-.719-.787-.693-.488-.027-.75.204-.787.693-.032 5.333-.042 10.667-.032 16h-4.85V6.456h4.85c-.01.19 0 .379.032.567a4.771 4.771 0 0 1 1.858-.693z"/><path fill="#fefffe" style="fill:var(--color4,#fefffe)" opacity=".989" d="m38.142 6.331-.882.22c-1.099.385-1.739 1.151-1.921 2.299a929.795 929.795 0 0 0 0 15.307c.218.826.712 1.424 1.48 1.795 1.02.417 2.07.543 3.15.378a4.547 4.547 0 0 0 1.795-.598c.012.784-.355 1.298-1.102 1.543-1.489.088-2.98.12-4.472.095v2.898c2.205.011 4.41 0 6.614-.032.317-.028.632-.07.945-.126a3.661 3.661 0 0 0 2.047-.913 5.748 5.748 0 0 0 .819-2.646c.032-6.698.042-13.396.032-20.095-1.428-.011-2.856 0-4.283.032l-.535.661a5.552 5.552 0 0 0-3.685-.819zm2.456 3.086c.647-.176 1.035.055 1.165.693.042 4.22.042 8.441 0 12.661-.067.455-.329.665-.787.63-.43.043-.692-.146-.787-.567a655.264 655.264 0 0 1 0-12.85.821.821 0 0 1 .409-.567z"/><path fill="#fefffe" style="fill:var(--color4,#fefffe)" opacity=".983" d="M77.512 6.331c.882-.011 1.764 0 2.646.032 1.301.069 2.425.541 3.37 1.417.423.511.675 1.099.756 1.764.031 1.554.042 3.107.031 4.661h-4.724c.05-1.134.061-2.267.031-3.402a2.42 2.42 0 0 0-.472-1.291c-.684-.2-1.072.062-1.165.787a8.013 8.013 0 0 0 .189 2.583c.102.333.28.616.535.85a25.418 25.418 0 0 0 4.157 2.394c.862.663 1.376 1.535 1.543 2.614a41.95 41.95 0 0 1-.063 4.472c-.268 1.318-1.034 2.21-2.299 2.677a8.947 8.947 0 0 1-3.339.472 8.467 8.467 0 0 1-3.465-.535c-1.066-.457-1.748-1.244-2.047-2.362a77.765 77.765 0 0 1-.094-5.291h4.85c-.011 1.491 0 2.982.031 4.472.108.543.433.742.976.598.261-.195.418-.457.472-.787a7.13 7.13 0 0 0-.252-3.276 1.832 1.832 0 0 0-.661-.913 36.144 36.144 0 0 1-4.283-2.52c-.725-.641-1.072-1.449-1.039-2.425a37.831 37.831 0 0 1 0-3.087c.117-1.902 1.093-3.109 2.929-3.622.468-.108.93-.203 1.386-.283z"/><path fill="#fefffe" style="fill:var(--color4,#fefffe)" opacity=".991" d="M17.165 6.457h4.85v19.717h-4.85V6.457z"/><path fill="#fefffe" style="fill:var(--color4,#fefffe)" opacity=".989" d="M60.819 6.457h4.85c-.011 5.417 0 10.835.031 16.252.095.421.358.61.787.567.458.035.721-.175.787-.63.031-5.396.042-10.793.031-16.189h4.85v19.717h-4.85c.011-.211 0-.421-.031-.63a3.66 3.66 0 0 1-1.921.787c-1.434.26-2.715-.055-3.843-.945a3.323 3.323 0 0 1-.598-.976 859.337 859.337 0 0 1-.094-17.953z"/><path fill="#fed800" style="fill:var(--color3,#fed800)" opacity=".004" d="M95.024 10.992c.084.042.084.042 0 0zM116.504 12.315c.065.025.075.067.031.126a.15.15 0 0 1-.031-.126zM116.567 12.693c.084.042.084.042 0 0zM108.693 13.071c.084.042.084.042 0 0z"/><path fill="#fed800" style="fill:var(--color3,#fed800)" opacity=".012" d="M94.457 13.827c.084.042.084.042 0 0zM90.11 14.268c.084.042.084.042 0 0z"/><path fill="#fed800" style="fill:var(--color3,#fed800)" opacity=".004" d="M116.567 15.024c.065.025.075.067.031.126a.15.15 0 0 1-.031-.126zM116.441 16.22c.084.042.084.042 0 0zM90.362 16.598c.084.042.084.042 0 0zM95.465 18.236c.084.042.084.042 0 0zM115.937 18.677c.084.042.084.042 0 0zM102.646 20.315c.084.042.084.042 0 0zM91.811 20.504c.084.042.084.042 0 0z"/><path fill="#fed800" style="fill:var(--color3,#fed800)" opacity=".008" d="M91.874 20.63c.084.042.084.042 0 0z"/><path fill="#fed800" style="fill:var(--color3,#fed800)" opacity=".004" d="M103.906 21.764c.084.042.084.042 0 0z"/><path fill="#fed800" style="fill:var(--color3,#fed800)" opacity=".008" d="M100.756 22.583c.084.042.084.042 0 0z"/><path fill="#fed800" style="fill:var(--color3,#fed800)" opacity=".027" d="M101.89 22.898c.084.042.084.042 0 0z"/><path fill="#fed800" style="fill:var(--color3,#fed800)" opacity=".004" d="M103.969 22.961c.084.042.084.042 0 0z"/><path fill="#fed800" style="fill:var(--color3,#fed800)" opacity=".008" d="M112.094 24.095c.084.042.084.042 0 0z"/><path fill="#fed800" style="fill:var(--color3,#fed800)" opacity=".004" d="M108.756 26.488c.084.042.084.042 0 0z"/><path fill="#fed800" style="fill:var(--color3,#fed800)" opacity=".016" d="M100 26.929c.084.042.084.042 0 0z"/><path fill="#fed800" style="fill:var(--color3,#fed800)" opacity=".004" d="M107.055 26.929c.084.042.084.042 0 0zM100.819 27.118c.084.042.084.042 0 0zM100.441 28.378c.084.042.084.042 0 0zM88.976 29.512c.084.042.084.042 0 0z"/></symbol><symbol id="icon-ring-bus-logo-arrow" viewBox="0 0 33 32"><path fill="#fed800" style="fill:var(--color1,#fed800)" opacity=".986" d="M-83.302 2.107v23.887h5.322V14.607c.187-.01.372 0 .557.031.529.083.848.382.959.897a281.057 281.057 0 0 0 0 6.993c.037.707.12 1.408.248 2.104.087.458.242.891.464 1.3a78.58 78.58 0 0 0 5.384.031 2.004 2.004 0 0 1-.526-.959 22.708 22.708 0 0 1-.464-5.044c.048-1.268.059-2.537.031-3.806a3.952 3.952 0 0 0-.495-1.485c-.627-.897-1.483-1.464-2.568-1.702.399-.148.791-.313 1.176-.495 1.078-.577 1.708-1.475 1.888-2.692a67.816 67.816 0 0 0 0-4.084 3.747 3.747 0 0 0-.681-1.795c-1.032-1.027-2.28-1.614-3.744-1.764-2.516-.031-5.033-.041-7.55-.031zm5.322 3.094c.658-.074 1.143.174 1.454.743.07.8.101 1.605.093 2.413.008.828-.023 1.653-.093 2.475-.312.569-.796.817-1.454.743V5.201z"/><path fill="#fefffe" style="fill:var(--color2,#fefffe)" opacity=".978" d="M-69.811 2.107h4.765v3.527h-4.765V2.107z"/><path fill="#fed800" style="fill:var(--color1,#fed800)" opacity=".988" d="M-39.86 2.107v23.825c2.537.01 5.075 0 7.612-.031.313-.046.622-.108.928-.186 1.947-.544 3.051-1.813 3.311-3.806.041-1.939.041-3.878 0-5.817a3.187 3.187 0 0 0-.433-1.238c-.647-.861-1.503-1.418-2.568-1.671.45-.184.883-.4 1.3-.65.803-.522 1.308-1.254 1.516-2.197a92.313 92.313 0 0 0 0-4.765 3.338 3.338 0 0 0-1.145-2.197 6.55 6.55 0 0 0-2.785-1.176c-2.577-.09-5.155-.121-7.736-.093zm5.322 3.094c.632-.069 1.075.178 1.331.743.069.833.099 1.668.093 2.506.007.838-.024 1.673-.093 2.506-.258.565-.702.813-1.331.743V5.201zm0 9.221c.632-.069 1.075.178 1.331.743a51.32 51.32 0 0 1 .093 3.466 51.29 51.29 0 0 1-.093 3.465c-.255.565-.699.812-1.331.743v-8.416z"/><path fill="#fed800" style="fill:var(--color1,#fed800)" opacity=".004" d="M15.774 2.602c.082.041.082.041 0 0z"/><path fill="#fed800" style="fill:var(--color1,#fed800)" opacity=".984" d="M22.829 2.602c2.968 2.772 5.928 5.557 8.88 8.354.027.068-.004.109-.093.124a10.83 10.83 0 0 0-1.207.433l-.062-.062c-.886.303-1.784.571-2.692.805.559 4.829-.988 8.82-4.641 11.975-3.613 2.723-7.552 3.486-11.82 2.29-4.227-1.38-7.084-4.196-8.571-8.447-1.258-4.538-.433-8.643 2.475-12.315.145-.156.3-.3.464-.433a89.207 89.207 0 0 1 2.847 2.723c-2.46 2.919-3.006 6.157-1.64 9.716 1.221 2.539 3.18 4.21 5.879 5.013 3.735.792 6.85-.28 9.345-3.218 1.327-1.824 1.895-3.866 1.702-6.127-1.222.353-2.439.725-3.651 1.114l-.062-.124a2363.32 2363.32 0 0 1 2.847-11.82z"/><path fill="#fefffe" style="fill:var(--color2,#fefffe)" opacity=".991" d="M-57.496 6.501c1.352-.198 2.59.08 3.713.835.336.295.574.656.712 1.083.092 5.856.123 11.714.093 17.575h-4.765c.01-5.24 0-10.479-.031-15.719-.042-.479-.3-.706-.774-.681-.479-.026-.737.201-.774.681-.031 5.239-.041 10.479-.031 15.719h-4.765V6.624h4.765c-.01.187 0 .372.031.557a4.677 4.677 0 0 1 1.826-.681z"/><path fill="#fefffe" style="fill:var(--color2,#fefffe)" opacity=".989" d="m-49.204 6.501-.866.217c-1.08.378-1.709 1.131-1.888 2.259a919.29 919.29 0 0 0 0 15.038c.215.811.699 1.399 1.454 1.764a5.73 5.73 0 0 0 3.094.371 4.466 4.466 0 0 0 1.764-.588c.012.77-.349 1.275-1.083 1.516a57.478 57.478 0 0 1-4.394.093v2.847c2.166.01 4.332 0 6.498-.031.311-.028.621-.069.928-.124a3.595 3.595 0 0 0 2.011-.897 5.64 5.64 0 0 0 .804-2.599c.031-6.58.041-13.161.031-19.741-1.403-.01-2.806 0-4.208.031l-.526.65a5.448 5.448 0 0 0-3.62-.804zm2.413 3.032c.635-.173 1.017.054 1.145.681.041 4.146.041 8.292 0 12.439-.066.447-.323.653-.774.619-.422.042-.68-.144-.774-.557a647.842 647.842 0 0 1 0-12.624.809.809 0 0 1 .402-.557z"/><path fill="#fefffe" style="fill:var(--color2,#fefffe)" opacity=".983" d="M-10.527 6.501c.866-.01 1.733 0 2.599.031 1.279.067 2.383.532 3.311 1.392.415.502.663 1.08.743 1.733.031 1.526.041 3.053.031 4.579h-4.641c.05-1.114.06-2.228.031-3.342a2.373 2.373 0 0 0-.464-1.269c-.672-.197-1.053.061-1.145.774a7.843 7.843 0 0 0 .186 2.537c.1.327.275.605.526.835a24.943 24.943 0 0 0 4.084 2.352 3.875 3.875 0 0 1 1.516 2.568 41.019 41.019 0 0 1-.062 4.394c-.263 1.295-1.016 2.171-2.259 2.63a8.8 8.8 0 0 1-3.28.464 8.309 8.309 0 0 1-3.404-.526c-1.047-.449-1.717-1.222-2.011-2.321a76.326 76.326 0 0 1-.093-5.198h4.765c-.011 1.465 0 2.929.031 4.394.106.533.426.729.959.588.256-.191.411-.449.464-.774a7.003 7.003 0 0 0-.248-3.218 1.801 1.801 0 0 0-.65-.897 35.798 35.798 0 0 1-4.208-2.475c-.712-.63-1.053-1.424-1.021-2.383a37.385 37.385 0 0 1 0-3.032c.114-1.868 1.074-3.054 2.878-3.558.46-.106.913-.199 1.361-.278z"/><path fill="#fefffe" style="fill:var(--color2,#fefffe)" opacity=".991" d="M-69.811 6.625h4.765v19.37h-4.765V6.625z"/><path fill="#fefffe" style="fill:var(--color2,#fefffe)" opacity=".989" d="M-26.926 6.625h4.765c-.011 5.322 0 10.644.031 15.966.093.413.352.599.774.557.45.035.708-.172.774-.619.031-5.301.041-10.603.031-15.904h4.765v19.37h-4.765c.011-.207 0-.414-.031-.619a3.608 3.608 0 0 1-1.887.774c-1.408.255-2.667-.054-3.775-.928a3.286 3.286 0 0 1-.588-.959 849.739 849.739 0 0 1-.093-17.637z"/><path fill="#fed800" style="fill:var(--color1,#fed800)" opacity=".004" d="M6.677 11.08c.082.041.082.041 0 0zM27.78 12.38c.064.025.074.066.031.124a.154.154 0 0 1-.031-.124zM27.842 12.751c.082.041.082.041 0 0zM20.106 13.122c.082.041.082.041 0 0z"/><path fill="#fed800" style="fill:var(--color1,#fed800)" opacity=".012" d="M6.12 13.865c.082.041.082.041 0 0zM1.85 14.298c.082.041.082.041 0 0z"/><path fill="#fed800" style="fill:var(--color1,#fed800)" opacity=".004" d="M27.842 15.041c.064.025.074.066.031.124a.154.154 0 0 1-.031-.124zM27.718 16.217c.082.041.082.041 0 0zM2.098 16.588c.082.041.082.041 0 0zM7.11 18.197c.082.041.082.041 0 0zM27.223 18.63c.082.041.082.041 0 0zM14.165 20.239c.082.041.082.041 0 0zM3.521 20.425c.082.041.082.041 0 0z"/><path fill="#fed800" style="fill:var(--color1,#fed800)" opacity=".008" d="M3.583 20.548c.082.041.082.041 0 0z"/><path fill="#fed800" style="fill:var(--color1,#fed800)" opacity=".004" d="M15.403 21.662c.082.041.082.041 0 0z"/><path fill="#fed800" style="fill:var(--color1,#fed800)" opacity=".008" d="M12.309 22.467c.082.041.082.041 0 0z"/><path fill="#fed800" style="fill:var(--color1,#fed800)" opacity=".027" d="M13.423 22.776c.082.041.082.041 0 0z"/><path fill="#fed800" style="fill:var(--color1,#fed800)" opacity=".004" d="M15.465 22.838c.082.041.082.041 0 0z"/><path fill="#fed800" style="fill:var(--color1,#fed800)" opacity=".008" d="M23.448 23.952c.082.041.082.041 0 0z"/><path fill="#fed800" style="fill:var(--color1,#fed800)" opacity=".004" d="M20.168 26.304c.082.041.082.041 0 0z"/><path fill="#fed800" style="fill:var(--color1,#fed800)" opacity=".016" d="M11.566 26.737c.082.041.082.041 0 0z"/><path fill="#fed800" style="fill:var(--color1,#fed800)" opacity=".004" d="M18.497 26.737c.082.041.082.041 0 0zM12.371 26.923c.082.041.082.041 0 0zM11.999 28.16c.082.041.082.041 0 0zM.736 29.274c.082.041.082.041 0 0z"/></symbol><symbol id="icon-close" viewBox="0 0 32 32"><path d="M23.884 6.706 16 14.59 8.116 6.706a.995.995 0 0 0-1.38.031 1 1 0 0 0-.031 1.38l7.88 7.884-7.882 7.882a1.002 1.002 0 0 0-.018 1.427.998.998 0 0 0 1.427-.015l7.886-7.882 7.884 7.884a1 1 0 0 0 1.38-.03 1 1 0 0 0 .03-1.38l-7.884-7.884 7.884-7.886a1.002 1.002 0 0 0 .018-1.427.998.998 0 0 0-1.427.015v.002z"/></symbol><symbol id="icon-parcel" viewBox="0 0 32 32"><path d="m29.482 8.624-10-5.5a1 1 0 0 0-.969.002l.005-.003-10 5.5a1 1 0 0 0-.005 1.749l.005.003L18 15.59v10.717l-3.036-1.669L14 26.39l4.518 2.485a.99.99 0 0 0 .969-.003l-.005.003 10-5.5c.311-.174.518-.501.518-.876v-13a1 1 0 0 0-.513-.873l-.005-.003zM19 5.142 26.925 9.5 19 13.858 11.075 9.5zm9 16.767-8 4.4V15.592l8-4.4z"/><path d="M10 16H2v-2h8v2zM12 24H4v-2h8v2zM14 20H6v-2h8v2z"/></symbol><symbol id="icon-flag-germany" viewBox="0 0 32 32"><path fill="#ffcd05" style="fill:var(--color5,#ffcd05)" d="M0 24a3.556 3.556 0 0 0 3.556 3.556h24.889A3.556 3.556 0 0 0 32.001 24v-3.556h-32V24z"/><path fill="#ed1f24" style="fill:var(--color6,#ed1f24)" d="M0 12.444h32v8H0z"/><path fill="#141414" style="fill:var(--color7,#141414)" d="M28.444 4.444H3.555A3.556 3.556 0 0 0-.001 8v4.444h32V8a3.556 3.556 0 0 0-3.556-3.556z"/></symbol><symbol id="icon-flag-ukraine" viewBox="0 0 32 32"><path fill="#005bbb" style="fill:var(--color8,#005bbb)" d="M28.444 4.444H3.555A3.556 3.556 0 0 0-.001 8v8h32V8a3.556 3.556 0 0 0-3.556-3.556z"/><path fill="#ffd500" style="fill:var(--color9,#ffd500)" d="M32 24a3.556 3.556 0 0 1-3.556 3.556H3.555A3.556 3.556 0 0 1-.001 24v-8h32v8z"/></symbol><symbol id="icon-instagram" viewBox="0 0 32 32"><path d="M10.668 16A5.333 5.333 0 1 1 16 21.334 5.332 5.332 0 0 1 10.668 16zm-2.884 0c0 4.538 3.678 8.216 8.216 8.216s8.216-3.678 8.216-8.216S20.538 7.784 16 7.784 7.784 11.462 7.784 16zm14.837-8.542v.001a1.92 1.92 0 1 0 1.921-1.92h-.001a1.92 1.92 0 0 0-1.92 1.919zM9.536 29.024c-1.56-.071-2.408-.331-2.971-.55-.747-.291-1.28-.637-1.84-1.197s-.907-1.092-1.197-1.839c-.22-.563-.479-1.411-.55-2.971-.078-1.687-.093-2.193-.093-6.466s.017-4.778.093-6.466c.071-1.56.333-2.406.55-2.971.291-.747.637-1.28 1.197-1.84s1.092-.907 1.84-1.197c.563-.22 1.411-.479 2.971-.55 1.687-.078 2.193-.093 6.464-.093s4.778.017 6.466.093c1.56.071 2.406.333 2.971.55.747.29 1.28.637 1.84 1.197s.906 1.093 1.197 1.84c.22.563.48 1.411.55 2.971.078 1.688.093 2.193.093 6.466s-.015 4.778-.093 6.466c-.071 1.56-.332 2.408-.55 2.971-.291.747-.637 1.28-1.197 1.839s-1.093.906-1.84 1.197c-.563.22-1.411.48-2.971.55-1.687.078-2.193.093-6.466.093s-4.778-.015-6.464-.093zM9.404.097C7.701.175 6.537.445 5.52.84c-1.053.408-1.944.956-2.834 1.845S1.249 4.467.841 5.519C.445 6.536.175 7.699.098 9.403c-.079 1.706-.097 2.251-.097 6.596s.018 4.891.097 6.596c.078 1.703.348 2.867.743 3.884.408 1.052.955 1.946 1.845 2.834s1.782 1.436 2.834 1.846c1.018.396 2.18.666 3.884.743 1.707.078 2.251.097 6.596.097s4.89-.018 6.596-.097c1.703-.078 2.867-.348 3.884-.743 1.052-.41 1.944-.956 2.834-1.846s1.436-1.782 1.846-2.834c.396-1.017.667-2.18.743-3.884.078-1.707.096-2.251.096-6.596s-.018-4.89-.096-6.596c-.078-1.703-.348-2.867-.743-3.884-.41-1.052-.956-1.944-1.846-2.834S27.532 1.248 26.481.84C25.463.444 24.299.173 22.597.097 20.891.019 20.346 0 16.001 0S11.11.018 9.403.097z"/><path d="M10.668 16A5.333 5.333 0 1 1 16 21.334 5.332 5.332 0 0 1 10.668 16zm-2.884 0c0 4.538 3.678 8.216 8.216 8.216s8.216-3.678 8.216-8.216S20.538 7.784 16 7.784 7.784 11.462 7.784 16zm14.837-8.542v.001a1.92 1.92 0 1 0 1.921-1.92h-.001a1.92 1.92 0 0 0-1.92 1.919zM9.536 29.024c-1.56-.071-2.408-.331-2.971-.55-.747-.291-1.28-.637-1.84-1.197s-.907-1.092-1.197-1.839c-.22-.563-.479-1.411-.55-2.971-.078-1.687-.093-2.193-.093-6.466s.017-4.778.093-6.466c.071-1.56.333-2.406.55-2.971.291-.747.637-1.28 1.197-1.84s1.092-.907 1.84-1.197c.563-.22 1.411-.479 2.971-.55 1.687-.078 2.193-.093 6.464-.093s4.778.017 6.466.093c1.56.071 2.406.333 2.971.55.747.29 1.28.637 1.84 1.197s.906 1.093 1.197 1.84c.22.563.48 1.411.55 2.971.078 1.688.093 2.193.093 6.466s-.015 4.778-.093 6.466c-.071 1.56-.332 2.408-.55 2.971-.291.747-.637 1.28-1.197 1.839s-1.093.906-1.84 1.197c-.563.22-1.411.48-2.971.55-1.687.078-2.193.093-6.466.093s-4.778-.015-6.464-.093zM9.404.097C7.701.175 6.537.445 5.52.84c-1.053.408-1.944.956-2.834 1.845S1.249 4.467.841 5.519C.445 6.536.175 7.699.098 9.403c-.079 1.706-.097 2.251-.097 6.596s.018 4.891.097 6.596c.078 1.703.348 2.867.743 3.884.408 1.052.955 1.946 1.845 2.834s1.782 1.436 2.834 1.846c1.018.396 2.18.666 3.884.743 1.707.078 2.251.097 6.596.097s4.89-.018 6.596-.097c1.703-.078 2.867-.348 3.884-.743 1.052-.41 1.944-.956 2.834-1.846s1.436-1.782 1.846-2.834c.396-1.017.667-2.18.743-3.884.078-1.707.096-2.251.096-6.596s-.018-4.89-.096-6.596c-.078-1.703-.348-2.867-.743-3.884-.41-1.052-.956-1.944-1.846-2.834S27.532 1.248 26.481.84C25.463.444 24.299.173 22.597.097 20.891.019 20.346 0 16.001 0S11.11.018 9.403.097z"/></symbol><symbol id="icon-menu" viewBox="0 0 32 32"><path d="M6.4 11.733V9.6h19.2v2.133H6.4zm0 5.334h19.2v-2.133H6.4v2.133zm0 5.333h19.2v-2.133H6.4V22.4z"/></symbol><symbol id="icon-success" viewBox="0 0 32 32"><path stroke-linejoin="round" stroke-linecap="round" stroke-width=".8" d="M31.375 16c0 8.491-6.884 15.375-15.375 15.375S.625 24.491.625 16 7.509.625 16 .625 31.375 7.509 31.375 16z"/><path stroke-linejoin="round" stroke-linecap="round" stroke-width=".8" d="m7.221 16.798 5.321 5.321L24.779 9.881"/></symbol><symbol id="icon-telegram" viewBox="0 0 32 32"><path fill="#40B3E0" style="fill:var(--color8,#40b3e0)" d="M32 16c0 8.84-7.16 16-16 16S0 24.84 0 16 7.16 0 16 0s16 7.16 16 16z"/><path fill="#D2E5F1" style="fill:var(--color11,#d2e5f1)" d="M13.067 23.333c-.52 0-.427-.2-.613-.693l-1.52-5.013 9.44-5.893 1.107.293-.92 2.507-7.493 8.8z"/><path fill="#B5CFE4" style="fill:var(--color12,#b5cfe4)" d="M13.067 23.333c.4 0 .573-.187.8-.4.347-.333 4.8-4.667 4.8-4.667l-2.733-.667-2.533 1.6-.333 4v.133z"/><path fill="#FFF" style="fill:var(--color2,#fff)" d="m13.333 19.253 6.453 4.76c.733.4 1.267.2 1.453-.68l2.627-12.373c.267-1.08-.413-1.56-1.12-1.24L7.333 15.667c-1.053.427-1.04 1.013-.187 1.267l3.96 1.24 9.16-5.773c.427-.267.827-.12.507.173l-7.44 6.68z"/></symbol><symbol id="icon-viber" viewBox="0 0 32 32"><path fill="#bfc8d0" style="fill:var(--color13,#bfc8d0)" d="M30 15.379c0 9.171-3.231 13.378-14 13.378-1.029 0-1.989-.038-2.884-.116l-2.49 2.924c-.739.868-2.165.349-2.165-.788v-3.088c-4.825-1.771-6.462-5.784-6.462-12.311 0-9.171 3.231-13.379 14-13.379s14 4.207 14 13.379zM13.711 26.532c.714.057 1.476.085 2.289.085 9.112 0 11.846-3.534 11.846-11.238S25.112 4.141 16 4.141 4.154 7.675 4.154 15.379c0 5.445 1.366 8.807 5.385 10.311v4.575c0 .399.5.581.76.276l3.413-4.009z"/><path fill="#9179ee" style="fill:var(--color14,#9179ee)" d="M16 25.855a29.59 29.59 0 0 1-2.319-.086l-3.457 4.076a.436.436 0 0 1-.769-.281v-4.652C5.384 23.383 4 19.965 4 14.427 4 6.593 6.769 3 16 3s12 3.593 12 11.427-2.769 11.427-12 11.427z"/><path fill="#fff" style="fill:var(--color1,#fff)" d="M30 14.379c0 9.171-3.231 13.378-14 13.378-1.029 0-1.989-.038-2.884-.116l-2.49 2.924c-.739.868-2.165.349-2.165-.788v-3.088c-4.825-1.771-6.462-5.784-6.462-12.311 0-9.171 3.231-13.379 14-13.379s14 4.207 14 13.379zM13.711 25.532c.714.057 1.476.085 2.289.085 9.112 0 11.846-3.534 11.846-11.238S25.112 3.141 16 3.141 4.154 6.675 4.154 14.379c0 5.445 1.366 8.807 5.385 10.311v4.575c0 .399.5.581.76.276l3.413-4.009z"/><path fill="#fff" style="fill:var(--color1,#fff)" d="m11.543 12.134-.041.023-.036.03a1.361 1.361 0 0 0-.328 1.633c.303.647.977 1.968 2.162 2.963 1.159.973 2.396 1.497 3.209 1.668l.051.011h.047l.015.002.079.013a.918.918 0 0 0 .02.003c.25.044.85.15 1.352-.351.323-.321.617-.657.744-.807a.777.777 0 0 1 .746-.125c.695.235 1.521.765 1.921 1.034.309.208 1.009.71 1.325.937a.41.41 0 0 1 .121.167c.027.069.041.163-.023.3-.119.254-.48.738-.968 1.162-.498.432-1.016.702-1.431.702l-.005-.001c-.018-.003-.087-.012-.223-.042a8.815 8.815 0 0 1-.612-.164 18.81 18.81 0 0 1-1.964-.725c-1.565-.673-3.536-1.74-5.381-3.31-1.161-.988-2.255-2.354-3.108-3.632-.86-1.289-1.435-2.432-1.591-2.96l-.011-.037-.016-.035a1.169 1.169 0 0 1-.095-.458.79.79 0 0 1 .175-.529c.42-.503.865-.998 1.846-1.473a.956.956 0 0 1 .375-.085c.144-.002.219.034.249.06.375.329.957.91 1.349 1.407.203.257.447.582.651.865a13.76 13.76 0 0 1 .342.498l.024.041a.938.938 0 0 1 .023.269.504.504 0 0 1-.146.342c-.293.268-.69.517-.846.603zm4.734-5.618.001-.001c.007-.007.022-.015.045-.015 3.992 0 7.176 3.038 7.177 6.723l-.003.004c-.007.007-.022.015-.045.015s-.038-.008-.045-.015l-.003-.004c-.002-3.724-3.2-6.691-7.081-6.691a.069.069 0 0 1-.045-.015l-.001-.001zm0 4.13-.001-.001.001-.001c.007-.007.022-.015.045-.015 1.569 0 2.789 1.189 2.79 2.594l-.003.004c-.007.007-.022.015-.045.015s-.038-.008-.045-.015l-.003-.004c-.002-1.443-1.236-2.562-2.694-2.562-.023 0-.038-.008-.045-.015zm0-2.064-.001-.001.001-.001c.007-.007.022-.015.045-.015 2.78 0 4.982 2.113 4.984 4.658l-.003.004c-.007.007-.022.015-.045.015s-.038-.008-.045-.015l-.003-.004c-.002-2.583-2.218-4.626-4.887-4.626a.069.069 0 0 1-.045-.015z"/></symbol><symbol id="icon-whatsapp" viewBox="0 0 32 32"><path fill="#BFC8D0" style="fill:var(--color13,#bfc8d0)" d="M16 31c-2.421 0-4.699-.615-6.685-1.696L2 31l1.818-7.095A13.942 13.942 0 0 1 2 17C2 9.268 8.268 3 16 3s14 6.268 14 14-6.268 14-14 14zm0-2.154c6.543 0 11.846-5.304 11.846-11.846S22.542 5.154 16 5.154 4.154 10.458 4.154 17c0 2.526.791 4.867 2.138 6.79l-1.061 3.979 4.049-1.012A11.788 11.788 0 0 0 16 28.846z"/><path fill="#27B43E" style="fill:var(--color2,#27b43e)" d="M28 16c0 6.627-5.373 12-12 12-2.528 0-4.873-.782-6.807-2.116l-4.102 1.025 1.075-4.031A11.945 11.945 0 0 1 4 16C4 9.373 9.373 4 16 4s12 5.373 12 12z"/><path fill="#FFF" style="fill:var(--color1,#fff)" d="M16 30c-2.421 0-4.699-.615-6.685-1.696L2 30l1.818-7.095A13.942 13.942 0 0 1 2 16C2 8.268 8.268 2 16 2s14 6.268 14 14-6.268 14-14 14zm0-2.154c6.543 0 11.846-5.304 11.846-11.846S22.542 4.154 16 4.154 4.154 9.458 4.154 16c0 2.526.791 4.867 2.138 6.79l-1.061 3.979 4.049-1.012A11.788 11.788 0 0 0 16 27.846z"/><path fill="#FFF" style="fill:var(--color1,#fff)" d="M12.5 9.5c-.333-.669-.844-.609-1.359-.609-.922 0-2.359 1.104-2.359 3.159 0 1.684.742 3.528 3.243 6.286 2.414 2.662 5.585 4.039 8.218 3.992s3.175-2.313 3.175-3.078c0-.339-.21-.508-.355-.554-.897-.431-2.552-1.233-2.928-1.384s-.573.053-.695.164c-.341.325-1.018 1.284-1.25 1.5s-.577.107-.721.025c-.529-.212-1.964-.85-3.107-1.959-1.414-1.371-1.497-1.842-1.764-2.262-.213-.336-.057-.542.021-.632.305-.351.725-.894.914-1.164s.039-.679-.051-.934c-.386-1.097-.714-2.015-.98-2.55z"/></symbol><symbol id="icon-btn-arrow" viewBox="0 0 32 32"><path d="M10.586 3.272a2 2 0 0 0 0 2.828l9.9 9.9-9.9 9.9a1.998 1.998 0 0 0 .025 2.804 2.001 2.001 0 0 0 2.804.025l11.314-11.314a2 2 0 0 0 0-2.828L13.415 3.273a2 2 0 0 0-2.828 0z"/></symbol><symbol id="icon-handset" viewBox="0 0 32 32"><path d="m24.882 19.773-3.268-.373a2.561 2.561 0 0 0-2.11.733L17.137 22.5a19.357 19.357 0 0 1-8.478-8.478l2.38-2.38a2.561 2.561 0 0 0 .733-2.11l-.373-3.242a2.575 2.575 0 0 0-2.56-2.277H6.613c-1.454 0-2.663 1.209-2.573 2.663.682 10.987 9.469 19.761 20.443 20.443 1.454.09 2.663-1.119 2.663-2.573V22.32a2.549 2.549 0 0 0-2.264-2.547z"/></symbol><symbol id="icon-person" viewBox="0 0 32 32"><path d="M16 16c2.947 0 5.333-2.387 5.333-5.333S18.946 5.334 16 5.334c-2.947 0-5.333 2.387-5.333 5.333S13.054 16 16 16zm0 2.667c-3.56 0-10.667 1.787-10.667 5.333v1.333c0 .733.6 1.333 1.333 1.333h18.667c.733 0 1.333-.6 1.333-1.333V24c0-3.547-7.107-5.333-10.667-5.333z"/></symbol><symbol id="icon-phone" viewBox="0 0 20 32"><path fill="#757575" style="fill:var(--color15,#757575)" d="M17 0H3C1.346 0 0 1.346 0 3v26c0 1.654 1.346 3 3 3h14c1.654 0 3-1.346 3-3V3c0-1.654-1.346-3-3-3zM3 2h14a1 1 0 0 1 1 1v21H2V3a1 1 0 0 1 1-1zm14 28H3a1 1 0 0 1-1-1v-3h16v3a1 1 0 0 1-1 1z"/></symbol><symbol id="icon-charger" viewBox="0 0 32 32"><path d="M4.874 7.276h-.977a.505.505 0 1 0 0 1.01h.977a.505.505 0 1 0 0-1.01z"/><path d="M29.814 5.617a.505.505 0 0 0 .505-.505v-2.2a.505.505 0 0 0-.505-.505h-.887V.506a.505.505 0 1 0-1.01 0v1.901h-2.358V.506a.505.505 0 1 0-1.01 0v1.901h-.887a.505.505 0 0 0-.505.505V8.84c0 .279.226.505.505.505h1.336v.932c0 .702.553 1.275 1.246 1.31v8.732c0 3.323-1.527 6.296-3.917 8.255a8.58 8.58 0 0 0 1.748-5.2c0-4.756-3.869-8.626-8.626-8.626s-8.626 3.869-8.626 8.626c0 1.697.493 3.282 1.343 4.618a10.637 10.637 0 0 1-3.263-7.672v-4.631h.518a.505.505 0 0 0 .505-.505v-1.233h.218a.973.973 0 0 0 .971-.971V9.232c0-.21-.128-.39-.311-.466V6.712a.86.86 0 0 0-.859-.859H2.85a.86.86 0 0 0-.859.859v2.053a.504.504 0 0 0-.311.467v3.748c0 .535.436.971.971.971h.218v1.233c0 .279.226.505.505.505h.518v4.631c0 6.151 4.779 11.206 10.818 11.649.243.021.489.032.738.032L15.51 32l.062.001c6.441 0 11.68-5.24 11.68-11.68v-8.734a1.314 1.314 0 0 0 1.224-1.309v-.932h1.336a.505.505 0 0 0 .505-.505V6.617a.505.505 0 1 0-1.01 0v1.718h-5.142V3.417h5.142v1.695c0 .279.226.505.505.505zM3.003 6.864h2.792v1.863H3.003V6.864zm-.312 6.077V9.738h3.414v3.203H2.691zm1.189 1.737v-.727h1.037v.727H3.88zm11.631 16.311a10.757 10.757 0 0 1-.722-.028c-3.891-.336-6.955-3.61-6.955-7.586 0-4.199 3.416-7.615 7.615-7.615s7.615 3.416 7.615 7.615c0 4.178-3.383 7.581-7.553 7.614zM26.008 9.345h1.46v.932a.303.303 0 0 1-.303.303h-.853a.303.303 0 0 1-.303-.303v-.932z"/></symbol><symbol id="icon-sleeping-bed" viewBox="0 0 32 32"><path d="M17.92 0v1.28h2.56l-2.56 2.56v1.28h4.48V3.84h-2.88l2.56-2.56V0zm-7.68 6.4v1.28h3.52l-3.52 3.84v1.28H16v-1.28h-4.16l3.52-3.84V6.4zm-8.32 4.48C.862 10.88 0 11.743 0 12.8V32h3.84v-3.2h24.32V32H32v-7.68H3.84V12.8c0-1.058-.862-1.92-1.92-1.92zm5.76 5.76c-1.765 0-3.2 1.435-3.2 3.2s1.435 3.2 3.2 3.2c1.765 0 3.2-1.435 3.2-3.2s-1.435-3.2-3.2-3.2zm4.48 0a.64.64 0 0 0-.64.64v5.76H32v-3.2c0-1.765-1.435-3.2-3.2-3.2z"/></symbol><symbol id="icon-wifi" viewBox="0 0 32 32"><path d="M23.133 17.053a.962.962 0 0 1-.653-.253 9.654 9.654 0 0 0-12.88 0 1.004 1.004 0 0 1-.723.254.994.994 0 0 1-.69-.333 1.012 1.012 0 0 1 .094-1.414 11.6 11.6 0 0 1 15.52 0 1.016 1.016 0 0 1 .094 1.414 1.058 1.058 0 0 1-.76.334z"/><path d="M26.667 13.333a1.01 1.01 0 0 1-.68-.267 14.494 14.494 0 0 0-20 0 1.01 1.01 0 0 1-.747.356 1.001 1.001 0 0 1-.877-1.514 1 1 0 0 1 .289-.308 16.478 16.478 0 0 1 22.666 0 1.003 1.003 0 0 1 .257 1.086.998.998 0 0 1-.909.647zM12.507 20.853a.993.993 0 0 1-.8-.4.985.985 0 0 1 .199-1.4 6.745 6.745 0 0 1 8.2 0 1.008 1.008 0 0 1 .39.659 1.006 1.006 0 0 1-.19.742 1.012 1.012 0 0 1-1.4.2 4.786 4.786 0 0 0-5.8 0 1.043 1.043 0 0 1-.6.2zM16 25a.997.997 0 0 1-1-1 .997.997 0 0 1 1-1 .997.997 0 0 1 1 1 .997.997 0 0 1-1 1z"/></symbol></defs></svg>