<svg xmlns="http://www.w3.org/2000/svg" width="253" height="253"><path style="fill:#fff;fill-opacity:1" d="M0 0h253v253H0z"/><path style="fill:#000" d="M11 11h11v11H11zm11 0h11v11H22zm11 0h11v11H33zm11 0h11v11H44zm11 0h11v11H55zm11 0h11v11H66zm11 0h11v11H77zm44 0h11v11h-11zm11 0h11v11h-11zm11 0h11v11h-11zm22 0h11v11h-11zm11 0h11v11h-11zm11 0h11v11h-11zm11 0h11v11h-11zm11 0h11v11h-11zm11 0h11v11h-11zm11 0h11v11h-11zM11 22h11v11H11zm66 0h11v11H77zm22 0h11v11H99zm11 0h11v11h-11zm11 0h11v11h-11zm22 0h11v11h-11zm22 0h11v11h-11zm66 0h11v11h-11zM11 33h11v11H11zm22 0h11v11H33zm11 0h11v11H44zm11 0h11v11H55zm22 0h11v11H77zm44 0h11v11h-11zm11 0h11v11h-11zm11 0h11v11h-11zm22 0h11v11h-11zm22 0h11v11h-11zm11 0h11v11h-11zm11 0h11v11h-11zm22 0h11v11h-11zM11 44h11v11H11zm22 0h11v11H33zm11 0h11v11H44zm11 0h11v11H55zm22 0h11v11H77zm22 0h11v11H99zm11 0h11v11h-11zm33 0h11v11h-11zm22 0h11v11h-11zm22 0h11v11h-11zm11 0h11v11h-11zm11 0h11v11h-11zm22 0h11v11h-11zM11 55h11v11H11zm22 0h11v11H33zm11 0h11v11H44zm11 0h11v11H55zm22 0h11v11H77zm33 0h11v11h-11zm33 0h11v11h-11zm22 0h11v11h-11zm22 0h11v11h-11zm11 0h11v11h-11zm11 0h11v11h-11zm22 0h11v11h-11zM11 66h11v11H11zm66 0h11v11H77zm22 0h11v11H99zm33 0h11v11h-11zm33 0h11v11h-11zm66 0h11v11h-11zM11 77h11v11H11zm11 0h11v11H22zm11 0h11v11H33zm11 0h11v11H44zm11 0h11v11H55zm11 0h11v11H66zm11 0h11v11H77zm22 0h11v11H99zm22 0h11v11h-11zm22 0h11v11h-11zm22 0h11v11h-11zm11 0h11v11h-11zm11 0h11v11h-11zm11 0h11v11h-11zm11 0h11v11h-11zm11 0h11v11h-11zm11 0h11v11h-11zM110 88h11v11h-11zM11 99h11v11H11zm11 0h11v11H22zm11 0h11v11H33zm11 0h11v11H44zm11 0h11v11H55zm22 0h11v11H77zm11 0h11v11H88zm11 0h11v11H99zm33 0h11v11h-11zm22 0h11v11h-11zm22 0h11v11h-11zm22 0h11v11h-11zm22 0h11v11h-11zM11 110h11v11H11zm22 0h11v11H33zm11 0h11v11H44zm11 0h11v11H55zm44 0h11v11H99zm11 0h11v11h-11zm33 0h11v11h-11zm44 0h11v11h-11zm11 0h11v11h-11zm11 0h11v11h-11zm22 0h11v11h-11zM11 121h11v11H11zm11 0h11v11H22zm11 0h11v11H33zm22 0h11v11H55zm22 0h11v11H77zm11 0h11v11H88zm11 0h11v11H99zm22 0h11v11h-11zm22 0h11v11h-11zm11 0h11v11h-11zm22 0h11v11h-11zm22 0h11v11h-11zm11 0h11v11h-11zm11 0h11v11h-11zM11 132h11v11H11zm22 0h11v11H33zm55 0h11v11H88zm11 0h11v11H99zm22 0h11v11h-11zm22 0h11v11h-11zm11 0h11v11h-11zm22 0h11v11h-11zm22 0h11v11h-11zm11 0h11v11h-11zM11 143h11v11H11zm11 0h11v11H22zm11 0h11v11H33zm44 0h11v11H77zm22 0h11v11H99zm11 0h11v11h-11zm22 0h11v11h-11zm22 0h11v11h-11zm11 0h11v11h-11zm11 0h11v11h-11zm44 0h11v11h-11zM99 154h11v11H99zm11 0h11v11h-11zm11 0h11v11h-11zm22 0h11v11h-11zm11 0h11v11h-11zm11 0h11v11h-11zm33 0h11v11h-11zm22 0h11v11h-11zm11 0h11v11h-11zM11 165h11v11H11zm11 0h11v11H22zm11 0h11v11H33zm11 0h11v11H44zm11 0h11v11H55zm11 0h11v11H66zm11 0h11v11H77zm22 0h11v11H99zm11 0h11v11h-11zm11 0h11v11h-11zm11 0h11v11h-11zm11 0h11v11h-11zm33 0h11v11h-11zm33 0h11v11h-11zm11 0h11v11h-11zM11 176h11v11H11zm66 0h11v11H77zm33 0h11v11h-11zm33 0h11v11h-11zm11 0h11v11h-11zm11 0h11v11h-11zm11 0h11v11h-11zm33 0h11v11h-11zm11 0h11v11h-11zm11 0h11v11h-11zM11 187h11v11H11zm22 0h11v11H33zm11 0h11v11H44zm11 0h11v11H55zm22 0h11v11H77zm22 0h11v11H99zm22 0h11v11h-11zm22 0h11v11h-11zm11 0h11v11h-11zm11 0h11v11h-11zM11 198h11v11H11zm22 0h11v11H33zm11 0h11v11H44zm11 0h11v11H55zm22 0h11v11H77zm22 0h11v11H99zm22 0h11v11h-11zm11 0h11v11h-11zm11 0h11v11h-11zm11 0h11v11h-11zm22 0h11v11h-11zm11 0h11v11h-11zm22 0h11v11h-11zM11 209h11v11H11zm22 0h11v11H33zm11 0h11v11H44zm11 0h11v11H55zm22 0h11v11H77zm22 0h11v11H99zm11 0h11v11h-11zm55 0h11v11h-11zm22 0h11v11h-11zm22 0h11v11h-11zM11 220h11v11H11zm66 0h11v11H77zm22 0h11v11H99zm11 0h11v11h-11zm33 0h11v11h-11zm44 0h11v11h-11zm22 0h11v11h-11zM11 231h11v11H11zm11 0h11v11H22zm11 0h11v11H33zm11 0h11v11H44zm11 0h11v11H55zm11 0h11v11H66zm11 0h11v11H77zm22 0h11v11H99zm11 0h11v11h-11zm11 0h11v11h-11zm33 0h11v11h-11zm44 0h11v11h-11zm11 0h11v11h-11zm11 0h11v11h-11z" id="elements"/></svg>