<svg xmlns="http://www.w3.org/2000/svg" width="1056" height="1024"><path fill="#fed800" opacity=".986" d="M-2665.67 115.425v764.392h170.305V515.443a81.019 81.019 0 0 1 17.823.99c16.918 2.644 27.15 12.216 30.694 28.714a9032.517 9032.517 0 0 0 0 223.773 525.831 525.831 0 0 0 7.921 67.329c2.792 14.646 7.743 28.509 14.852 41.586a2498.647 2498.647 0 0 0 172.285.99c-8.432-8.61-14.045-18.841-16.833-30.694-10.967-53.202-15.918-107.001-14.852-161.393a2029.371 2029.371 0 0 0 .99-121.788c-2.113-16.899-7.395-32.742-15.842-47.527-20.05-28.71-47.442-46.862-82.182-54.458a470.094 470.094 0 0 0 37.625-15.842c34.506-18.478 54.641-47.192 60.4-86.143a2155.71 2155.71 0 0 0 0-130.699c-2.311-21.106-9.571-40.249-21.783-57.429-33.037-32.849-72.971-51.662-119.808-56.438-80.528-.99-161.061-1.32-241.595-.99zm170.306 99.015c21.052-2.368 36.564 5.554 46.537 23.764a784.639 784.639 0 0 1 2.971 77.231 837.901 837.901 0 0 1-2.971 79.212c-9.972 18.209-25.485 26.13-46.537 23.764v-203.97z"/><path fill="#fefffe" opacity=".978" d="M-2233.967 115.425h152.483v112.877h-152.483V115.425z"/><path fill="#fed800" opacity=".988" d="M-1275.507 115.425v762.411c81.194.331 162.385 0 243.576-.99a295.752 295.752 0 0 0 29.704-5.941c62.314-17.408 97.628-58.004 105.946-121.788a4372.273 4372.273 0 0 0 0-186.147c-1.86-14.158-6.48-27.358-13.862-39.606-20.7-27.548-48.095-45.371-82.182-53.468a305.55 305.55 0 0 0 41.586-20.793c25.698-16.704 41.869-40.136 48.517-70.3a2934.014 2934.014 0 0 0 0-152.483c-3.232-28.22-15.441-51.653-36.635-70.3-26.694-19.465-56.399-32.008-89.113-37.625a5370.579 5370.579 0 0 0-247.537-2.971zm170.305 99.015c20.209-2.223 34.402 5.698 42.577 23.764a890.96 890.96 0 0 1 2.971 80.202 890.224 890.224 0 0 1-2.971 80.202c-8.262 18.082-22.453 26.003-42.577 23.764V214.441zm0 295.062c20.209-2.224 34.402 5.697 42.577 23.764a1650.629 1650.629 0 0 1 2.971 110.896c.252 37.038-.739 74.001-2.971 110.896-8.175 18.066-22.368 25.988-42.577 23.764v-269.32z"/><path fill="#fed800" opacity=".004" d="M504.773 131.268c2.634 1.32 2.634 1.32 0 0z"/><path fill="#fed800" opacity=".984" d="M730.526 131.268a53814.97 53814.97 0 0 1 284.172 267.339c.852 2.178-.139 3.499-2.971 3.96a347.475 347.475 0 0 0-38.616 13.862c-.653-.659-1.327-1.321-1.981-1.981a1147.306 1147.306 0 0 1-86.143 25.744c17.901 154.522-31.605 282.251-148.522 383.186-115.609 87.145-241.675 111.567-378.235 73.271-135.254-44.158-226.684-134.262-274.27-270.31-40.259-145.211-13.862-276.571 79.212-394.078a147.04 147.04 0 0 1 14.852-13.862 2834.558 2834.558 0 0 1 91.093 87.133c-78.717 93.406-96.202 197.039-52.477 310.905 39.071 81.243 101.767 134.711 188.127 160.404 119.531 25.352 219.198-8.974 299.024-102.975 42.477-58.369 60.636-123.719 54.458-196.049a4157.631 4157.631 0 0 0-116.837 35.645c-.653-1.321-1.327-2.64-1.981-3.96a78429.798 78429.798 0 0 1 91.093-378.235z"/><path fill="#fefffe" opacity=".991" d="M-1839.888 256.026c43.263-6.337 82.869 2.574 118.817 26.734 10.765 9.448 18.355 21.001 22.773 34.655a26940.694 26940.694 0 0 1 2.971 562.402h-152.483c.331-167.665 0-335.331-.99-502.992-1.349-15.333-9.6-22.593-24.754-21.783-15.331-.844-23.584 6.418-24.754 21.783a63841.384 63841.384 0 0 0-.99 502.992h-152.483v-619.83h152.483a81.019 81.019 0 0 0 .99 17.823c18.106-11.42 37.58-18.682 58.419-21.783z"/><path fill="#fefffe" opacity=".989" d="M-1574.531 256.026c-8.986 2.246-18.229 4.556-27.724 6.931-34.552 12.103-54.684 36.198-60.4 72.281a29216.244 29216.244 0 0 0 0 481.211c6.868 25.951 22.379 44.764 46.537 56.438 32.081 13.119 65.085 17.08 99.014 11.881 20.165-2.32 38.978-8.592 56.438-18.813.38 24.641-11.171 40.814-34.655 48.517a1843.352 1843.352 0 0 1-140.6 2.971v91.093c69.314.331 138.624 0 207.931-.99a341.828 341.828 0 0 0 29.704-3.96c24.623-2.913 46.075-12.485 64.36-28.714 15.341-25.563 23.922-53.288 25.744-83.172.99-210.571 1.321-421.14.99-631.713-44.891-.331-89.778 0-134.66.99l-16.833 20.793c-35.56-22.098-74.176-30.679-115.847-25.744zm77.232 97.033c20.334-5.535 32.544 1.725 36.635 21.783a19989.676 19989.676 0 0 1 0 398.038c-2.097 14.31-10.347 20.91-24.754 19.802-13.503 1.349-21.752-4.593-24.754-17.823a20590.835 20590.835 0 0 1 0-403.979c1.729-7.97 6.018-13.912 12.872-17.823z"/><path fill="#fefffe" opacity=".983" d="M-336.85 256.026c27.724-.331 55.448 0 83.172.99 40.912 2.158 76.241 17.01 105.946 44.556 13.288 16.08 21.209 34.562 23.764 55.448.99 48.841 1.327 97.69.99 146.541H-271.5a1515.544 1515.544 0 0 0 .99-106.935c-1.07-15.106-6.02-28.639-14.852-40.596-21.506-6.295-33.705 1.955-36.635 24.754-2.435 27.411-.456 54.476 5.941 81.192 3.209 10.454 8.812 19.365 16.833 26.734 40.972 29.086 84.538 54.171 130.699 75.251 27.111 20.857 43.269 48.25 48.517 82.182a1321.115 1321.115 0 0 1-1.981 140.6c-8.416 41.427-32.517 69.481-72.281 84.162-34.022 11.596-68.994 16.548-104.956 14.852-37.547 1.992-73.845-3.618-108.916-16.833-33.506-14.363-54.953-39.117-64.36-74.261a2451.256 2451.256 0 0 1-2.971-166.344h152.483c-.337 46.872 0 93.739.99 140.6 3.406 17.061 13.624 23.33 30.694 18.813 8.198-6.121 13.15-14.373 14.852-24.754 5.387-34.966 2.733-69.29-7.921-102.975-4-11.884-10.931-21.455-20.793-28.714-46.833-23.409-91.727-49.812-134.66-79.212-22.793-20.145-33.685-45.558-32.675-76.241a1183.089 1183.089 0 0 1 0-97.035c3.663-59.781 34.358-97.737 92.083-113.867a850.739 850.739 0 0 1 43.566-8.911z"/><path fill="#fefffe" opacity=".991" d="M-2233.967 259.986h152.483v619.83h-152.483v-619.83z"/><path fill="#fefffe" opacity=".989" d="M-861.626 259.986h152.483c-.337 170.307 0 340.612.99 510.915 2.99 13.23 11.248 19.171 24.754 17.823 14.396 1.107 22.654-5.494 24.754-19.802.99-169.643 1.327-339.289.99-508.934h152.483v619.83h-152.483c.337-6.634 0-13.234-.99-19.802-17.624 14.023-37.744 22.274-60.4 24.754-45.071 8.163-85.341-1.739-120.798-29.704a104.808 104.808 0 0 1-18.813-30.694c-2.95-188.04-3.94-376.167-2.971-564.382z"/><path fill="#fed800" opacity=".004" d="M213.671 402.567c2.634 1.321 2.634 1.321 0 0zM888.949 444.153c2.039.786 2.357 2.105.99 3.96-.911-1.176-1.248-2.497-.99-3.96zM890.93 456.035c2.634 1.321 2.634 1.321 0 0zM643.393 467.917c2.634 1.321 2.634 1.321 0 0z"/><path fill="#fed800" opacity=".012" d="M195.848 491.68c2.634 1.321 2.634 1.321 0 0zM59.209 505.542c2.634 1.321 2.634 1.321 0 0z"/><path fill="#fed800" opacity=".004" d="M890.93 529.306c2.039.786 2.357 2.105.99 3.96-.911-1.176-1.248-2.497-.99-3.96zM886.969 566.931c2.634 1.321 2.634 1.321 0 0zM67.13 578.813c2.634 1.321 2.634 1.321 0 0zM227.533 630.3c2.634 1.321 2.634 1.321 0 0zM871.127 644.162c2.634 1.321 2.634 1.321 0 0zM453.285 695.65c2.634 1.321 2.634 1.321 0 0zM112.676 701.591c2.634 1.321 2.634 1.321 0 0z"/><path fill="#fed800" opacity=".008" d="M114.657 705.551c2.634 1.321 2.634 1.321 0 0z"/><path fill="#fed800" opacity=".004" d="M492.891 741.197c2.634 1.321 2.634 1.321 0 0z"/><path fill="#fed800" opacity=".008" d="M393.877 766.941c2.634 1.321 2.634 1.321 0 0z"/><path fill="#fed800" opacity=".027" d="M429.522 776.841c2.634 1.321 2.634 1.321 0 0z"/><path fill="#fed800" opacity=".004" d="M494.872 778.822c2.634 1.321 2.634 1.321 0 0z"/><path fill="#fed800" opacity=".008" d="M750.33 814.468c2.634 1.321 2.634 1.321 0 0z"/><path fill="#fed800" opacity=".004" d="M645.374 889.718c2.634 1.321 2.634 1.321 0 0z"/><path fill="#fed800" opacity=".016" d="M370.114 903.58c2.634 1.321 2.634 1.321 0 0z"/><path fill="#fed800" opacity=".004" d="M591.906 903.58c2.634 1.321 2.634 1.321 0 0zM395.858 909.522c2.634 1.321 2.634 1.321 0 0zM383.975 949.126c2.634 1.321 2.634 1.321 0 0zM23.563 984.772c2.634 1.321 2.634 1.321 0 0z"/></svg>