<svg aria-hidden="true" style="position: absolute; width: 0; height: 0; overflow: hidden;" version="1.1" xmlns="http://www.w3.org/2000/svg" xmlns:xlink="http://www.w3.org/1999/xlink">
<defs>
<symbol id="icon-instagram-qr" viewBox="0 0 32 32">
<path fill="#fff" style="fill: var(--color1, #fff)" d="M0 0h32v32h-32v-32z"></path>
<path fill="#000" style="fill: var(--color2, #000)" d="M1.032 1.032h1.032v1.032h-1.032zM2.065 1.032h1.032v1.032h-1.032zM3.097 1.032h1.032v1.032h-1.032zM4.129 1.032h1.032v1.032h-1.032zM5.161 1.032h1.032v1.032h-1.032zM6.194 1.032h1.032v1.032h-1.032zM7.226 1.032h1.032v1.032h-1.032zM11.355 1.032h1.032v1.032h-1.032zM12.387 1.032h1.032v1.032h-1.032zM13.419 1.032h1.032v1.032h-1.032zM14.452 1.032h1.032v1.032h-1.032zM17.548 1.032h1.032v1.032h-1.032zM20.645 1.032h1.032v1.032h-1.032zM21.677 1.032h1.032v1.032h-1.032zM23.742 1.032h1.032v1.032h-1.032zM24.774 1.032h1.032v1.032h-1.032zM25.806 1.032h1.032v1.032h-1.032zM26.839 1.032h1.032v1.032h-1.032zM27.871 1.032h1.032v1.032h-1.032zM28.903 1.032h1.032v1.032h-1.032zM29.935 1.032h1.032v1.032h-1.032zM1.032 2.065h1.032v1.032h-1.032zM7.226 2.065h1.032v1.032h-1.032zM9.29 2.065h1.032v1.032h-1.032zM10.323 2.065h1.032v1.032h-1.032zM11.355 2.065h1.032v1.032h-1.032zM16.516 2.065h1.032v1.032h-1.032zM18.581 2.065h1.032v1.032h-1.032zM19.613 2.065h1.032v1.032h-1.032zM21.677 2.065h1.032v1.032h-1.032zM23.742 2.065h1.032v1.032h-1.032zM29.935 2.065h1.032v1.032h-1.032zM1.032 3.097h1.032v1.032h-1.032zM3.097 3.097h1.032v1.032h-1.032zM4.129 3.097h1.032v1.032h-1.032zM5.161 3.097h1.032v1.032h-1.032zM7.226 3.097h1.032v1.032h-1.032zM10.323 3.097h1.032v1.032h-1.032zM11.355 3.097h1.032v1.032h-1.032zM13.419 3.097h1.032v1.032h-1.032zM15.484 3.097h1.032v1.032h-1.032zM16.516 3.097h1.032v1.032h-1.032zM19.613 3.097h1.032v1.032h-1.032zM20.645 3.097h1.032v1.032h-1.032zM21.677 3.097h1.032v1.032h-1.032zM23.742 3.097h1.032v1.032h-1.032zM25.806 3.097h1.032v1.032h-1.032zM26.839 3.097h1.032v1.032h-1.032zM27.871 3.097h1.032v1.032h-1.032zM29.935 3.097h1.032v1.032h-1.032zM1.032 4.129h1.032v1.032h-1.032zM3.097 4.129h1.032v1.032h-1.032zM4.129 4.129h1.032v1.032h-1.032zM5.161 4.129h1.032v1.032h-1.032zM7.226 4.129h1.032v1.032h-1.032zM9.29 4.129h1.032v1.032h-1.032zM10.323 4.129h1.032v1.032h-1.032zM12.387 4.129h1.032v1.032h-1.032zM14.452 4.129h1.032v1.032h-1.032zM15.484 4.129h1.032v1.032h-1.032zM18.581 4.129h1.032v1.032h-1.032zM20.645 4.129h1.032v1.032h-1.032zM23.742 4.129h1.032v1.032h-1.032zM25.806 4.129h1.032v1.032h-1.032zM26.839 4.129h1.032v1.032h-1.032zM27.871 4.129h1.032v1.032h-1.032zM29.935 4.129h1.032v1.032h-1.032zM1.032 5.161h1.032v1.032h-1.032zM3.097 5.161h1.032v1.032h-1.032zM4.129 5.161h1.032v1.032h-1.032zM5.161 5.161h1.032v1.032h-1.032zM7.226 5.161h1.032v1.032h-1.032zM17.548 5.161h1.032v1.032h-1.032zM18.581 5.161h1.032v1.032h-1.032zM19.613 5.161h1.032v1.032h-1.032zM20.645 5.161h1.032v1.032h-1.032zM23.742 5.161h1.032v1.032h-1.032zM25.806 5.161h1.032v1.032h-1.032zM26.839 5.161h1.032v1.032h-1.032zM27.871 5.161h1.032v1.032h-1.032zM29.935 5.161h1.032v1.032h-1.032zM1.032 6.194h1.032v1.032h-1.032zM7.226 6.194h1.032v1.032h-1.032zM9.29 6.194h1.032v1.032h-1.032zM11.355 6.194h1.032v1.032h-1.032zM13.419 6.194h1.032v1.032h-1.032zM15.484 6.194h1.032v1.032h-1.032zM16.516 6.194h1.032v1.032h-1.032zM17.548 6.194h1.032v1.032h-1.032zM19.613 6.194h1.032v1.032h-1.032zM21.677 6.194h1.032v1.032h-1.032zM23.742 6.194h1.032v1.032h-1.032zM29.935 6.194h1.032v1.032h-1.032zM1.032 7.226h1.032v1.032h-1.032zM2.065 7.226h1.032v1.032h-1.032zM3.097 7.226h1.032v1.032h-1.032zM4.129 7.226h1.032v1.032h-1.032zM5.161 7.226h1.032v1.032h-1.032zM6.194 7.226h1.032v1.032h-1.032zM7.226 7.226h1.032v1.032h-1.032zM9.29 7.226h1.032v1.032h-1.032zM11.355 7.226h1.032v1.032h-1.032zM13.419 7.226h1.032v1.032h-1.032zM15.484 7.226h1.032v1.032h-1.032zM17.548 7.226h1.032v1.032h-1.032zM19.613 7.226h1.032v1.032h-1.032zM21.677 7.226h1.032v1.032h-1.032zM23.742 7.226h1.032v1.032h-1.032zM24.774 7.226h1.032v1.032h-1.032zM25.806 7.226h1.032v1.032h-1.032zM26.839 7.226h1.032v1.032h-1.032zM27.871 7.226h1.032v1.032h-1.032zM28.903 7.226h1.032v1.032h-1.032zM29.935 7.226h1.032v1.032h-1.032zM12.387 8.258h1.032v1.032h-1.032zM13.419 8.258h1.032v1.032h-1.032zM21.677 8.258h1.032v1.032h-1.032zM1.032 9.29h1.032v1.032h-1.032zM2.065 9.29h1.032v1.032h-1.032zM3.097 9.29h1.032v1.032h-1.032zM4.129 9.29h1.032v1.032h-1.032zM5.161 9.29h1.032v1.032h-1.032zM7.226 9.29h1.032v1.032h-1.032zM8.258 9.29h1.032v1.032h-1.032zM9.29 9.29h1.032v1.032h-1.032zM10.323 9.29h1.032v1.032h-1.032zM11.355 9.29h1.032v1.032h-1.032zM14.452 9.29h1.032v1.032h-1.032zM16.516 9.29h1.032v1.032h-1.032zM17.548 9.29h1.032v1.032h-1.032zM18.581 9.29h1.032v1.032h-1.032zM20.645 9.29h1.032v1.032h-1.032zM22.71 9.29h1.032v1.032h-1.032zM24.774 9.29h1.032v1.032h-1.032zM26.839 9.29h1.032v1.032h-1.032zM28.903 9.29h1.032v1.032h-1.032zM1.032 10.323h1.032v1.032h-1.032zM2.065 10.323h1.032v1.032h-1.032zM3.097 10.323h1.032v1.032h-1.032zM4.129 10.323h1.032v1.032h-1.032zM5.161 10.323h1.032v1.032h-1.032zM10.323 10.323h1.032v1.032h-1.032zM12.387 10.323h1.032v1.032h-1.032zM13.419 10.323h1.032v1.032h-1.032zM14.452 10.323h1.032v1.032h-1.032zM15.484 10.323h1.032v1.032h-1.032zM17.548 10.323h1.032v1.032h-1.032zM18.581 10.323h1.032v1.032h-1.032zM19.613 10.323h1.032v1.032h-1.032zM20.645 10.323h1.032v1.032h-1.032zM21.677 10.323h1.032v1.032h-1.032zM22.71 10.323h1.032v1.032h-1.032zM23.742 10.323h1.032v1.032h-1.032zM24.774 10.323h1.032v1.032h-1.032zM25.806 10.323h1.032v1.032h-1.032zM29.935 10.323h1.032v1.032h-1.032zM3.097 11.355h1.032v1.032h-1.032zM7.226 11.355h1.032v1.032h-1.032zM9.29 11.355h1.032v1.032h-1.032zM10.323 11.355h1.032v1.032h-1.032zM15.484 11.355h1.032v1.032h-1.032zM16.516 11.355h1.032v1.032h-1.032zM17.548 11.355h1.032v1.032h-1.032zM18.581 11.355h1.032v1.032h-1.032zM21.677 11.355h1.032v1.032h-1.032zM22.71 11.355h1.032v1.032h-1.032zM25.806 11.355h1.032v1.032h-1.032zM5.161 12.387h1.032v1.032h-1.032zM6.194 12.387h1.032v1.032h-1.032zM10.323 12.387h1.032v1.032h-1.032zM11.355 12.387h1.032v1.032h-1.032zM15.484 12.387h1.032v1.032h-1.032zM17.548 12.387h1.032v1.032h-1.032zM19.613 12.387h1.032v1.032h-1.032zM20.645 12.387h1.032v1.032h-1.032zM21.677 12.387h1.032v1.032h-1.032zM24.774 12.387h1.032v1.032h-1.032zM25.806 12.387h1.032v1.032h-1.032zM26.839 12.387h1.032v1.032h-1.032zM28.903 12.387h1.032v1.032h-1.032zM1.032 13.419h1.032v1.032h-1.032zM2.065 13.419h1.032v1.032h-1.032zM5.161 13.419h1.032v1.032h-1.032zM7.226 13.419h1.032v1.032h-1.032zM8.258 13.419h1.032v1.032h-1.032zM9.29 13.419h1.032v1.032h-1.032zM10.323 13.419h1.032v1.032h-1.032zM12.387 13.419h1.032v1.032h-1.032zM13.419 13.419h1.032v1.032h-1.032zM15.484 13.419h1.032v1.032h-1.032zM16.516 13.419h1.032v1.032h-1.032zM18.581 13.419h1.032v1.032h-1.032zM20.645 13.419h1.032v1.032h-1.032zM24.774 13.419h1.032v1.032h-1.032zM26.839 13.419h1.032v1.032h-1.032zM27.871 13.419h1.032v1.032h-1.032zM2.065 14.452h1.032v1.032h-1.032zM4.129 14.452h1.032v1.032h-1.032zM8.258 14.452h1.032v1.032h-1.032zM9.29 14.452h1.032v1.032h-1.032zM11.355 14.452h1.032v1.032h-1.032zM14.452 14.452h1.032v1.032h-1.032zM15.484 14.452h1.032v1.032h-1.032zM17.548 14.452h1.032v1.032h-1.032zM19.613 14.452h1.032v1.032h-1.032zM20.645 14.452h1.032v1.032h-1.032zM21.677 14.452h1.032v1.032h-1.032zM22.71 14.452h1.032v1.032h-1.032zM23.742 14.452h1.032v1.032h-1.032zM24.774 14.452h1.032v1.032h-1.032zM25.806 14.452h1.032v1.032h-1.032zM29.935 14.452h1.032v1.032h-1.032zM3.097 15.484h1.032v1.032h-1.032zM5.161 15.484h1.032v1.032h-1.032zM6.194 15.484h1.032v1.032h-1.032zM7.226 15.484h1.032v1.032h-1.032zM8.258 15.484h1.032v1.032h-1.032zM9.29 15.484h1.032v1.032h-1.032zM10.323 15.484h1.032v1.032h-1.032zM11.355 15.484h1.032v1.032h-1.032zM13.419 15.484h1.032v1.032h-1.032zM16.516 15.484h1.032v1.032h-1.032zM17.548 15.484h1.032v1.032h-1.032zM18.581 15.484h1.032v1.032h-1.032zM21.677 15.484h1.032v1.032h-1.032zM24.774 15.484h1.032v1.032h-1.032zM26.839 15.484h1.032v1.032h-1.032zM27.871 15.484h1.032v1.032h-1.032zM1.032 16.516h1.032v1.032h-1.032zM3.097 16.516h1.032v1.032h-1.032zM4.129 16.516h1.032v1.032h-1.032zM5.161 16.516h1.032v1.032h-1.032zM8.258 16.516h1.032v1.032h-1.032zM9.29 16.516h1.032v1.032h-1.032zM12.387 16.516h1.032v1.032h-1.032zM13.419 16.516h1.032v1.032h-1.032zM15.484 16.516h1.032v1.032h-1.032zM16.516 16.516h1.032v1.032h-1.032zM20.645 16.516h1.032v1.032h-1.032zM23.742 16.516h1.032v1.032h-1.032zM25.806 16.516h1.032v1.032h-1.032zM28.903 16.516h1.032v1.032h-1.032zM1.032 17.548h1.032v1.032h-1.032zM2.065 17.548h1.032v1.032h-1.032zM3.097 17.548h1.032v1.032h-1.032zM7.226 17.548h1.032v1.032h-1.032zM10.323 17.548h1.032v1.032h-1.032zM11.355 17.548h1.032v1.032h-1.032zM14.452 17.548h1.032v1.032h-1.032zM15.484 17.548h1.032v1.032h-1.032zM24.774 17.548h1.032v1.032h-1.032zM26.839 17.548h1.032v1.032h-1.032zM27.871 17.548h1.032v1.032h-1.032zM1.032 18.581h1.032v1.032h-1.032zM3.097 18.581h1.032v1.032h-1.032zM4.129 18.581h1.032v1.032h-1.032zM8.258 18.581h1.032v1.032h-1.032zM12.387 18.581h1.032v1.032h-1.032zM13.419 18.581h1.032v1.032h-1.032zM14.452 18.581h1.032v1.032h-1.032zM17.548 18.581h1.032v1.032h-1.032zM18.581 18.581h1.032v1.032h-1.032zM20.645 18.581h1.032v1.032h-1.032zM21.677 18.581h1.032v1.032h-1.032zM23.742 18.581h1.032v1.032h-1.032zM24.774 18.581h1.032v1.032h-1.032zM25.806 18.581h1.032v1.032h-1.032zM27.871 18.581h1.032v1.032h-1.032zM29.935 18.581h1.032v1.032h-1.032zM1.032 19.613h1.032v1.032h-1.032zM3.097 19.613h1.032v1.032h-1.032zM7.226 19.613h1.032v1.032h-1.032zM8.258 19.613h1.032v1.032h-1.032zM15.484 19.613h1.032v1.032h-1.032zM16.516 19.613h1.032v1.032h-1.032zM17.548 19.613h1.032v1.032h-1.032zM18.581 19.613h1.032v1.032h-1.032zM22.71 19.613h1.032v1.032h-1.032zM27.871 19.613h1.032v1.032h-1.032zM1.032 20.645h1.032v1.032h-1.032zM3.097 20.645h1.032v1.032h-1.032zM4.129 20.645h1.032v1.032h-1.032zM5.161 20.645h1.032v1.032h-1.032zM8.258 20.645h1.032v1.032h-1.032zM10.323 20.645h1.032v1.032h-1.032zM13.419 20.645h1.032v1.032h-1.032zM15.484 20.645h1.032v1.032h-1.032zM17.548 20.645h1.032v1.032h-1.032zM20.645 20.645h1.032v1.032h-1.032zM21.677 20.645h1.032v1.032h-1.032zM22.71 20.645h1.032v1.032h-1.032zM23.742 20.645h1.032v1.032h-1.032zM24.774 20.645h1.032v1.032h-1.032zM28.903 20.645h1.032v1.032h-1.032zM1.032 21.677h1.032v1.032h-1.032zM4.129 21.677h1.032v1.032h-1.032zM5.161 21.677h1.032v1.032h-1.032zM6.194 21.677h1.032v1.032h-1.032zM7.226 21.677h1.032v1.032h-1.032zM8.258 21.677h1.032v1.032h-1.032zM10.323 21.677h1.032v1.032h-1.032zM11.355 21.677h1.032v1.032h-1.032zM13.419 21.677h1.032v1.032h-1.032zM15.484 21.677h1.032v1.032h-1.032zM17.548 21.677h1.032v1.032h-1.032zM20.645 21.677h1.032v1.032h-1.032zM21.677 21.677h1.032v1.032h-1.032zM22.71 21.677h1.032v1.032h-1.032zM23.742 21.677h1.032v1.032h-1.032zM24.774 21.677h1.032v1.032h-1.032zM25.806 21.677h1.032v1.032h-1.032zM27.871 21.677h1.032v1.032h-1.032zM28.903 21.677h1.032v1.032h-1.032zM29.935 21.677h1.032v1.032h-1.032zM9.29 22.71h1.032v1.032h-1.032zM10.323 22.71h1.032v1.032h-1.032zM14.452 22.71h1.032v1.032h-1.032zM18.581 22.71h1.032v1.032h-1.032zM21.677 22.71h1.032v1.032h-1.032zM25.806 22.71h1.032v1.032h-1.032zM26.839 22.71h1.032v1.032h-1.032zM27.871 22.71h1.032v1.032h-1.032zM28.903 22.71h1.032v1.032h-1.032zM29.935 22.71h1.032v1.032h-1.032zM1.032 23.742h1.032v1.032h-1.032zM2.065 23.742h1.032v1.032h-1.032zM3.097 23.742h1.032v1.032h-1.032zM4.129 23.742h1.032v1.032h-1.032zM5.161 23.742h1.032v1.032h-1.032zM6.194 23.742h1.032v1.032h-1.032zM7.226 23.742h1.032v1.032h-1.032zM9.29 23.742h1.032v1.032h-1.032zM11.355 23.742h1.032v1.032h-1.032zM13.419 23.742h1.032v1.032h-1.032zM15.484 23.742h1.032v1.032h-1.032zM16.516 23.742h1.032v1.032h-1.032zM17.548 23.742h1.032v1.032h-1.032zM18.581 23.742h1.032v1.032h-1.032zM20.645 23.742h1.032v1.032h-1.032zM21.677 23.742h1.032v1.032h-1.032zM23.742 23.742h1.032v1.032h-1.032zM25.806 23.742h1.032v1.032h-1.032zM26.839 23.742h1.032v1.032h-1.032zM27.871 23.742h1.032v1.032h-1.032zM1.032 24.774h1.032v1.032h-1.032zM7.226 24.774h1.032v1.032h-1.032zM15.484 24.774h1.032v1.032h-1.032zM21.677 24.774h1.032v1.032h-1.032zM25.806 24.774h1.032v1.032h-1.032zM29.935 24.774h1.032v1.032h-1.032zM1.032 25.806h1.032v1.032h-1.032zM3.097 25.806h1.032v1.032h-1.032zM4.129 25.806h1.032v1.032h-1.032zM5.161 25.806h1.032v1.032h-1.032zM7.226 25.806h1.032v1.032h-1.032zM9.29 25.806h1.032v1.032h-1.032zM10.323 25.806h1.032v1.032h-1.032zM14.452 25.806h1.032v1.032h-1.032zM15.484 25.806h1.032v1.032h-1.032zM16.516 25.806h1.032v1.032h-1.032zM17.548 25.806h1.032v1.032h-1.032zM18.581 25.806h1.032v1.032h-1.032zM21.677 25.806h1.032v1.032h-1.032zM22.71 25.806h1.032v1.032h-1.032zM23.742 25.806h1.032v1.032h-1.032zM24.774 25.806h1.032v1.032h-1.032zM25.806 25.806h1.032v1.032h-1.032zM27.871 25.806h1.032v1.032h-1.032zM28.903 25.806h1.032v1.032h-1.032zM1.032 26.839h1.032v1.032h-1.032zM3.097 26.839h1.032v1.032h-1.032zM4.129 26.839h1.032v1.032h-1.032zM5.161 26.839h1.032v1.032h-1.032zM7.226 26.839h1.032v1.032h-1.032zM9.29 26.839h1.032v1.032h-1.032zM10.323 26.839h1.032v1.032h-1.032zM14.452 26.839h1.032v1.032h-1.032zM15.484 26.839h1.032v1.032h-1.032zM17.548 26.839h1.032v1.032h-1.032zM19.613 26.839h1.032v1.032h-1.032zM20.645 26.839h1.032v1.032h-1.032zM26.839 26.839h1.032v1.032h-1.032zM27.871 26.839h1.032v1.032h-1.032zM29.935 26.839h1.032v1.032h-1.032zM1.032 27.871h1.032v1.032h-1.032zM3.097 27.871h1.032v1.032h-1.032zM4.129 27.871h1.032v1.032h-1.032zM5.161 27.871h1.032v1.032h-1.032zM7.226 27.871h1.032v1.032h-1.032zM9.29 27.871h1.032v1.032h-1.032zM16.516 27.871h1.032v1.032h-1.032zM17.548 27.871h1.032v1.032h-1.032zM18.581 27.871h1.032v1.032h-1.032zM19.613 27.871h1.032v1.032h-1.032zM20.645 27.871h1.032v1.032h-1.032zM21.677 27.871h1.032v1.032h-1.032zM22.71 27.871h1.032v1.032h-1.032zM23.742 27.871h1.032v1.032h-1.032zM24.774 27.871h1.032v1.032h-1.032zM25.806 27.871h1.032v1.032h-1.032zM26.839 27.871h1.032v1.032h-1.032zM27.871 27.871h1.032v1.032h-1.032zM28.903 27.871h1.032v1.032h-1.032zM1.032 28.903h1.032v1.032h-1.032zM7.226 28.903h1.032v1.032h-1.032zM9.29 28.903h1.032v1.032h-1.032zM10.323 28.903h1.032v1.032h-1.032zM15.484 28.903h1.032v1.032h-1.032zM16.516 28.903h1.032v1.032h-1.032zM17.548 28.903h1.032v1.032h-1.032zM19.613 28.903h1.032v1.032h-1.032zM21.677 28.903h1.032v1.032h-1.032zM22.71 28.903h1.032v1.032h-1.032zM24.774 28.903h1.032v1.032h-1.032zM25.806 28.903h1.032v1.032h-1.032zM26.839 28.903h1.032v1.032h-1.032zM28.903 28.903h1.032v1.032h-1.032zM1.032 29.935h1.032v1.032h-1.032zM2.065 29.935h1.032v1.032h-1.032zM3.097 29.935h1.032v1.032h-1.032zM4.129 29.935h1.032v1.032h-1.032zM5.161 29.935h1.032v1.032h-1.032zM6.194 29.935h1.032v1.032h-1.032zM7.226 29.935h1.032v1.032h-1.032zM9.29 29.935h1.032v1.032h-1.032zM12.387 29.935h1.032v1.032h-1.032zM13.419 29.935h1.032v1.032h-1.032zM15.484 29.935h1.032v1.032h-1.032zM16.516 29.935h1.032v1.032h-1.032zM17.548 29.935h1.032v1.032h-1.032zM18.581 29.935h1.032v1.032h-1.032zM20.645 29.935h1.032v1.032h-1.032zM27.871 29.935h1.032v1.032h-1.032z"></path>
</symbol>
<symbol id="icon-kyivstar-qr" viewBox="0 0 32 32">
<path fill="#fff" style="fill: var(--color1, #fff)" d="M0 0h32v32h-32v-32z"></path>
<path fill="#000" style="fill: var(--color2, #000)" d="M1.391 1.391h1.391v1.391h-1.391zM2.783 1.391h1.391v1.391h-1.391zM4.174 1.391h1.391v1.391h-1.391zM5.565 1.391h1.391v1.391h-1.391zM6.957 1.391h1.391v1.391h-1.391zM8.348 1.391h1.391v1.391h-1.391zM9.739 1.391h1.391v1.391h-1.391zM15.304 1.391h1.391v1.391h-1.391zM16.696 1.391h1.391v1.391h-1.391zM18.087 1.391h1.391v1.391h-1.391zM20.87 1.391h1.391v1.391h-1.391zM22.261 1.391h1.391v1.391h-1.391zM23.652 1.391h1.391v1.391h-1.391zM25.043 1.391h1.391v1.391h-1.391zM26.435 1.391h1.391v1.391h-1.391zM27.826 1.391h1.391v1.391h-1.391zM29.217 1.391h1.391v1.391h-1.391zM1.391 2.783h1.391v1.391h-1.391zM9.739 2.783h1.391v1.391h-1.391zM12.522 2.783h1.391v1.391h-1.391zM13.913 2.783h1.391v1.391h-1.391zM15.304 2.783h1.391v1.391h-1.391zM18.087 2.783h1.391v1.391h-1.391zM20.87 2.783h1.391v1.391h-1.391zM29.217 2.783h1.391v1.391h-1.391zM1.391 4.174h1.391v1.391h-1.391zM4.174 4.174h1.391v1.391h-1.391zM5.565 4.174h1.391v1.391h-1.391zM6.957 4.174h1.391v1.391h-1.391zM9.739 4.174h1.391v1.391h-1.391zM15.304 4.174h1.391v1.391h-1.391zM16.696 4.174h1.391v1.391h-1.391zM18.087 4.174h1.391v1.391h-1.391zM20.87 4.174h1.391v1.391h-1.391zM23.652 4.174h1.391v1.391h-1.391zM25.043 4.174h1.391v1.391h-1.391zM26.435 4.174h1.391v1.391h-1.391zM29.217 4.174h1.391v1.391h-1.391zM1.391 5.565h1.391v1.391h-1.391zM4.174 5.565h1.391v1.391h-1.391zM5.565 5.565h1.391v1.391h-1.391zM6.957 5.565h1.391v1.391h-1.391zM9.739 5.565h1.391v1.391h-1.391zM12.522 5.565h1.391v1.391h-1.391zM13.913 5.565h1.391v1.391h-1.391zM18.087 5.565h1.391v1.391h-1.391zM20.87 5.565h1.391v1.391h-1.391zM23.652 5.565h1.391v1.391h-1.391zM25.043 5.565h1.391v1.391h-1.391zM26.435 5.565h1.391v1.391h-1.391zM29.217 5.565h1.391v1.391h-1.391zM1.391 6.957h1.391v1.391h-1.391zM4.174 6.957h1.391v1.391h-1.391zM5.565 6.957h1.391v1.391h-1.391zM6.957 6.957h1.391v1.391h-1.391zM9.739 6.957h1.391v1.391h-1.391zM13.913 6.957h1.391v1.391h-1.391zM18.087 6.957h1.391v1.391h-1.391zM20.87 6.957h1.391v1.391h-1.391zM23.652 6.957h1.391v1.391h-1.391zM25.043 6.957h1.391v1.391h-1.391zM26.435 6.957h1.391v1.391h-1.391zM29.217 6.957h1.391v1.391h-1.391zM1.391 8.348h1.391v1.391h-1.391zM9.739 8.348h1.391v1.391h-1.391zM12.522 8.348h1.391v1.391h-1.391zM16.696 8.348h1.391v1.391h-1.391zM20.87 8.348h1.391v1.391h-1.391zM29.217 8.348h1.391v1.391h-1.391zM1.391 9.739h1.391v1.391h-1.391zM2.783 9.739h1.391v1.391h-1.391zM4.174 9.739h1.391v1.391h-1.391zM5.565 9.739h1.391v1.391h-1.391zM6.957 9.739h1.391v1.391h-1.391zM8.348 9.739h1.391v1.391h-1.391zM9.739 9.739h1.391v1.391h-1.391zM12.522 9.739h1.391v1.391h-1.391zM15.304 9.739h1.391v1.391h-1.391zM18.087 9.739h1.391v1.391h-1.391zM20.87 9.739h1.391v1.391h-1.391zM22.261 9.739h1.391v1.391h-1.391zM23.652 9.739h1.391v1.391h-1.391zM25.043 9.739h1.391v1.391h-1.391zM26.435 9.739h1.391v1.391h-1.391zM27.826 9.739h1.391v1.391h-1.391zM29.217 9.739h1.391v1.391h-1.391zM13.913 11.13h1.391v1.391h-1.391zM1.391 12.522h1.391v1.391h-1.391zM2.783 12.522h1.391v1.391h-1.391zM4.174 12.522h1.391v1.391h-1.391zM5.565 12.522h1.391v1.391h-1.391zM6.957 12.522h1.391v1.391h-1.391zM9.739 12.522h1.391v1.391h-1.391zM11.13 12.522h1.391v1.391h-1.391zM12.522 12.522h1.391v1.391h-1.391zM16.696 12.522h1.391v1.391h-1.391zM19.478 12.522h1.391v1.391h-1.391zM22.261 12.522h1.391v1.391h-1.391zM25.043 12.522h1.391v1.391h-1.391zM27.826 12.522h1.391v1.391h-1.391zM5.565 13.913h1.391v1.391h-1.391zM8.348 13.913h1.391v1.391h-1.391zM12.522 13.913h1.391v1.391h-1.391zM15.304 13.913h1.391v1.391h-1.391zM18.087 13.913h1.391v1.391h-1.391zM23.652 13.913h1.391v1.391h-1.391zM25.043 13.913h1.391v1.391h-1.391zM26.435 13.913h1.391v1.391h-1.391zM29.217 13.913h1.391v1.391h-1.391zM6.957 15.304h1.391v1.391h-1.391zM8.348 15.304h1.391v1.391h-1.391zM9.739 15.304h1.391v1.391h-1.391zM12.522 15.304h1.391v1.391h-1.391zM13.913 15.304h1.391v1.391h-1.391zM18.087 15.304h1.391v1.391h-1.391zM19.478 15.304h1.391v1.391h-1.391zM22.261 15.304h1.391v1.391h-1.391zM25.043 15.304h1.391v1.391h-1.391zM26.435 15.304h1.391v1.391h-1.391zM27.826 15.304h1.391v1.391h-1.391zM1.391 16.696h1.391v1.391h-1.391zM2.783 16.696h1.391v1.391h-1.391zM4.174 16.696h1.391v1.391h-1.391zM5.565 16.696h1.391v1.391h-1.391zM6.957 16.696h1.391v1.391h-1.391zM8.348 16.696h1.391v1.391h-1.391zM11.13 16.696h1.391v1.391h-1.391zM12.522 16.696h1.391v1.391h-1.391zM18.087 16.696h1.391v1.391h-1.391zM19.478 16.696h1.391v1.391h-1.391zM22.261 16.696h1.391v1.391h-1.391zM25.043 16.696h1.391v1.391h-1.391zM26.435 16.696h1.391v1.391h-1.391zM1.391 18.087h1.391v1.391h-1.391zM6.957 18.087h1.391v1.391h-1.391zM8.348 18.087h1.391v1.391h-1.391zM9.739 18.087h1.391v1.391h-1.391zM12.522 18.087h1.391v1.391h-1.391zM19.478 18.087h1.391v1.391h-1.391zM20.87 18.087h1.391v1.391h-1.391zM22.261 18.087h1.391v1.391h-1.391zM27.826 18.087h1.391v1.391h-1.391zM12.522 19.478h1.391v1.391h-1.391zM13.913 19.478h1.391v1.391h-1.391zM16.696 19.478h1.391v1.391h-1.391zM18.087 19.478h1.391v1.391h-1.391zM19.478 19.478h1.391v1.391h-1.391zM20.87 19.478h1.391v1.391h-1.391zM25.043 19.478h1.391v1.391h-1.391zM27.826 19.478h1.391v1.391h-1.391zM29.217 19.478h1.391v1.391h-1.391zM1.391 20.87h1.391v1.391h-1.391zM2.783 20.87h1.391v1.391h-1.391zM4.174 20.87h1.391v1.391h-1.391zM5.565 20.87h1.391v1.391h-1.391zM6.957 20.87h1.391v1.391h-1.391zM8.348 20.87h1.391v1.391h-1.391zM9.739 20.87h1.391v1.391h-1.391zM12.522 20.87h1.391v1.391h-1.391zM15.304 20.87h1.391v1.391h-1.391zM18.087 20.87h1.391v1.391h-1.391zM22.261 20.87h1.391v1.391h-1.391zM26.435 20.87h1.391v1.391h-1.391zM27.826 20.87h1.391v1.391h-1.391zM1.391 22.261h1.391v1.391h-1.391zM9.739 22.261h1.391v1.391h-1.391zM15.304 22.261h1.391v1.391h-1.391zM18.087 22.261h1.391v1.391h-1.391zM19.478 22.261h1.391v1.391h-1.391zM20.87 22.261h1.391v1.391h-1.391zM22.261 22.261h1.391v1.391h-1.391zM26.435 22.261h1.391v1.391h-1.391zM27.826 22.261h1.391v1.391h-1.391zM29.217 22.261h1.391v1.391h-1.391zM1.391 23.652h1.391v1.391h-1.391zM4.174 23.652h1.391v1.391h-1.391zM5.565 23.652h1.391v1.391h-1.391zM6.957 23.652h1.391v1.391h-1.391zM9.739 23.652h1.391v1.391h-1.391zM12.522 23.652h1.391v1.391h-1.391zM18.087 23.652h1.391v1.391h-1.391zM19.478 23.652h1.391v1.391h-1.391zM20.87 23.652h1.391v1.391h-1.391zM1.391 25.043h1.391v1.391h-1.391zM4.174 25.043h1.391v1.391h-1.391zM5.565 25.043h1.391v1.391h-1.391zM6.957 25.043h1.391v1.391h-1.391zM9.739 25.043h1.391v1.391h-1.391zM12.522 25.043h1.391v1.391h-1.391zM15.304 25.043h1.391v1.391h-1.391zM18.087 25.043h1.391v1.391h-1.391zM20.87 25.043h1.391v1.391h-1.391zM22.261 25.043h1.391v1.391h-1.391zM23.652 25.043h1.391v1.391h-1.391zM26.435 25.043h1.391v1.391h-1.391zM1.391 26.435h1.391v1.391h-1.391zM4.174 26.435h1.391v1.391h-1.391zM5.565 26.435h1.391v1.391h-1.391zM6.957 26.435h1.391v1.391h-1.391zM9.739 26.435h1.391v1.391h-1.391zM12.522 26.435h1.391v1.391h-1.391zM13.913 26.435h1.391v1.391h-1.391zM15.304 26.435h1.391v1.391h-1.391zM23.652 26.435h1.391v1.391h-1.391zM26.435 26.435h1.391v1.391h-1.391zM1.391 27.826h1.391v1.391h-1.391zM9.739 27.826h1.391v1.391h-1.391zM12.522 27.826h1.391v1.391h-1.391zM16.696 27.826h1.391v1.391h-1.391zM18.087 27.826h1.391v1.391h-1.391zM23.652 27.826h1.391v1.391h-1.391zM26.435 27.826h1.391v1.391h-1.391zM1.391 29.217h1.391v1.391h-1.391zM2.783 29.217h1.391v1.391h-1.391zM4.174 29.217h1.391v1.391h-1.391zM5.565 29.217h1.391v1.391h-1.391zM6.957 29.217h1.391v1.391h-1.391zM8.348 29.217h1.391v1.391h-1.391zM9.739 29.217h1.391v1.391h-1.391zM12.522 29.217h1.391v1.391h-1.391zM13.913 29.217h1.391v1.391h-1.391zM15.304 29.217h1.391v1.391h-1.391zM20.87 29.217h1.391v1.391h-1.391zM25.043 29.217h1.391v1.391h-1.391zM26.435 29.217h1.391v1.391h-1.391zM27.826 29.217h1.391v1.391h-1.391z"></path>
</symbol>
<symbol id="icon-deutsch-qr" viewBox="0 0 32 32">
<path fill="#fff" style="fill: var(--color1, #fff)" d="M0 0h32v32h-32v-32z"></path>
<path fill="#000" style="fill: var(--color2, #000)" d="M1.391 1.391h1.391v1.391h-1.391zM2.783 1.391h1.391v1.391h-1.391zM4.174 1.391h1.391v1.391h-1.391zM5.565 1.391h1.391v1.391h-1.391zM6.957 1.391h1.391v1.391h-1.391zM8.348 1.391h1.391v1.391h-1.391zM9.739 1.391h1.391v1.391h-1.391zM15.304 1.391h1.391v1.391h-1.391zM16.696 1.391h1.391v1.391h-1.391zM18.087 1.391h1.391v1.391h-1.391zM20.87 1.391h1.391v1.391h-1.391zM22.261 1.391h1.391v1.391h-1.391zM23.652 1.391h1.391v1.391h-1.391zM25.043 1.391h1.391v1.391h-1.391zM26.435 1.391h1.391v1.391h-1.391zM27.826 1.391h1.391v1.391h-1.391zM29.217 1.391h1.391v1.391h-1.391zM1.391 2.783h1.391v1.391h-1.391zM9.739 2.783h1.391v1.391h-1.391zM12.522 2.783h1.391v1.391h-1.391zM13.913 2.783h1.391v1.391h-1.391zM15.304 2.783h1.391v1.391h-1.391zM18.087 2.783h1.391v1.391h-1.391zM20.87 2.783h1.391v1.391h-1.391zM29.217 2.783h1.391v1.391h-1.391zM1.391 4.174h1.391v1.391h-1.391zM4.174 4.174h1.391v1.391h-1.391zM5.565 4.174h1.391v1.391h-1.391zM6.957 4.174h1.391v1.391h-1.391zM9.739 4.174h1.391v1.391h-1.391zM15.304 4.174h1.391v1.391h-1.391zM16.696 4.174h1.391v1.391h-1.391zM18.087 4.174h1.391v1.391h-1.391zM20.87 4.174h1.391v1.391h-1.391zM23.652 4.174h1.391v1.391h-1.391zM25.043 4.174h1.391v1.391h-1.391zM26.435 4.174h1.391v1.391h-1.391zM29.217 4.174h1.391v1.391h-1.391zM1.391 5.565h1.391v1.391h-1.391zM4.174 5.565h1.391v1.391h-1.391zM5.565 5.565h1.391v1.391h-1.391zM6.957 5.565h1.391v1.391h-1.391zM9.739 5.565h1.391v1.391h-1.391zM12.522 5.565h1.391v1.391h-1.391zM13.913 5.565h1.391v1.391h-1.391zM18.087 5.565h1.391v1.391h-1.391zM20.87 5.565h1.391v1.391h-1.391zM23.652 5.565h1.391v1.391h-1.391zM25.043 5.565h1.391v1.391h-1.391zM26.435 5.565h1.391v1.391h-1.391zM29.217 5.565h1.391v1.391h-1.391zM1.391 6.957h1.391v1.391h-1.391zM4.174 6.957h1.391v1.391h-1.391zM5.565 6.957h1.391v1.391h-1.391zM6.957 6.957h1.391v1.391h-1.391zM9.739 6.957h1.391v1.391h-1.391zM13.913 6.957h1.391v1.391h-1.391zM18.087 6.957h1.391v1.391h-1.391zM20.87 6.957h1.391v1.391h-1.391zM23.652 6.957h1.391v1.391h-1.391zM25.043 6.957h1.391v1.391h-1.391zM26.435 6.957h1.391v1.391h-1.391zM29.217 6.957h1.391v1.391h-1.391zM1.391 8.348h1.391v1.391h-1.391zM9.739 8.348h1.391v1.391h-1.391zM12.522 8.348h1.391v1.391h-1.391zM16.696 8.348h1.391v1.391h-1.391zM20.87 8.348h1.391v1.391h-1.391zM29.217 8.348h1.391v1.391h-1.391zM1.391 9.739h1.391v1.391h-1.391zM2.783 9.739h1.391v1.391h-1.391zM4.174 9.739h1.391v1.391h-1.391zM5.565 9.739h1.391v1.391h-1.391zM6.957 9.739h1.391v1.391h-1.391zM8.348 9.739h1.391v1.391h-1.391zM9.739 9.739h1.391v1.391h-1.391zM12.522 9.739h1.391v1.391h-1.391zM15.304 9.739h1.391v1.391h-1.391zM18.087 9.739h1.391v1.391h-1.391zM20.87 9.739h1.391v1.391h-1.391zM22.261 9.739h1.391v1.391h-1.391zM23.652 9.739h1.391v1.391h-1.391zM25.043 9.739h1.391v1.391h-1.391zM26.435 9.739h1.391v1.391h-1.391zM27.826 9.739h1.391v1.391h-1.391zM29.217 9.739h1.391v1.391h-1.391zM13.913 11.13h1.391v1.391h-1.391zM1.391 12.522h1.391v1.391h-1.391zM2.783 12.522h1.391v1.391h-1.391zM4.174 12.522h1.391v1.391h-1.391zM5.565 12.522h1.391v1.391h-1.391zM6.957 12.522h1.391v1.391h-1.391zM9.739 12.522h1.391v1.391h-1.391zM11.13 12.522h1.391v1.391h-1.391zM12.522 12.522h1.391v1.391h-1.391zM16.696 12.522h1.391v1.391h-1.391zM19.478 12.522h1.391v1.391h-1.391zM22.261 12.522h1.391v1.391h-1.391zM25.043 12.522h1.391v1.391h-1.391zM27.826 12.522h1.391v1.391h-1.391zM1.391 13.913h1.391v1.391h-1.391zM2.783 13.913h1.391v1.391h-1.391zM8.348 13.913h1.391v1.391h-1.391zM11.13 13.913h1.391v1.391h-1.391zM18.087 13.913h1.391v1.391h-1.391zM23.652 13.913h1.391v1.391h-1.391zM25.043 13.913h1.391v1.391h-1.391zM26.435 13.913h1.391v1.391h-1.391zM29.217 13.913h1.391v1.391h-1.391zM4.174 15.304h1.391v1.391h-1.391zM6.957 15.304h1.391v1.391h-1.391zM9.739 15.304h1.391v1.391h-1.391zM13.913 15.304h1.391v1.391h-1.391zM15.304 15.304h1.391v1.391h-1.391zM18.087 15.304h1.391v1.391h-1.391zM19.478 15.304h1.391v1.391h-1.391zM22.261 15.304h1.391v1.391h-1.391zM25.043 15.304h1.391v1.391h-1.391zM26.435 15.304h1.391v1.391h-1.391zM27.826 15.304h1.391v1.391h-1.391zM1.391 16.696h1.391v1.391h-1.391zM2.783 16.696h1.391v1.391h-1.391zM12.522 16.696h1.391v1.391h-1.391zM13.913 16.696h1.391v1.391h-1.391zM15.304 16.696h1.391v1.391h-1.391zM18.087 16.696h1.391v1.391h-1.391zM19.478 16.696h1.391v1.391h-1.391zM20.87 16.696h1.391v1.391h-1.391zM22.261 16.696h1.391v1.391h-1.391zM25.043 16.696h1.391v1.391h-1.391zM26.435 16.696h1.391v1.391h-1.391zM1.391 18.087h1.391v1.391h-1.391zM5.565 18.087h1.391v1.391h-1.391zM9.739 18.087h1.391v1.391h-1.391zM12.522 18.087h1.391v1.391h-1.391zM15.304 18.087h1.391v1.391h-1.391zM18.087 18.087h1.391v1.391h-1.391zM20.87 18.087h1.391v1.391h-1.391zM22.261 18.087h1.391v1.391h-1.391zM27.826 18.087h1.391v1.391h-1.391zM12.522 19.478h1.391v1.391h-1.391zM13.913 19.478h1.391v1.391h-1.391zM16.696 19.478h1.391v1.391h-1.391zM20.87 19.478h1.391v1.391h-1.391zM25.043 19.478h1.391v1.391h-1.391zM27.826 19.478h1.391v1.391h-1.391zM29.217 19.478h1.391v1.391h-1.391zM1.391 20.87h1.391v1.391h-1.391zM2.783 20.87h1.391v1.391h-1.391zM4.174 20.87h1.391v1.391h-1.391zM5.565 20.87h1.391v1.391h-1.391zM6.957 20.87h1.391v1.391h-1.391zM8.348 20.87h1.391v1.391h-1.391zM9.739 20.87h1.391v1.391h-1.391zM12.522 20.87h1.391v1.391h-1.391zM13.913 20.87h1.391v1.391h-1.391zM15.304 20.87h1.391v1.391h-1.391zM19.478 20.87h1.391v1.391h-1.391zM20.87 20.87h1.391v1.391h-1.391zM22.261 20.87h1.391v1.391h-1.391zM26.435 20.87h1.391v1.391h-1.391zM27.826 20.87h1.391v1.391h-1.391zM1.391 22.261h1.391v1.391h-1.391zM9.739 22.261h1.391v1.391h-1.391zM16.696 22.261h1.391v1.391h-1.391zM19.478 22.261h1.391v1.391h-1.391zM20.87 22.261h1.391v1.391h-1.391zM22.261 22.261h1.391v1.391h-1.391zM26.435 22.261h1.391v1.391h-1.391zM27.826 22.261h1.391v1.391h-1.391zM29.217 22.261h1.391v1.391h-1.391zM1.391 23.652h1.391v1.391h-1.391zM4.174 23.652h1.391v1.391h-1.391zM5.565 23.652h1.391v1.391h-1.391zM6.957 23.652h1.391v1.391h-1.391zM9.739 23.652h1.391v1.391h-1.391zM12.522 23.652h1.391v1.391h-1.391zM13.913 23.652h1.391v1.391h-1.391zM15.304 23.652h1.391v1.391h-1.391zM18.087 23.652h1.391v1.391h-1.391zM1.391 25.043h1.391v1.391h-1.391zM4.174 25.043h1.391v1.391h-1.391zM5.565 25.043h1.391v1.391h-1.391zM6.957 25.043h1.391v1.391h-1.391zM9.739 25.043h1.391v1.391h-1.391zM12.522 25.043h1.391v1.391h-1.391zM15.304 25.043h1.391v1.391h-1.391zM18.087 25.043h1.391v1.391h-1.391zM22.261 25.043h1.391v1.391h-1.391zM23.652 25.043h1.391v1.391h-1.391zM26.435 25.043h1.391v1.391h-1.391zM1.391 26.435h1.391v1.391h-1.391zM4.174 26.435h1.391v1.391h-1.391zM5.565 26.435h1.391v1.391h-1.391zM6.957 26.435h1.391v1.391h-1.391zM9.739 26.435h1.391v1.391h-1.391zM12.522 26.435h1.391v1.391h-1.391zM15.304 26.435h1.391v1.391h-1.391zM16.696 26.435h1.391v1.391h-1.391zM18.087 26.435h1.391v1.391h-1.391zM19.478 26.435h1.391v1.391h-1.391zM20.87 26.435h1.391v1.391h-1.391zM23.652 26.435h1.391v1.391h-1.391zM26.435 26.435h1.391v1.391h-1.391zM1.391 27.826h1.391v1.391h-1.391zM9.739 27.826h1.391v1.391h-1.391zM12.522 27.826h1.391v1.391h-1.391zM13.913 27.826h1.391v1.391h-1.391zM15.304 27.826h1.391v1.391h-1.391zM18.087 27.826h1.391v1.391h-1.391zM19.478 27.826h1.391v1.391h-1.391zM23.652 27.826h1.391v1.391h-1.391zM26.435 27.826h1.391v1.391h-1.391zM1.391 29.217h1.391v1.391h-1.391zM2.783 29.217h1.391v1.391h-1.391zM4.174 29.217h1.391v1.391h-1.391zM5.565 29.217h1.391v1.391h-1.391zM6.957 29.217h1.391v1.391h-1.391zM8.348 29.217h1.391v1.391h-1.391zM9.739 29.217h1.391v1.391h-1.391zM12.522 29.217h1.391v1.391h-1.391zM18.087 29.217h1.391v1.391h-1.391zM20.87 29.217h1.391v1.391h-1.391zM25.043 29.217h1.391v1.391h-1.391zM26.435 29.217h1.391v1.391h-1.391zM27.826 29.217h1.391v1.391h-1.391z"></path>
</symbol>
<symbol id="icon-search" viewBox="0 0 32 32">
<path d="M14.36 24.4c-1.986 0-3.927-0.589-5.578-1.692s-2.938-2.671-3.698-4.506c-0.76-1.835-0.959-3.853-0.571-5.801s1.344-3.737 2.748-5.141 3.193-2.36 5.141-2.748c1.948-0.387 3.966-0.189 5.801 0.571s3.403 2.047 4.506 3.698c1.103 1.651 1.692 3.592 1.692 5.578 0 1.318-0.26 2.624-0.764 3.842s-1.244 2.325-2.176 3.257c-0.932 0.932-2.039 1.672-3.257 2.176s-2.524 0.764-3.842 0.764zM14.36 6.333c-1.582 0-3.129 0.469-4.445 1.348s-2.341 2.128-2.946 3.59c-0.606 1.462-0.764 3.070-0.455 4.622s1.071 2.977 2.189 4.096c1.119 1.119 2.544 1.881 4.096 2.189s3.16 0.15 4.622-0.455c1.462-0.606 2.711-1.631 3.59-2.947s1.348-2.862 1.348-4.445c0-2.122-0.843-4.157-2.343-5.657s-3.535-2.343-5.657-2.343z"></path>
<path d="M26.667 27.667c-0.131 0.001-0.262-0.025-0.383-0.075s-0.231-0.124-0.324-0.218l-5.507-5.507c-0.177-0.19-0.273-0.44-0.268-0.699s0.11-0.506 0.293-0.689c0.183-0.183 0.43-0.288 0.689-0.293s0.51 0.092 0.699 0.268l5.507 5.507c0.187 0.187 0.292 0.442 0.292 0.707s-0.105 0.519-0.292 0.707c-0.092 0.093-0.202 0.168-0.324 0.218s-0.252 0.076-0.383 0.075z"></path>
</symbol>
<symbol id="icon-seatbelt" viewBox="0 0 32 32">
<path d="M19.013 31.186c0 0.449-0.364 0.814-0.814 0.814h-4.399c-0.449 0-0.814-0.364-0.814-0.814s0.364-0.814 0.814-0.814h4.399c0.449 0 0.814 0.364 0.814 0.814zM26.191 23.414v2.344c0 1.741-1.417 3.158-3.158 3.158h-14.066c-1.741 0-3.158-1.417-3.158-3.158v-2.344c0-0.449 0.364-0.814 0.814-0.814h0.216c-0.002-0.023-0.003-0.047-0.003-0.071v-2.181c-0.001-0.048 0.002-0.096 0.010-0.144 0.018-0.12 0.063-0.232 0.128-0.328 0.064-0.095 0.148-0.178 0.25-0.24 0.041-0.025 0.085-0.047 0.131-0.065 0.322-0.134 0.643-0.273 0.959-0.415v-9.942c0-1.616 1.028-3.036 2.495-3.582-0.002-0.044-0.003-0.089-0.003-0.134v-2.010c-0-1.923 1.565-3.488 3.488-3.488h3.411c1.923 0 3.488 1.565 3.488 3.488v2.010c0 0.045-0.001 0.089-0.003 0.134 0.578 0.215 1.097 0.568 1.51 1.026 0.014-0.027 0.029-0.054 0.043-0.081 0.21-0.397 0.702-0.55 1.099-0.34s0.55 0.702 0.34 1.099c-1.523 2.887-3.735 5.561-6.574 7.949-2.266 1.906-4.838 3.553-7.668 4.911v2.404h12.117v-9.794c0-0.449 0.364-0.814 0.814-0.814s0.814 0.364 0.814 0.814v9.793h1.691c0.449 0 0.814 0.364 0.814 0.814zM12.434 5.498c0 0.167 0.022 0.328 0.063 0.482 0.007 0.020 0.012 0.040 0.017 0.061 0.233 0.762 0.942 1.318 1.78 1.318h3.411c0.837 0 1.547-0.556 1.78-1.318 0.005-0.021 0.011-0.041 0.018-0.061 0.041-0.154 0.063-0.315 0.063-0.481v-2.010c0-1.026-0.835-1.861-1.861-1.861h-3.411c-1.026 0-1.86 0.835-1.86 1.861v2.010zM9.941 18.379c5.080-2.579 9.253-6.162 11.859-10.193-0.236-0.44-0.61-0.783-1.055-0.979-0.599 1.061-1.737 1.779-3.040 1.779h-3.411c-1.303 0-2.441-0.718-3.040-1.78-0.778 0.344-1.313 1.125-1.313 2.008v9.165zM24.564 24.227h-1.679c-0.004 0-0.008 0-0.012 0h-13.745c-0.004 0-0.008 0-0.012-0h-1.679v1.531c0 0.844 0.687 1.531 1.531 1.531h14.066c0.844 0 1.531-0.687 1.531-1.531v-1.531z"></path>
</symbol>
<symbol id="icon-ring-bus-logo" viewBox="0 0 122 32">
<path fill="#fed800" style="fill: var(--color3, #fed800)" opacity="0.986" d="M3.433 1.858c0 8.105 0 16.21 0 24.315 1.806 0 3.612 0 5.417 0 0-3.863 0-7.727 0-11.591 0.19-0.010 0.379 0 0.567 0.031 0.538 0.084 0.864 0.389 0.976 0.913-0.029 2.372-0.029 4.745 0 7.118 0.038 0.719 0.122 1.433 0.252 2.142 0.089 0.466 0.246 0.907 0.472 1.323 1.826 0.073 3.653 0.084 5.48 0.032-0.268-0.274-0.447-0.599-0.535-0.976-0.349-1.692-0.506-3.404-0.472-5.134 0.049-1.291 0.060-2.583 0.031-3.874-0.067-0.538-0.235-1.041-0.504-1.512-0.638-0.913-1.509-1.491-2.614-1.732 0.406-0.151 0.805-0.319 1.197-0.504 1.098-0.588 1.738-1.501 1.921-2.74 0.042-1.386 0.042-2.772 0-4.157-0.073-0.671-0.304-1.28-0.693-1.827-1.051-1.045-2.321-1.643-3.811-1.795-2.562-0.032-5.123-0.042-7.685-0.032zM8.85 5.008c0.67-0.075 1.163 0.177 1.48 0.756 0.072 0.815 0.103 1.634 0.095 2.457 0.008 0.843-0.023 1.683-0.095 2.52-0.317 0.579-0.811 0.831-1.48 0.756 0-2.163 0-4.325 0-6.488z"></path>
<path fill="#fefffe" style="fill: var(--color4, #fefffe)" opacity="0.978" d="M17.165 1.858c1.617 0 3.234 0 4.85 0 0 1.197 0 2.394 0 3.591-1.617 0-3.234 0-4.85 0 0-1.197 0-2.394 0-3.591z"></path>
<path fill="#fed800" style="fill: var(--color3, #fed800)" opacity="0.988" d="M47.654 1.858c0 8.084 0 16.168 0 24.252 2.583 0.011 5.165 0 7.748-0.032 0.318-0.047 0.633-0.11 0.945-0.189 1.982-0.554 3.105-1.845 3.37-3.874 0.042-1.974 0.042-3.948 0-5.921-0.059-0.45-0.206-0.87-0.441-1.26-0.658-0.876-1.53-1.443-2.614-1.701 0.458-0.187 0.899-0.407 1.323-0.661 0.817-0.531 1.332-1.277 1.543-2.236 0.042-1.617 0.042-3.234 0-4.85-0.103-0.898-0.491-1.643-1.165-2.236-0.849-0.619-1.794-1.018-2.835-1.197-2.623-0.092-5.247-0.123-7.874-0.095zM53.071 5.008c0.643-0.071 1.094 0.181 1.354 0.756 0.070 0.848 0.101 1.698 0.094 2.551 0.007 0.853-0.025 1.703-0.094 2.551-0.263 0.575-0.714 0.827-1.354 0.756 0-2.205 0-4.409 0-6.614zM53.071 14.394c0.643-0.071 1.094 0.181 1.354 0.756 0.071 1.174 0.102 2.349 0.094 3.528 0.008 1.178-0.023 2.354-0.094 3.528-0.26 0.575-0.712 0.827-1.354 0.756 0-2.856 0-5.711 0-8.567z"></path>
<path fill="#fed800" style="fill: var(--color3, #fed800)" opacity="0.004" d="M104.283 2.362c0.084 0.042 0.084 0.042 0 0z"></path>
<path fill="#fed800" style="fill: var(--color3, #fed800)" opacity="0.984" d="M111.465 2.362c3.021 2.822 6.035 5.656 9.039 8.504 0.027 0.069-0.004 0.111-0.094 0.126-0.419 0.123-0.828 0.27-1.228 0.441-0.021-0.021-0.042-0.042-0.063-0.063-0.902 0.309-1.815 0.582-2.74 0.819 0.569 4.915-1.005 8.978-4.724 12.189-3.677 2.772-7.688 3.549-12.031 2.331-4.302-1.405-7.211-4.271-8.724-8.598-1.281-4.619-0.441-8.798 2.52-12.535 0.148-0.159 0.305-0.306 0.472-0.441 0.986 0.903 1.953 1.827 2.898 2.772-2.504 2.971-3.060 6.268-1.669 9.89 1.243 2.584 3.237 4.285 5.984 5.102 3.802 0.806 6.973-0.285 9.512-3.276 1.351-1.857 1.929-3.935 1.732-6.236-1.244 0.36-2.483 0.738-3.717 1.134-0.021-0.042-0.042-0.084-0.063-0.126 0.956-4.014 1.922-8.024 2.898-12.031z"></path>
<path fill="#fefffe" style="fill: var(--color4, #fefffe)" opacity="0.991" d="M29.701 6.331c1.376-0.202 2.636 0.082 3.78 0.85 0.342 0.301 0.584 0.668 0.724 1.102 0.094 5.961 0.125 11.924 0.094 17.89-1.617 0-3.234 0-4.85 0 0.011-5.333 0-10.667-0.032-16-0.043-0.488-0.305-0.719-0.787-0.693-0.488-0.027-0.75 0.204-0.787 0.693-0.032 5.333-0.042 10.667-0.032 16-1.617 0-3.234 0-4.85 0 0-6.572 0-13.144 0-19.717 1.617 0 3.234 0 4.85 0-0.010 0.19 0 0.379 0.032 0.567 0.576-0.363 1.195-0.594 1.858-0.693z"></path>
<path fill="#fefffe" style="fill: var(--color4, #fefffe)" opacity="0.989" d="M38.142 6.331c-0.286 0.071-0.58 0.145-0.882 0.22-1.099 0.385-1.739 1.151-1.921 2.299-0.042 5.102-0.042 10.205 0 15.307 0.218 0.826 0.712 1.424 1.48 1.795 1.020 0.417 2.070 0.543 3.15 0.378 0.641-0.074 1.24-0.273 1.795-0.598 0.012 0.784-0.355 1.298-1.102 1.543-1.489 0.088-2.98 0.12-4.472 0.095 0 0.966 0 1.932 0 2.898 2.205 0.011 4.41 0 6.614-0.032 0.317-0.028 0.632-0.070 0.945-0.126 0.783-0.093 1.466-0.397 2.047-0.913 0.488-0.813 0.761-1.695 0.819-2.646 0.032-6.698 0.042-13.396 0.032-20.095-1.428-0.011-2.856 0-4.283 0.032-0.178 0.22-0.357 0.441-0.535 0.661-1.131-0.703-2.359-0.976-3.685-0.819zM40.598 9.417c0.647-0.176 1.035 0.055 1.165 0.693 0.042 4.22 0.042 8.441 0 12.661-0.067 0.455-0.329 0.665-0.787 0.63-0.43 0.043-0.692-0.146-0.787-0.567-0.042-4.283-0.042-8.567 0-12.85 0.055-0.254 0.191-0.443 0.409-0.567z"></path>
<path fill="#fefffe" style="fill: var(--color4, #fefffe)" opacity="0.983" d="M77.512 6.331c0.882-0.011 1.764 0 2.646 0.032 1.301 0.069 2.425 0.541 3.37 1.417 0.423 0.511 0.675 1.099 0.756 1.764 0.031 1.554 0.042 3.107 0.031 4.661-1.575 0-3.15 0-4.724 0 0.050-1.134 0.061-2.267 0.031-3.402-0.034-0.481-0.192-0.911-0.472-1.291-0.684-0.2-1.072 0.062-1.165 0.787-0.077 0.872-0.014 1.733 0.189 2.583 0.102 0.333 0.28 0.616 0.535 0.85 1.303 0.925 2.689 1.723 4.157 2.394 0.862 0.663 1.376 1.535 1.543 2.614 0.059 1.493 0.037 2.984-0.063 4.472-0.268 1.318-1.034 2.21-2.299 2.677-1.082 0.369-2.195 0.526-3.339 0.472-1.194 0.063-2.349-0.115-3.465-0.535-1.066-0.457-1.748-1.244-2.047-2.362-0.091-1.761-0.123-3.525-0.094-5.291 1.617 0 3.233 0 4.85 0-0.011 1.491 0 2.982 0.031 4.472 0.108 0.543 0.433 0.742 0.976 0.598 0.261-0.195 0.418-0.457 0.472-0.787 0.171-1.112 0.087-2.204-0.252-3.276-0.127-0.378-0.348-0.682-0.661-0.913-1.49-0.745-2.918-1.584-4.283-2.52-0.725-0.641-1.072-1.449-1.039-2.425-0.042-1.029-0.042-2.058 0-3.087 0.117-1.902 1.093-3.109 2.929-3.622 0.468-0.108 0.93-0.203 1.386-0.283z"></path>
<path fill="#fefffe" style="fill: var(--color4, #fefffe)" opacity="0.991" d="M17.165 6.457c1.617 0 3.234 0 4.85 0 0 6.572 0 13.144 0 19.717-1.617 0-3.234 0-4.85 0 0-6.572 0-13.144 0-19.717z"></path>
<path fill="#fefffe" style="fill: var(--color4, #fefffe)" opacity="0.989" d="M60.819 6.457c1.617 0 3.233 0 4.85 0-0.011 5.417 0 10.835 0.031 16.252 0.095 0.421 0.358 0.61 0.787 0.567 0.458 0.035 0.721-0.175 0.787-0.63 0.031-5.396 0.042-10.793 0.031-16.189 1.617 0 3.233 0 4.85 0 0 6.572 0 13.144 0 19.717-1.617 0-3.233 0-4.85 0 0.011-0.211 0-0.421-0.031-0.63-0.561 0.446-1.201 0.709-1.921 0.787-1.434 0.26-2.715-0.055-3.843-0.945-0.256-0.291-0.455-0.616-0.598-0.976-0.094-5.981-0.125-11.966-0.094-17.953z"></path>
<path fill="#fed800" style="fill: var(--color3, #fed800)" opacity="0.004" d="M95.024 10.992c0.084 0.042 0.084 0.042 0 0z"></path>
<path fill="#fed800" style="fill: var(--color3, #fed800)" opacity="0.004" d="M116.504 12.315c0.065 0.025 0.075 0.067 0.031 0.126-0.029-0.037-0.040-0.079-0.031-0.126z"></path>
<path fill="#fed800" style="fill: var(--color3, #fed800)" opacity="0.004" d="M116.567 12.693c0.084 0.042 0.084 0.042 0 0z"></path>
<path fill="#fed800" style="fill: var(--color3, #fed800)" opacity="0.004" d="M108.693 13.071c0.084 0.042 0.084 0.042 0 0z"></path>
<path fill="#fed800" style="fill: var(--color3, #fed800)" opacity="0.012" d="M94.457 13.827c0.084 0.042 0.084 0.042 0 0z"></path>
<path fill="#fed800" style="fill: var(--color3, #fed800)" opacity="0.012" d="M90.11 14.268c0.084 0.042 0.084 0.042 0 0z"></path>
<path fill="#fed800" style="fill: var(--color3, #fed800)" opacity="0.004" d="M116.567 15.024c0.065 0.025 0.075 0.067 0.031 0.126-0.029-0.037-0.040-0.079-0.031-0.126z"></path>
<path fill="#fed800" style="fill: var(--color3, #fed800)" opacity="0.004" d="M116.441 16.22c0.084 0.042 0.084 0.042 0 0z"></path>
<path fill="#fed800" style="fill: var(--color3, #fed800)" opacity="0.004" d="M90.362 16.598c0.084 0.042 0.084 0.042 0 0z"></path>
<path fill="#fed800" style="fill: var(--color3, #fed800)" opacity="0.004" d="M95.465 18.236c0.084 0.042 0.084 0.042 0 0z"></path>
<path fill="#fed800" style="fill: var(--color3, #fed800)" opacity="0.004" d="M115.937 18.677c0.084 0.042 0.084 0.042 0 0z"></path>
<path fill="#fed800" style="fill: var(--color3, #fed800)" opacity="0.004" d="M102.646 20.315c0.084 0.042 0.084 0.042 0 0z"></path>
<path fill="#fed800" style="fill: var(--color3, #fed800)" opacity="0.004" d="M91.811 20.504c0.084 0.042 0.084 0.042 0 0z"></path>
<path fill="#fed800" style="fill: var(--color3, #fed800)" opacity="0.008" d="M91.874 20.63c0.084 0.042 0.084 0.042 0 0z"></path>
<path fill="#fed800" style="fill: var(--color3, #fed800)" opacity="0.004" d="M103.906 21.764c0.084 0.042 0.084 0.042 0 0z"></path>
<path fill="#fed800" style="fill: var(--color3, #fed800)" opacity="0.008" d="M100.756 22.583c0.084 0.042 0.084 0.042 0 0z"></path>
<path fill="#fed800" style="fill: var(--color3, #fed800)" opacity="0.027" d="M101.89 22.898c0.084 0.042 0.084 0.042 0 0z"></path>
<path fill="#fed800" style="fill: var(--color3, #fed800)" opacity="0.004" d="M103.969 22.961c0.084 0.042 0.084 0.042 0 0z"></path>
<path fill="#fed800" style="fill: var(--color3, #fed800)" opacity="0.008" d="M112.094 24.095c0.084 0.042 0.084 0.042 0 0z"></path>
<path fill="#fed800" style="fill: var(--color3, #fed800)" opacity="0.004" d="M108.756 26.488c0.084 0.042 0.084 0.042 0 0z"></path>
<path fill="#fed800" style="fill: var(--color3, #fed800)" opacity="0.016" d="M100 26.929c0.084 0.042 0.084 0.042 0 0z"></path>
<path fill="#fed800" style="fill: var(--color3, #fed800)" opacity="0.004" d="M107.055 26.929c0.084 0.042 0.084 0.042 0 0z"></path>
<path fill="#fed800" style="fill: var(--color3, #fed800)" opacity="0.004" d="M100.819 27.118c0.084 0.042 0.084 0.042 0 0z"></path>
<path fill="#fed800" style="fill: var(--color3, #fed800)" opacity="0.004" d="M100.441 28.378c0.084 0.042 0.084 0.042 0 0z"></path>
<path fill="#fed800" style="fill: var(--color3, #fed800)" opacity="0.004" d="M88.976 29.512c0.084 0.042 0.084 0.042 0 0z"></path>
</symbol>
<symbol id="icon-ring-bus-logo-arrow" viewBox="0 0 33 32">
<path fill="#fed800" style="fill: var(--color1, #fed800)" opacity="0.986" d="M-83.302 2.107c0 7.962 0 15.925 0 23.887 1.774 0 3.548 0 5.322 0 0-3.796 0-7.591 0-11.387 0.187-0.010 0.372 0 0.557 0.031 0.529 0.083 0.848 0.382 0.959 0.897-0.029 2.331-0.029 4.662 0 6.993 0.037 0.707 0.12 1.408 0.248 2.104 0.087 0.458 0.242 0.891 0.464 1.3 1.794 0.072 3.589 0.082 5.384 0.031-0.263-0.269-0.439-0.589-0.526-0.959-0.343-1.663-0.497-3.344-0.464-5.044 0.048-1.268 0.059-2.537 0.031-3.806-0.066-0.528-0.231-1.023-0.495-1.485-0.627-0.897-1.483-1.464-2.568-1.702 0.399-0.148 0.791-0.313 1.176-0.495 1.078-0.577 1.708-1.475 1.888-2.692 0.041-1.361 0.041-2.723 0-4.084-0.072-0.66-0.299-1.258-0.681-1.795-1.032-1.027-2.28-1.614-3.744-1.764-2.516-0.031-5.033-0.041-7.55-0.031zM-77.98 5.201c0.658-0.074 1.143 0.174 1.454 0.743 0.070 0.8 0.101 1.605 0.093 2.413 0.008 0.828-0.023 1.653-0.093 2.475-0.312 0.569-0.796 0.817-1.454 0.743 0-2.125 0-4.249 0-6.374z"></path>
<path fill="#fefffe" style="fill: var(--color2, #fefffe)" opacity="0.978" d="M-69.811 2.107c1.588 0 3.177 0 4.765 0 0 1.176 0 2.352 0 3.527-1.588 0-3.177 0-4.765 0 0-1.176 0-2.352 0-3.527z"></path>
<path fill="#fed800" style="fill: var(--color1, #fed800)" opacity="0.988" d="M-39.86 2.107c0 7.942 0 15.884 0 23.825 2.537 0.010 5.075 0 7.612-0.031 0.313-0.046 0.622-0.108 0.928-0.186 1.947-0.544 3.051-1.813 3.311-3.806 0.041-1.939 0.041-3.878 0-5.817-0.058-0.442-0.203-0.855-0.433-1.238-0.647-0.861-1.503-1.418-2.568-1.671 0.45-0.184 0.883-0.4 1.3-0.65 0.803-0.522 1.308-1.254 1.516-2.197 0.041-1.588 0.041-3.177 0-4.765-0.101-0.882-0.483-1.614-1.145-2.197-0.834-0.608-1.762-1-2.785-1.176-2.577-0.090-5.155-0.121-7.736-0.093zM-34.538 5.201c0.632-0.069 1.075 0.178 1.331 0.743 0.069 0.833 0.099 1.668 0.093 2.506 0.007 0.838-0.024 1.673-0.093 2.506-0.258 0.565-0.702 0.813-1.331 0.743 0-2.166 0-4.332 0-6.498zM-34.538 14.422c0.632-0.069 1.075 0.178 1.331 0.743 0.070 1.153 0.101 2.308 0.093 3.466 0.008 1.157-0.023 2.313-0.093 3.465-0.255 0.565-0.699 0.812-1.331 0.743 0-2.805 0-5.611 0-8.416z"></path>
<path fill="#fed800" style="fill: var(--color1, #fed800)" opacity="0.004" d="M15.774 2.602c0.082 0.041 0.082 0.041 0 0z"></path>
<path fill="#fed800" style="fill: var(--color1, #fed800)" opacity="0.984" d="M22.829 2.602c2.968 2.772 5.928 5.557 8.88 8.354 0.027 0.068-0.004 0.109-0.093 0.124-0.412 0.121-0.814 0.265-1.207 0.433-0.020-0.021-0.041-0.041-0.062-0.062-0.886 0.303-1.784 0.571-2.692 0.805 0.559 4.829-0.988 8.82-4.641 11.975-3.613 2.723-7.552 3.486-11.82 2.29-4.227-1.38-7.084-4.196-8.571-8.447-1.258-4.538-0.433-8.643 2.475-12.315 0.145-0.156 0.3-0.3 0.464-0.433 0.969 0.887 1.918 1.794 2.847 2.723-2.46 2.919-3.006 6.157-1.64 9.716 1.221 2.539 3.18 4.21 5.879 5.013 3.735 0.792 6.85-0.28 9.345-3.218 1.327-1.824 1.895-3.866 1.702-6.127-1.222 0.353-2.439 0.725-3.651 1.114-0.020-0.041-0.041-0.082-0.062-0.124 0.939-3.943 1.888-7.883 2.847-11.82z"></path>
<path fill="#fefffe" style="fill: var(--color2, #fefffe)" opacity="0.991" d="M-57.496 6.501c1.352-0.198 2.59 0.080 3.713 0.835 0.336 0.295 0.574 0.656 0.712 1.083 0.092 5.856 0.123 11.714 0.093 17.575-1.588 0-3.177 0-4.765 0 0.010-5.24 0-10.479-0.031-15.719-0.042-0.479-0.3-0.706-0.774-0.681-0.479-0.026-0.737 0.201-0.774 0.681-0.031 5.239-0.041 10.479-0.031 15.719-1.588 0-3.177 0-4.765 0 0-6.456 0-12.913 0-19.37 1.588 0 3.177 0 4.765 0-0.010 0.187 0 0.372 0.031 0.557 0.566-0.357 1.174-0.584 1.826-0.681z"></path>
<path fill="#fefffe" style="fill: var(--color2, #fefffe)" opacity="0.989" d="M-49.204 6.501c-0.281 0.070-0.57 0.142-0.866 0.217-1.080 0.378-1.709 1.131-1.888 2.259-0.041 5.013-0.041 10.025 0 15.038 0.215 0.811 0.699 1.399 1.454 1.764 1.003 0.41 2.034 0.534 3.094 0.371 0.63-0.073 1.218-0.268 1.764-0.588 0.012 0.77-0.349 1.275-1.083 1.516-1.463 0.087-2.927 0.118-4.394 0.093 0 0.949 0 1.898 0 2.847 2.166 0.010 4.332 0 6.498-0.031 0.311-0.028 0.621-0.069 0.928-0.124 0.769-0.091 1.44-0.39 2.011-0.897 0.479-0.799 0.748-1.665 0.804-2.599 0.031-6.58 0.041-13.161 0.031-19.741-1.403-0.010-2.806 0-4.208 0.031-0.175 0.217-0.351 0.433-0.526 0.65-1.111-0.691-2.318-0.959-3.62-0.804zM-46.791 9.533c0.635-0.173 1.017 0.054 1.145 0.681 0.041 4.146 0.041 8.292 0 12.439-0.066 0.447-0.323 0.653-0.774 0.619-0.422 0.042-0.68-0.144-0.774-0.557-0.041-4.208-0.041-8.416 0-12.624 0.054-0.249 0.188-0.435 0.402-0.557z"></path>
<path fill="#fefffe" style="fill: var(--color2, #fefffe)" opacity="0.983" d="M-10.527 6.501c0.866-0.010 1.733 0 2.599 0.031 1.279 0.067 2.383 0.532 3.311 1.392 0.415 0.502 0.663 1.080 0.743 1.733 0.031 1.526 0.041 3.053 0.031 4.579-1.547 0-3.094 0-4.641 0 0.050-1.114 0.060-2.228 0.031-3.342-0.033-0.472-0.188-0.895-0.464-1.269-0.672-0.197-1.053 0.061-1.145 0.774-0.076 0.857-0.014 1.702 0.186 2.537 0.1 0.327 0.275 0.605 0.526 0.835 1.28 0.909 2.642 1.693 4.084 2.352 0.847 0.652 1.352 1.508 1.516 2.568 0.058 1.467 0.037 2.931-0.062 4.394-0.263 1.295-1.016 2.171-2.259 2.63-1.063 0.362-2.156 0.517-3.28 0.464-1.173 0.062-2.308-0.113-3.404-0.526-1.047-0.449-1.717-1.222-2.011-2.321-0.090-1.73-0.121-3.463-0.093-5.198 1.589 0 3.177 0 4.765 0-0.011 1.465 0 2.929 0.031 4.394 0.106 0.533 0.426 0.729 0.959 0.588 0.256-0.191 0.411-0.449 0.464-0.774 0.168-1.093 0.085-2.165-0.248-3.218-0.125-0.371-0.342-0.67-0.65-0.897-1.464-0.732-2.866-1.557-4.208-2.475-0.712-0.63-1.053-1.424-1.021-2.383-0.041-1.011-0.041-2.022 0-3.032 0.114-1.868 1.074-3.054 2.878-3.558 0.46-0.106 0.913-0.199 1.361-0.278z"></path>
<path fill="#fefffe" style="fill: var(--color2, #fefffe)" opacity="0.991" d="M-69.811 6.625c1.588 0 3.177 0 4.765 0 0 6.457 0 12.913 0 19.37-1.588 0-3.177 0-4.765 0 0-6.456 0-12.913 0-19.37z"></path>
<path fill="#fefffe" style="fill: var(--color2, #fefffe)" opacity="0.989" d="M-26.926 6.625c1.588 0 3.177 0 4.765 0-0.011 5.322 0 10.644 0.031 15.966 0.093 0.413 0.352 0.599 0.774 0.557 0.45 0.035 0.708-0.172 0.774-0.619 0.031-5.301 0.041-10.603 0.031-15.904 1.589 0 3.177 0 4.765 0 0 6.457 0 12.913 0 19.37-1.589 0-3.176 0-4.765 0 0.011-0.207 0-0.414-0.031-0.619-0.551 0.438-1.18 0.696-1.887 0.774-1.408 0.255-2.667-0.054-3.775-0.928-0.251-0.286-0.447-0.605-0.588-0.959-0.092-5.876-0.123-11.755-0.093-17.637z"></path>
<path fill="#fed800" style="fill: var(--color1, #fed800)" opacity="0.004" d="M6.677 11.080c0.082 0.041 0.082 0.041 0 0z"></path>
<path fill="#fed800" style="fill: var(--color1, #fed800)" opacity="0.004" d="M27.78 12.38c0.064 0.025 0.074 0.066 0.031 0.124-0.028-0.037-0.039-0.078-0.031-0.124z"></path>
<path fill="#fed800" style="fill: var(--color1, #fed800)" opacity="0.004" d="M27.842 12.751c0.082 0.041 0.082 0.041 0 0z"></path>
<path fill="#fed800" style="fill: var(--color1, #fed800)" opacity="0.004" d="M20.106 13.122c0.082 0.041 0.082 0.041 0 0z"></path>
<path fill="#fed800" style="fill: var(--color1, #fed800)" opacity="0.012" d="M6.12 13.865c0.082 0.041 0.082 0.041 0 0z"></path>
<path fill="#fed800" style="fill: var(--color1, #fed800)" opacity="0.012" d="M1.85 14.298c0.082 0.041 0.082 0.041 0 0z"></path>
<path fill="#fed800" style="fill: var(--color1, #fed800)" opacity="0.004" d="M27.842 15.041c0.064 0.025 0.074 0.066 0.031 0.124-0.028-0.037-0.039-0.078-0.031-0.124z"></path>
<path fill="#fed800" style="fill: var(--color1, #fed800)" opacity="0.004" d="M27.718 16.217c0.082 0.041 0.082 0.041 0 0z"></path>
<path fill="#fed800" style="fill: var(--color1, #fed800)" opacity="0.004" d="M2.098 16.588c0.082 0.041 0.082 0.041 0 0z"></path>
<path fill="#fed800" style="fill: var(--color1, #fed800)" opacity="0.004" d="M7.11 18.197c0.082 0.041 0.082 0.041 0 0z"></path>
<path fill="#fed800" style="fill: var(--color1, #fed800)" opacity="0.004" d="M27.223 18.63c0.082 0.041 0.082 0.041 0 0z"></path>
<path fill="#fed800" style="fill: var(--color1, #fed800)" opacity="0.004" d="M14.165 20.239c0.082 0.041 0.082 0.041 0 0z"></path>
<path fill="#fed800" style="fill: var(--color1, #fed800)" opacity="0.004" d="M3.521 20.425c0.082 0.041 0.082 0.041 0 0z"></path>
<path fill="#fed800" style="fill: var(--color1, #fed800)" opacity="0.008" d="M3.583 20.548c0.082 0.041 0.082 0.041 0 0z"></path>
<path fill="#fed800" style="fill: var(--color1, #fed800)" opacity="0.004" d="M15.403 21.662c0.082 0.041 0.082 0.041 0 0z"></path>
<path fill="#fed800" style="fill: var(--color1, #fed800)" opacity="0.008" d="M12.309 22.467c0.082 0.041 0.082 0.041 0 0z"></path>
<path fill="#fed800" style="fill: var(--color1, #fed800)" opacity="0.027" d="M13.423 22.776c0.082 0.041 0.082 0.041 0 0z"></path>
<path fill="#fed800" style="fill: var(--color1, #fed800)" opacity="0.004" d="M15.465 22.838c0.082 0.041 0.082 0.041 0 0z"></path>
<path fill="#fed800" style="fill: var(--color1, #fed800)" opacity="0.008" d="M23.448 23.952c0.082 0.041 0.082 0.041 0 0z"></path>
<path fill="#fed800" style="fill: var(--color1, #fed800)" opacity="0.004" d="M20.168 26.304c0.082 0.041 0.082 0.041 0 0z"></path>
<path fill="#fed800" style="fill: var(--color1, #fed800)" opacity="0.016" d="M11.566 26.737c0.082 0.041 0.082 0.041 0 0z"></path>
<path fill="#fed800" style="fill: var(--color1, #fed800)" opacity="0.004" d="M18.497 26.737c0.082 0.041 0.082 0.041 0 0z"></path>
<path fill="#fed800" style="fill: var(--color1, #fed800)" opacity="0.004" d="M12.371 26.923c0.082 0.041 0.082 0.041 0 0z"></path>
<path fill="#fed800" style="fill: var(--color1, #fed800)" opacity="0.004" d="M11.999 28.16c0.082 0.041 0.082 0.041 0 0z"></path>
<path fill="#fed800" style="fill: var(--color1, #fed800)" opacity="0.004" d="M0.736 29.274c0.082 0.041 0.082 0.041 0 0z"></path>
</symbol>
<symbol id="icon-close" viewBox="0 0 32 32">
<path d="M23.884 6.706l-7.884 7.884-7.884-7.884c-0.19-0.174-0.439-0.267-0.696-0.261s-0.502 0.11-0.684 0.292c-0.182 0.182-0.286 0.427-0.292 0.684s0.088 0.506 0.261 0.696l7.88 7.884-7.882 7.882c-0.096 0.092-0.173 0.202-0.226 0.324s-0.081 0.253-0.083 0.386 0.023 0.265 0.073 0.388c0.050 0.123 0.124 0.235 0.218 0.329s0.206 0.169 0.329 0.219 0.255 0.075 0.388 0.074c0.133-0.002 0.264-0.029 0.386-0.082s0.232-0.13 0.324-0.226l7.886-7.882 7.884 7.884c0.19 0.174 0.439 0.267 0.696 0.262s0.502-0.11 0.684-0.292c0.182-0.182 0.286-0.427 0.292-0.684s-0.088-0.506-0.262-0.696l-7.884-7.884 7.884-7.886c0.096-0.092 0.173-0.202 0.226-0.324s0.081-0.253 0.083-0.386c0.002-0.133-0.023-0.265-0.073-0.388s-0.124-0.235-0.218-0.329c-0.094-0.094-0.206-0.169-0.329-0.219s-0.255-0.075-0.388-0.074-0.264 0.029-0.386 0.082c-0.122 0.053-0.232 0.13-0.324 0.226v0.002z"></path>
</symbol>
<symbol id="icon-parcel" viewBox="0 0 32 32">
<path d="M29.482 8.624l-10-5.5c-0.139-0.078-0.305-0.124-0.482-0.124s-0.343 0.046-0.487 0.126l0.005-0.003-10 5.5c-0.311 0.174-0.518 0.501-0.518 0.876s0.207 0.702 0.513 0.873l0.005 0.003 9.482 5.215v10.717l-3.036-1.669-0.964 1.752 4.518 2.485c0.139 0.078 0.305 0.124 0.482 0.124s0.343-0.046 0.487-0.127l-0.005 0.003 10-5.5c0.311-0.174 0.518-0.501 0.518-0.876v0-13c-0-0.375-0.207-0.702-0.513-0.873l-0.005-0.003zM19 5.142l7.925 4.358-7.925 4.358-7.925-4.358zM28 21.909l-8 4.4v-10.717l8-4.4z"></path>
<path d="M10 16h-8v-2h8v2z"></path>
<path d="M12 24h-8v-2h8v2z"></path>
<path d="M14 20h-8v-2h8v2z"></path>
</symbol>
<symbol id="icon-flag-germany" viewBox="0 0 32 32">
<path fill="#ffcd05" style="fill: var(--color5, #ffcd05)" d="M0 24c0 1.964 1.592 3.556 3.556 3.556v0h24.889c1.964 0 3.556-1.592 3.556-3.556v0-3.556h-32v3.556z"></path>
<path fill="#ed1f24" style="fill: var(--color6, #ed1f24)" d="M0 12.444h32v8h-32z"></path>
<path fill="#141414" style="fill: var(--color7, #141414)" d="M28.444 4.444h-24.889c-1.964 0-3.556 1.592-3.556 3.556v0 4.444h32v-4.444c0-1.964-1.592-3.556-3.556-3.556v0z"></path>
</symbol>
<symbol id="icon-flag-ukraine" viewBox="0 0 32 32">
<path fill="#005bbb" style="fill: var(--color8, #005bbb)" d="M28.444 4.444h-24.889c-1.964 0-3.556 1.592-3.556 3.556v0 8h32v-8c0-1.964-1.592-3.556-3.556-3.556v0z"></path>
<path fill="#ffd500" style="fill: var(--color9, #ffd500)" d="M32 24c0 1.964-1.592 3.556-3.556 3.556v0h-24.889c-1.964 0-3.556-1.592-3.556-3.556v0-8h32v8z"></path>
</symbol>
<symbol id="icon-instagram" viewBox="0 0 32 32">
<path d="M10.668 16c0-2.945 2.387-5.334 5.332-5.334s5.334 2.388 5.334 5.334-2.388 5.334-5.334 5.334-5.332-2.388-5.332-5.334zM7.784 16c0 4.538 3.678 8.216 8.216 8.216s8.216-3.678 8.216-8.216-3.678-8.216-8.216-8.216-8.216 3.678-8.216 8.216zM22.621 7.458c0 0 0 0 0 0.001 0 1.060 0.86 1.92 1.92 1.92s1.92-0.86 1.92-1.92c0-1.060-0.859-1.92-1.919-1.92h-0.001c-1.060 0-1.919 0.859-1.92 1.919v0zM9.536 29.024c-1.56-0.071-2.408-0.331-2.971-0.55-0.747-0.291-1.28-0.637-1.84-1.197s-0.907-1.092-1.197-1.839c-0.22-0.563-0.479-1.411-0.55-2.971-0.078-1.687-0.093-2.193-0.093-6.466s0.017-4.778 0.093-6.466c0.071-1.56 0.333-2.406 0.55-2.971 0.291-0.747 0.637-1.28 1.197-1.84s1.092-0.907 1.84-1.197c0.563-0.22 1.411-0.479 2.971-0.55 1.687-0.078 2.193-0.093 6.464-0.093s4.778 0.017 6.466 0.093c1.56 0.071 2.406 0.333 2.971 0.55 0.747 0.29 1.28 0.637 1.84 1.197s0.906 1.093 1.197 1.84c0.22 0.563 0.48 1.411 0.55 2.971 0.078 1.688 0.093 2.193 0.093 6.466s-0.015 4.778-0.093 6.466c-0.071 1.56-0.332 2.408-0.55 2.971-0.291 0.747-0.637 1.28-1.197 1.839s-1.093 0.906-1.84 1.197c-0.563 0.22-1.411 0.48-2.971 0.55-1.687 0.078-2.193 0.093-6.466 0.093s-4.778-0.015-6.464-0.093zM9.404 0.097c-1.703 0.078-2.867 0.348-3.884 0.743-1.053 0.408-1.944 0.956-2.834 1.845s-1.437 1.782-1.845 2.834c-0.396 1.017-0.666 2.18-0.743 3.884-0.079 1.706-0.097 2.251-0.097 6.596s0.018 4.891 0.097 6.596c0.078 1.703 0.348 2.867 0.743 3.884 0.408 1.052 0.955 1.946 1.845 2.834s1.782 1.436 2.834 1.846c1.018 0.396 2.18 0.666 3.884 0.743 1.707 0.078 2.251 0.097 6.596 0.097s4.89-0.018 6.596-0.097c1.703-0.078 2.867-0.348 3.884-0.743 1.052-0.41 1.944-0.956 2.834-1.846s1.436-1.782 1.846-2.834c0.396-1.017 0.667-2.18 0.743-3.884 0.078-1.707 0.096-2.251 0.096-6.596s-0.018-4.89-0.096-6.596c-0.078-1.703-0.348-2.867-0.743-3.884-0.41-1.052-0.956-1.944-1.846-2.834s-1.782-1.437-2.833-1.845c-1.018-0.396-2.182-0.667-3.884-0.743-1.706-0.078-2.251-0.097-6.596-0.097s-4.891 0.018-6.598 0.097z"></path>
<path d="M10.668 16c0-2.945 2.387-5.334 5.332-5.334s5.334 2.388 5.334 5.334-2.388 5.334-5.334 5.334-5.332-2.388-5.332-5.334zM7.784 16c0 4.538 3.678 8.216 8.216 8.216s8.216-3.678 8.216-8.216-3.678-8.216-8.216-8.216-8.216 3.678-8.216 8.216zM22.621 7.458c0 0 0 0 0 0.001 0 1.060 0.86 1.92 1.92 1.92s1.92-0.86 1.92-1.92c0-1.060-0.859-1.92-1.919-1.92h-0.001c-1.060 0-1.919 0.859-1.92 1.919v0zM9.536 29.024c-1.56-0.071-2.408-0.331-2.971-0.55-0.747-0.291-1.28-0.637-1.84-1.197s-0.907-1.092-1.197-1.839c-0.22-0.563-0.479-1.411-0.55-2.971-0.078-1.687-0.093-2.193-0.093-6.466s0.017-4.778 0.093-6.466c0.071-1.56 0.333-2.406 0.55-2.971 0.291-0.747 0.637-1.28 1.197-1.84s1.092-0.907 1.84-1.197c0.563-0.22 1.411-0.479 2.971-0.55 1.687-0.078 2.193-0.093 6.464-0.093s4.778 0.017 6.466 0.093c1.56 0.071 2.406 0.333 2.971 0.55 0.747 0.29 1.28 0.637 1.84 1.197s0.906 1.093 1.197 1.84c0.22 0.563 0.48 1.411 0.55 2.971 0.078 1.688 0.093 2.193 0.093 6.466s-0.015 4.778-0.093 6.466c-0.071 1.56-0.332 2.408-0.55 2.971-0.291 0.747-0.637 1.28-1.197 1.839s-1.093 0.906-1.84 1.197c-0.563 0.22-1.411 0.48-2.971 0.55-1.687 0.078-2.193 0.093-6.466 0.093s-4.778-0.015-6.464-0.093zM9.404 0.097c-1.703 0.078-2.867 0.348-3.884 0.743-1.053 0.408-1.944 0.956-2.834 1.845s-1.437 1.782-1.845 2.834c-0.396 1.017-0.666 2.18-0.743 3.884-0.079 1.706-0.097 2.251-0.097 6.596s0.018 4.891 0.097 6.596c0.078 1.703 0.348 2.867 0.743 3.884 0.408 1.052 0.955 1.946 1.845 2.834s1.782 1.436 2.834 1.846c1.018 0.396 2.18 0.666 3.884 0.743 1.707 0.078 2.251 0.097 6.596 0.097s4.89-0.018 6.596-0.097c1.703-0.078 2.867-0.348 3.884-0.743 1.052-0.41 1.944-0.956 2.834-1.846s1.436-1.782 1.846-2.834c0.396-1.017 0.667-2.18 0.743-3.884 0.078-1.707 0.096-2.251 0.096-6.596s-0.018-4.89-0.096-6.596c-0.078-1.703-0.348-2.867-0.743-3.884-0.41-1.052-0.956-1.944-1.846-2.834s-1.782-1.437-2.833-1.845c-1.018-0.396-2.182-0.667-3.884-0.743-1.706-0.078-2.251-0.097-6.596-0.097s-4.891 0.018-6.598 0.097z"></path>
</symbol>
<symbol id="icon-menu" viewBox="0 0 32 32">
<path  d="M6.4 11.733v-2.133h19.2v2.133h-19.2zM6.4 17.067h19.2v-2.133h-19.2v2.133zM6.4 22.4h19.2v-2.133h-19.2v2.133z"></path>
</symbol>
<symbol id="icon-success" viewBox="0 0 32 32">
<path stroke-linejoin="round" stroke-linecap="round" stroke-miterlimit="4" stroke-width="0.8" d="M31.375 16c0 8.491-6.884 15.375-15.375 15.375s-15.375-6.884-15.375-15.375c0-8.491 6.884-15.375 15.375-15.375s15.375 6.884 15.375 15.375z"></path>
<path stroke-linejoin="round" stroke-linecap="round" stroke-miterlimit="4" stroke-width="0.8" d="M7.221 16.798l5.321 5.321 12.237-12.238"></path>
</symbol>
<symbol id="icon-telegram" viewBox="0 0 32 32">
<path fill="#40B3E0" style="fill: var(--color8, #40B3E0)" d="M32 16c0 8.84-7.16 16-16 16s-16-7.16-16-16 7.16-16 16-16 16 7.16 16 16z"></path>
<path fill="#D2E5F1" style="fill: var(--color11, #D2E5F1)" d="M13.067 23.333c-0.52 0-0.427-0.2-0.613-0.693l-1.52-5.013 9.44-5.893 1.107 0.293-0.92 2.507-7.493 8.8z"></path>
<path fill="#B5CFE4" style="fill: var(--color12, #B5CFE4)" d="M13.067 23.333c0.4 0 0.573-0.187 0.8-0.4 0.347-0.333 4.8-4.667 4.8-4.667l-2.733-0.667-2.533 1.6-0.333 4v0.133z"></path>
<path fill="#FFFFFF" style="fill: var(--color2, #FFFFFF)" d="M13.333 19.253l6.453 4.76c0.733 0.4 1.267 0.2 1.453-0.68l2.627-12.373c0.267-1.080-0.413-1.56-1.12-1.24l-15.413 5.947c-1.053 0.427-1.040 1.013-0.187 1.267l3.96 1.24 9.16-5.773c0.427-0.267 0.827-0.12 0.507 0.173l-7.44 6.68z"></path>
</symbol>
<symbol id="icon-viber" viewBox="0 0 32 32">
<path fill="#bfc8d0" style="fill: var(--color13, #bfc8d0)" d="M30 15.379c0 9.171-3.231 13.378-14 13.378-1.029 0-1.989-0.038-2.884-0.116l-2.49 2.924c-0.739 0.868-2.165 0.349-2.165-0.788v-3.088c-4.825-1.771-6.462-5.784-6.462-12.311 0-9.171 3.231-13.379 14-13.379s14 4.207 14 13.379zM13.711 26.532c0.714 0.057 1.476 0.085 2.289 0.085 9.112 0 11.846-3.534 11.846-11.238s-2.734-11.238-11.846-11.238-11.846 3.534-11.846 11.238c0 5.445 1.366 8.807 5.385 10.311v4.575c0 0.399 0.5 0.581 0.76 0.276l3.413-4.009z"></path>
<path fill="#9179ee" style="fill: var(--color14, #9179ee)" d="M16 25.855c-0.823 0-1.595-0.029-2.319-0.086l-3.457 4.076c-0.263 0.31-0.769 0.124-0.769-0.281v-4.652c-4.071-1.529-5.455-4.947-5.455-10.485 0-7.834 2.769-11.427 12-11.427s12 3.593 12 11.427c0 7.834-2.769 11.427-12 11.427z"></path>
<path fill="#fff" style="fill: var(--color1, #fff)" d="M30 14.379c0 9.171-3.231 13.378-14 13.378-1.029 0-1.989-0.038-2.884-0.116l-2.49 2.924c-0.739 0.868-2.165 0.349-2.165-0.788v-3.088c-4.825-1.771-6.462-5.784-6.462-12.311 0-9.171 3.231-13.379 14-13.379s14 4.207 14 13.379zM13.711 25.532c0.714 0.057 1.476 0.085 2.289 0.085 9.112 0 11.846-3.534 11.846-11.238s-2.734-11.238-11.846-11.238-11.846 3.534-11.846 11.238c0 5.445 1.366 8.807 5.385 10.311v4.575c0 0.399 0.5 0.581 0.76 0.276l3.413-4.009z"></path>
<path fill="#fff" style="fill: var(--color1, #fff)" d="M11.543 12.134l-0.041 0.023-0.036 0.030c-0.277 0.229-0.691 0.857-0.328 1.633 0.303 0.647 0.977 1.968 2.162 2.963 1.159 0.973 2.396 1.497 3.209 1.668l0.051 0.011h0.047c0.002 0 0.007 0.001 0.015 0.002 0.019 0.003 0.043 0.007 0.079 0.013v0c0.006 0.001 0.013 0.002 0.020 0.003 0.25 0.044 0.85 0.15 1.352-0.351 0.323-0.321 0.617-0.657 0.744-0.807 0.089-0.081 0.379-0.249 0.746-0.125 0.695 0.235 1.521 0.765 1.921 1.034 0.309 0.208 1.009 0.71 1.325 0.937l0 0c0.026 0.019 0.088 0.081 0.121 0.167 0.027 0.069 0.041 0.163-0.023 0.3-0.119 0.254-0.48 0.738-0.968 1.162-0.498 0.432-1.016 0.702-1.431 0.702 0.002 0 0-0-0.005-0.001-0.018-0.003-0.087-0.012-0.223-0.042-0.153-0.034-0.36-0.088-0.612-0.164-0.505-0.152-1.182-0.389-1.964-0.725-1.565-0.673-3.536-1.74-5.381-3.31-1.161-0.988-2.255-2.354-3.108-3.632-0.86-1.289-1.435-2.432-1.591-2.96l-0.011-0.037-0.016-0.035c-0.039-0.082-0.094-0.258-0.095-0.458-0.001-0.193 0.047-0.377 0.175-0.529 0.42-0.503 0.865-0.998 1.846-1.473 0.091-0.044 0.235-0.083 0.375-0.085 0.144-0.002 0.219 0.034 0.249 0.060 0.375 0.329 0.957 0.91 1.349 1.407 0.203 0.257 0.447 0.582 0.651 0.865 0.102 0.142 0.192 0.27 0.26 0.372 0.034 0.051 0.062 0.094 0.082 0.126 0.014 0.022 0.021 0.036 0.024 0.041 0.002 0.006 0.009 0.030 0.016 0.074 0.008 0.056 0.012 0.124 0.007 0.195-0.012 0.146-0.060 0.263-0.146 0.342-0.293 0.268-0.69 0.517-0.846 0.603zM16.277 6.516c0-0 0.001-0.001 0.001-0.001 0.007-0.007 0.022-0.015 0.045-0.015 3.992 0 7.176 3.038 7.177 6.723-0.001 0.001-0.002 0.002-0.003 0.004-0.007 0.007-0.022 0.015-0.045 0.015s-0.038-0.008-0.045-0.015c-0.002-0.002-0.003-0.003-0.003-0.004-0.002-3.724-3.2-6.691-7.081-6.691-0.023 0-0.038-0.009-0.045-0.015-0-0-0.001-0.001-0.001-0.001zM16.277 10.646c-0-0-0.001-0.001-0.001-0.001s0.001-0.001 0.001-0.001c0.007-0.007 0.022-0.015 0.045-0.015 1.569 0 2.789 1.189 2.79 2.594-0.001 0.001-0.002 0.002-0.003 0.004-0.007 0.007-0.022 0.015-0.045 0.015s-0.038-0.008-0.045-0.015c-0.002-0.002-0.003-0.003-0.003-0.004-0.002-1.443-1.236-2.562-2.694-2.562-0.023 0-0.038-0.008-0.045-0.015zM16.277 8.582c-0-0-0.001-0.001-0.001-0.001s0.001-0.001 0.001-0.001c0.007-0.007 0.022-0.015 0.045-0.015 2.78 0 4.982 2.113 4.984 4.658-0.001 0.001-0.002 0.002-0.003 0.004-0.007 0.007-0.022 0.015-0.045 0.015s-0.038-0.008-0.045-0.015c-0.002-0.002-0.003-0.003-0.003-0.004-0.002-2.583-2.218-4.626-4.887-4.626-0.023 0-0.038-0.009-0.045-0.015z"></path>
</symbol>
<symbol id="icon-whatsapp" viewBox="0 0 32 32">
<path fill="#BFC8D0" style="fill: var(--color13, #BFC8D0)" d="M16 31c-2.421 0-4.699-0.615-6.685-1.696l-7.315 1.696 1.818-7.095c-1.157-2.038-1.818-4.394-1.818-6.905 0-7.732 6.268-14 14-14s14 6.268 14 14c0 7.732-6.268 14-14 14zM16 28.846c6.543 0 11.846-5.304 11.846-11.846s-5.304-11.846-11.846-11.846c-6.542 0-11.846 5.304-11.846 11.846 0 2.526 0.791 4.867 2.138 6.79l-1.061 3.979 4.049-1.012c1.909 1.318 4.225 2.089 6.72 2.089z"></path>
<path fill="#27B43E" style="fill: var(--color2, #27B43E)" d="M28 16c0 6.627-5.373 12-12 12-2.528 0-4.873-0.782-6.807-2.116l-4.102 1.025 1.075-4.031c-1.365-1.948-2.166-4.32-2.166-6.878 0-6.627 5.373-12 12-12s12 5.373 12 12z"></path>
<path fill="#FFFFFF" style="fill: var(--color1, #FFFFFF)" d="M16 30c-2.421 0-4.699-0.615-6.685-1.696l-7.315 1.696 1.818-7.095c-1.157-2.038-1.818-4.394-1.818-6.905 0-7.732 6.268-14 14-14s14 6.268 14 14c0 7.732-6.268 14-14 14zM16 27.846c6.543 0 11.846-5.304 11.846-11.846s-5.304-11.846-11.846-11.846c-6.542 0-11.846 5.304-11.846 11.846 0 2.526 0.791 4.867 2.138 6.79l-1.061 3.979 4.049-1.012c1.909 1.318 4.225 2.089 6.72 2.089z"></path>
<path fill="#FFFFFF" style="fill: var(--color1, #FFFFFF)" d="M12.5 9.5c-0.333-0.669-0.844-0.609-1.359-0.609-0.922 0-2.359 1.104-2.359 3.159 0 1.684 0.742 3.528 3.243 6.286 2.414 2.662 5.585 4.039 8.218 3.992s3.175-2.313 3.175-3.078c0-0.339-0.21-0.508-0.355-0.554-0.897-0.431-2.552-1.233-2.928-1.384s-0.573 0.053-0.695 0.164c-0.341 0.325-1.018 1.284-1.25 1.5s-0.577 0.107-0.721 0.025c-0.529-0.212-1.964-0.85-3.107-1.959-1.414-1.371-1.497-1.842-1.764-2.262-0.213-0.336-0.057-0.542 0.021-0.632 0.305-0.351 0.725-0.894 0.914-1.164s0.039-0.679-0.051-0.934c-0.386-1.097-0.714-2.015-0.98-2.55z"></path>
</symbol>
<symbol id="icon-btn-arrow" viewBox="0 0 32 32">
<path d="M10.586 3.272c-0.375 0.375-0.586 0.884-0.586 1.414s0.211 1.039 0.586 1.414l9.9 9.9-9.9 9.9c-0.364 0.377-0.566 0.882-0.561 1.407s0.215 1.026 0.586 1.397 0.872 0.581 1.397 0.586c0.524 0.005 1.030-0.197 1.407-0.561l11.314-11.314c0.375-0.375 0.586-0.884 0.586-1.414s-0.211-1.039-0.586-1.414l-11.314-11.314c-0.375-0.375-0.884-0.586-1.414-0.586s-1.039 0.211-1.414 0.586z"></path>
</symbol>
<symbol id="icon-handset" viewBox="0 0 32 32">
<path d="M24.882 19.773l-3.268-0.373c-0.785-0.090-1.557 0.18-2.11 0.733l-2.367 2.367c-3.641-1.853-6.626-4.825-8.478-8.478l2.38-2.38c0.553-0.553 0.823-1.325 0.733-2.11l-0.373-3.242c-0.154-1.299-1.248-2.277-2.56-2.277h-2.226c-1.454 0-2.663 1.209-2.573 2.663 0.682 10.987 9.469 19.761 20.443 20.443 1.454 0.090 2.663-1.119 2.663-2.573v-2.226c0.013-1.3-0.965-2.393-2.264-2.547z"></path>
</symbol>
<symbol id="icon-person" viewBox="0 0 32 32">
<path d="M16 16c2.947 0 5.333-2.387 5.333-5.333s-2.387-5.333-5.333-5.333c-2.947 0-5.333 2.387-5.333 5.333s2.387 5.333 5.333 5.333zM16 18.667c-3.56 0-10.667 1.787-10.667 5.333v1.333c0 0.733 0.6 1.333 1.333 1.333h18.667c0.733 0 1.333-0.6 1.333-1.333v-1.333c0-3.547-7.107-5.333-10.667-5.333z"></path>
</symbol>
<symbol id="icon-phone" viewBox="0 0 20 32">
<path fill="#757575" style="fill: var(--color15, #757575)" d="M17 0h-14c-1.654 0-3 1.346-3 3v26c0 1.654 1.346 3 3 3h14c1.654 0 3-1.346 3-3v-26c0-1.654-1.346-3-3-3zM3 2h14c0.552 0 1 0.448 1 1v21h-16v-21c0-0.552 0.448-1 1-1zM17 30h-14c-0.552 0-1-0.448-1-1v-3h16v3c0 0.552-0.448 1-1 1z"></path>
</symbol>
<symbol id="icon-charger" viewBox="0 0 32 32">
<path d="M4.874 7.276h-0.977c-0.279 0-0.505 0.226-0.505 0.505s0.226 0.505 0.505 0.505h0.977c0.279 0 0.505-0.226 0.505-0.505s-0.226-0.505-0.505-0.505z"></path>
<path d="M29.814 5.617c0.279 0 0.505-0.226 0.505-0.505v-2.2c0-0.279-0.226-0.505-0.505-0.505h-0.887v-1.901c0-0.279-0.226-0.505-0.505-0.505s-0.505 0.226-0.505 0.505v1.901h-2.358v-1.901c0-0.279-0.226-0.505-0.505-0.505s-0.505 0.226-0.505 0.505v1.901h-0.887c-0.279 0-0.505 0.226-0.505 0.505v5.928c0 0.279 0.226 0.505 0.505 0.505h1.336v0.932c0 0.702 0.553 1.275 1.246 1.31v8.732c0 3.323-1.527 6.296-3.917 8.255 1.097-1.447 1.748-3.249 1.748-5.2 0-4.756-3.869-8.626-8.626-8.626s-8.626 3.869-8.626 8.626c0 1.697 0.493 3.282 1.343 4.618-2.011-1.942-3.263-4.663-3.263-7.672v-4.631h0.518c0.279 0 0.505-0.226 0.505-0.505v-1.233h0.218c0.535 0 0.971-0.436 0.971-0.971v-3.748c0-0.21-0.128-0.39-0.311-0.466v-2.054c0-0.474-0.385-0.859-0.859-0.859h-3.095c-0.474 0-0.859 0.385-0.859 0.859v2.053c-0.183 0.076-0.311 0.256-0.311 0.467v3.748c0 0.535 0.436 0.971 0.971 0.971h0.218v1.233c0 0.279 0.226 0.505 0.505 0.505h0.518v4.631c0 6.151 4.779 11.206 10.818 11.649 0.243 0.021 0.489 0.032 0.738 0.032 0.021 0 0.041-0.001 0.062-0.001s0.041 0.001 0.062 0.001c6.441 0 11.68-5.24 11.68-11.68v-8.734c0.682-0.046 1.224-0.615 1.224-1.309v-0.932h1.336c0.279 0 0.505-0.226 0.505-0.505v-2.224c0-0.279-0.226-0.505-0.505-0.505s-0.505 0.226-0.505 0.505v1.718h-5.142v-4.918h5.142v1.695c0 0.279 0.226 0.505 0.505 0.505zM3.003 6.864h2.792v1.863h-2.792v-1.863zM2.691 12.941v-3.203h3.414v3.203h-3.414zM3.88 14.678v-0.727h1.037v0.727h-1.037zM15.511 30.989c-0.243-0.001-0.484-0.011-0.722-0.028-3.891-0.336-6.955-3.61-6.955-7.586 0-4.199 3.416-7.615 7.615-7.615s7.615 3.416 7.615 7.615c0 4.178-3.383 7.581-7.553 7.614zM26.008 9.345h1.46v0.932c0 0.167-0.136 0.303-0.303 0.303h-0.853c-0.167 0-0.303-0.136-0.303-0.303v-0.932z"></path>
</symbol>
<symbol id="icon-sleeping-bed" viewBox="0 0 32 32">
<path d="M17.92 0v1.28h2.56l-2.56 2.56v1.28h4.48v-1.28h-2.88l2.56-2.56v-1.28zM10.24 6.4v1.28h3.52l-3.52 3.84v1.28h5.76v-1.28h-4.16l3.52-3.84v-1.28zM1.92 10.88c-1.058 0-1.92 0.863-1.92 1.92v19.2h3.84v-3.2h24.32v3.2h3.84v-7.68h-28.16v-11.52c0-1.058-0.862-1.92-1.92-1.92zM7.68 16.64c-1.765 0-3.2 1.435-3.2 3.2s1.435 3.2 3.2 3.2c1.765 0 3.2-1.435 3.2-3.2s-1.435-3.2-3.2-3.2zM12.16 16.64c-0.352 0-0.64 0.285-0.64 0.64v5.76h20.48v-3.2c0-1.765-1.435-3.2-3.2-3.2z"></path>
</symbol>
<symbol id="icon-wifi" viewBox="0 0 32 32">
<path d="M23.133 17.053c-0.242 0.001-0.475-0.090-0.653-0.253-1.77-1.585-4.063-2.462-6.44-2.462s-4.67 0.877-6.44 2.462c-0.098 0.088-0.212 0.155-0.336 0.199s-0.256 0.062-0.387 0.055c-0.131-0.007-0.26-0.041-0.378-0.098s-0.224-0.137-0.312-0.235c-0.172-0.201-0.259-0.462-0.241-0.726s0.138-0.511 0.335-0.688c2.13-1.917 4.894-2.978 7.76-2.978s5.63 1.061 7.76 2.978c0.197 0.177 0.317 0.423 0.335 0.688s-0.069 0.525-0.241 0.726c-0.097 0.104-0.215 0.187-0.346 0.245s-0.271 0.087-0.414 0.089z"></path>
<path d="M26.667 13.333c-0.252-0.001-0.494-0.096-0.68-0.267-2.695-2.569-6.276-4.003-10-4.003s-7.305 1.433-10 4.003c-0.092 0.109-0.206 0.197-0.335 0.259s-0.269 0.095-0.412 0.097c-0.143 0.003-0.284-0.025-0.415-0.081s-0.248-0.14-0.344-0.246-0.168-0.23-0.212-0.366c-0.044-0.136-0.058-0.279-0.042-0.421s0.063-0.278 0.136-0.4c0.073-0.122 0.172-0.227 0.289-0.308 3.061-2.9 7.117-4.516 11.333-4.516s8.272 1.616 11.333 4.516c0.146 0.135 0.248 0.311 0.294 0.504s0.033 0.396-0.037 0.582-0.194 0.347-0.356 0.462c-0.162 0.115-0.355 0.18-0.553 0.185z"></path>
<path d="M12.507 20.853c-0.155 0-0.308-0.036-0.447-0.106s-0.26-0.17-0.353-0.294c-0.081-0.104-0.139-0.224-0.173-0.351s-0.041-0.26-0.023-0.391c0.019-0.131 0.063-0.256 0.131-0.369s0.158-0.211 0.264-0.289c1.177-0.901 2.618-1.389 4.1-1.389s2.923 0.488 4.1 1.389c0.105 0.079 0.194 0.178 0.261 0.291s0.111 0.238 0.129 0.368c0.019 0.13 0.011 0.262-0.021 0.39s-0.090 0.247-0.169 0.352c-0.161 0.209-0.398 0.347-0.659 0.385s-0.527-0.029-0.741-0.185c-0.834-0.635-1.852-0.979-2.9-0.979s-2.067 0.344-2.9 0.979c-0.174 0.127-0.384 0.197-0.6 0.2z"></path>
<path d="M16 25c-0.265 0-0.52-0.105-0.707-0.293s-0.293-0.442-0.293-0.707 0.105-0.52 0.293-0.707c0.187-0.188 0.442-0.293 0.707-0.293s0.52 0.105 0.707 0.293c0.188 0.187 0.293 0.442 0.293 0.707s-0.105 0.52-0.293 0.707c-0.187 0.188-0.442 0.293-0.707 0.293z"></path>
</symbol>
</defs>
</svg>
