<!-- Generated by IcoMoon.io -->
<svg version="1.1" xmlns="http://www.w3.org/2000/svg" width="1056" height="1024" viewBox="0 0 1056 1024">
<title></title>
<g id="icomoon-ignore">
</g>
<path fill="#fed800" opacity="0.986" d="M-2665.67 115.425c0 254.798 0 509.593 0 764.392 56.77 0 113.536 0 170.305 0 0-121.457 0-242.916 0-364.374 5.977-0.327 11.918 0.004 17.823 0.99 16.918 2.644 27.15 12.216 30.694 28.714-0.924 74.58-0.924 149.169 0 223.773 1.192 22.615 3.833 45.059 7.921 67.329 2.792 14.646 7.743 28.509 14.852 41.586 57.417 2.311 114.845 2.64 172.285 0.99-8.432-8.61-14.045-18.841-16.833-30.694-10.967-53.202-15.918-107.001-14.852-161.393 1.548-40.592 1.879-81.188 0.99-121.788-2.113-16.899-7.395-32.742-15.842-47.527-20.050-28.71-47.442-46.862-82.182-54.458 12.771-4.735 25.312-10.017 37.625-15.842 34.506-18.478 54.641-47.192 60.4-86.143 1.321-43.566 1.321-87.133 0-130.699-2.311-21.106-9.571-40.249-21.783-57.429-33.037-32.849-72.971-51.662-119.808-56.438-80.528-0.99-161.061-1.32-241.595-0.99zM-2495.364 214.44c21.052-2.368 36.564 5.554 46.537 23.764 2.256 25.613 3.246 51.356 2.971 77.231 0.257 26.508-0.733 52.912-2.971 79.212-9.972 18.209-25.485 26.13-46.537 23.764 0-67.99 0-135.98 0-203.97z"></path>
<path fill="#fefffe" opacity="0.978" d="M-2233.967 115.425c50.828 0 101.654 0 152.483 0 0 37.625 0 75.251 0 112.877-50.828 0-101.654 0-152.483 0 0-37.625 0-75.251 0-112.877z"></path>
<path fill="#fed800" opacity="0.988" d="M-1275.507 115.425c0 254.135 0 508.275 0 762.411 81.194 0.331 162.385 0 243.576-0.99 10.005-1.474 19.906-3.453 29.704-5.941 62.314-17.408 97.628-58.004 105.946-121.788 1.321-62.048 1.321-124.099 0-186.147-1.86-14.158-6.48-27.358-13.862-39.606-20.7-27.548-48.095-45.371-82.182-53.468 14.396-5.878 28.259-12.809 41.586-20.793 25.698-16.704 41.869-40.136 48.517-70.3 1.321-50.828 1.321-101.654 0-152.483-3.232-28.22-15.441-51.653-36.635-70.3-26.694-19.465-56.399-32.008-89.113-37.625-82.454-2.892-164.964-3.882-247.537-2.971zM-1105.202 214.44c20.209-2.223 34.402 5.698 42.577 23.764 2.194 26.657 3.184 53.391 2.971 80.202 0.214 26.811-0.776 53.545-2.971 80.202-8.262 18.082-22.453 26.003-42.577 23.764 0-69.31 0-138.62 0-207.931zM-1105.202 509.502c20.209-2.224 34.402 5.697 42.577 23.764 2.232 36.894 3.222 73.858 2.971 110.896 0.252 37.038-0.739 74.001-2.971 110.896-8.175 18.066-22.368 25.988-42.577 23.764 0-89.773 0-179.547 0-269.32z"></path>
<path fill="#fed800" opacity="0.004" d="M504.773 131.268c2.634 1.32 2.634 1.32 0 0z"></path>
<path fill="#fed800" opacity="0.984" d="M730.526 131.268c94.974 88.708 189.712 177.82 284.172 267.339 0.852 2.178-0.139 3.499-2.971 3.96-13.169 3.868-26.041 8.49-38.616 13.862-0.653-0.659-1.327-1.321-1.981-1.981-28.358 9.701-57.072 18.282-86.143 25.744 17.901 154.522-31.605 282.251-148.522 383.186-115.609 87.145-241.675 111.567-378.235 73.271-135.254-44.158-226.684-134.262-274.27-270.31-40.259-145.211-13.862-276.571 79.212-394.078 4.654-4.984 9.604-9.605 14.852-13.862 31.012 28.377 61.389 57.421 91.093 87.133-78.717 93.406-96.202 197.039-52.477 310.905 39.071 81.243 101.767 134.711 188.127 160.404 119.531 25.352 219.198-8.974 299.024-102.975 42.477-58.369 60.636-123.719 54.458-196.049-39.111 11.308-78.063 23.189-116.837 35.645-0.653-1.321-1.327-2.64-1.981-3.96 30.061-126.178 60.418-252.255 91.093-378.235z"></path>
<path fill="#fefffe" opacity="0.991" d="M-1839.888 256.026c43.263-6.337 82.869 2.574 118.817 26.734 10.765 9.448 18.355 21.001 22.773 34.655 2.946 187.396 3.938 374.863 2.971 562.402-50.828 0-101.654 0-152.483 0 0.331-167.665 0-335.331-0.99-502.992-1.349-15.333-9.6-22.593-24.754-21.783-15.331-0.844-23.584 6.418-24.754 21.783-0.99 167.663-1.321 335.329-0.99 502.992-50.828 0-101.654 0-152.483 0 0-206.608 0-413.221 0-619.83 50.828 0 101.654 0 152.483 0-0.327 5.977 0.004 11.918 0.99 17.823 18.106-11.42 37.58-18.682 58.419-21.783z"></path>
<path fill="#fefffe" opacity="0.989" d="M-1574.531 256.026c-8.986 2.246-18.229 4.556-27.724 6.931-34.552 12.103-54.684 36.198-60.4 72.281-1.321 160.404-1.321 320.807 0 481.211 6.868 25.951 22.379 44.764 46.537 56.438 32.081 13.119 65.085 17.080 99.014 11.881 20.165-2.32 38.978-8.592 56.438-18.813 0.38 24.641-11.171 40.814-34.655 48.517-46.81 2.778-93.676 3.769-140.6 2.971 0 30.363 0 60.73 0 91.093 69.314 0.331 138.624 0 207.931-0.99 9.961-0.887 19.862-2.205 29.704-3.96 24.623-2.913 46.075-12.485 64.36-28.714 15.341-25.563 23.922-53.288 25.744-83.172 0.99-210.571 1.321-421.14 0.99-631.713-44.891-0.331-89.778 0-134.66 0.99-5.611 6.931-11.222 13.862-16.833 20.793-35.56-22.098-74.176-30.679-115.847-25.744zM-1497.299 353.059c20.334-5.535 32.544 1.725 36.635 21.783 1.321 132.679 1.321 265.359 0 398.038-2.097 14.31-10.347 20.91-24.754 19.802-13.503 1.349-21.752-4.593-24.754-17.823-1.321-134.66-1.321-269.32 0-403.979 1.729-7.97 6.018-13.912 12.872-17.823z"></path>
<path fill="#fefffe" opacity="0.983" d="M-336.85 256.026c27.724-0.331 55.448 0 83.172 0.99 40.912 2.158 76.241 17.010 105.946 44.556 13.288 16.080 21.209 34.562 23.764 55.448 0.99 48.841 1.327 97.69 0.99 146.541-49.508 0-99.014 0-148.522 0 1.585-35.635 1.921-71.281 0.99-106.935-1.070-15.106-6.020-28.639-14.852-40.596-21.506-6.295-33.705 1.955-36.635 24.754-2.435 27.411-0.456 54.476 5.941 81.192 3.209 10.454 8.812 19.365 16.833 26.734 40.972 29.086 84.538 54.171 130.699 75.251 27.111 20.857 43.269 48.25 48.517 82.182 1.842 46.931 1.168 93.798-1.981 140.6-8.416 41.427-32.517 69.481-72.281 84.162-34.022 11.596-68.994 16.548-104.956 14.852-37.547 1.992-73.845-3.618-108.916-16.833-33.506-14.363-54.953-39.117-64.36-74.261-2.872-55.374-3.862-110.823-2.971-166.344 50.834 0 101.648 0 152.483 0-0.337 46.872 0 93.739 0.99 140.6 3.406 17.061 13.624 23.33 30.694 18.813 8.198-6.121 13.15-14.373 14.852-24.754 5.387-34.966 2.733-69.29-7.921-102.975-4-11.884-10.931-21.455-20.793-28.714-46.833-23.409-91.727-49.812-134.66-79.212-22.793-20.145-33.685-45.558-32.675-76.241-1.327-32.344-1.327-64.69 0-97.035 3.663-59.781 34.358-97.737 92.083-113.867 14.714-3.404 29.229-6.375 43.566-8.911z"></path>
<path fill="#fefffe" opacity="0.991" d="M-2233.967 259.986c50.828 0 101.654 0 152.483 0 0 206.608 0 413.221 0 619.83-50.828 0-101.654 0-152.483 0 0-206.608 0-413.221 0-619.83z"></path>
<path fill="#fefffe" opacity="0.989" d="M-861.626 259.986c50.828 0 101.648 0 152.483 0-0.337 170.307 0 340.612 0.99 510.915 2.99 13.23 11.248 19.171 24.754 17.823 14.396 1.107 22.654-5.494 24.754-19.802 0.99-169.643 1.327-339.289 0.99-508.934 50.834 0 101.648 0 152.483 0 0 206.608 0 413.221 0 619.83-50.834 0-101.648 0-152.483 0 0.337-6.634 0-13.234-0.99-19.802-17.624 14.023-37.744 22.274-60.4 24.754-45.071 8.163-85.341-1.739-120.798-29.704-8.036-9.139-14.308-19.369-18.813-30.694-2.95-188.040-3.94-376.167-2.971-564.382z"></path>
<path fill="#fed800" opacity="0.004" d="M213.671 402.567c2.634 1.321 2.634 1.321 0 0z"></path>
<path fill="#fed800" opacity="0.004" d="M888.949 444.153c2.039 0.786 2.357 2.105 0.99 3.96-0.911-1.176-1.248-2.497-0.99-3.96z"></path>
<path fill="#fed800" opacity="0.004" d="M890.93 456.035c2.634 1.321 2.634 1.321 0 0z"></path>
<path fill="#fed800" opacity="0.004" d="M643.393 467.917c2.634 1.321 2.634 1.321 0 0z"></path>
<path fill="#fed800" opacity="0.012" d="M195.848 491.68c2.634 1.321 2.634 1.321 0 0z"></path>
<path fill="#fed800" opacity="0.012" d="M59.209 505.542c2.634 1.321 2.634 1.321 0 0z"></path>
<path fill="#fed800" opacity="0.004" d="M890.93 529.306c2.039 0.786 2.357 2.105 0.99 3.96-0.911-1.176-1.248-2.497-0.99-3.96z"></path>
<path fill="#fed800" opacity="0.004" d="M886.969 566.931c2.634 1.321 2.634 1.321 0 0z"></path>
<path fill="#fed800" opacity="0.004" d="M67.13 578.813c2.634 1.321 2.634 1.321 0 0z"></path>
<path fill="#fed800" opacity="0.004" d="M227.533 630.3c2.634 1.321 2.634 1.321 0 0z"></path>
<path fill="#fed800" opacity="0.004" d="M871.127 644.162c2.634 1.321 2.634 1.321 0 0z"></path>
<path fill="#fed800" opacity="0.004" d="M453.285 695.65c2.634 1.321 2.634 1.321 0 0z"></path>
<path fill="#fed800" opacity="0.004" d="M112.676 701.591c2.634 1.321 2.634 1.321 0 0z"></path>
<path fill="#fed800" opacity="0.008" d="M114.657 705.551c2.634 1.321 2.634 1.321 0 0z"></path>
<path fill="#fed800" opacity="0.004" d="M492.891 741.197c2.634 1.321 2.634 1.321 0 0z"></path>
<path fill="#fed800" opacity="0.008" d="M393.877 766.941c2.634 1.321 2.634 1.321 0 0z"></path>
<path fill="#fed800" opacity="0.027" d="M429.522 776.841c2.634 1.321 2.634 1.321 0 0z"></path>
<path fill="#fed800" opacity="0.004" d="M494.872 778.822c2.634 1.321 2.634 1.321 0 0z"></path>
<path fill="#fed800" opacity="0.008" d="M750.33 814.468c2.634 1.321 2.634 1.321 0 0z"></path>
<path fill="#fed800" opacity="0.004" d="M645.374 889.718c2.634 1.321 2.634 1.321 0 0z"></path>
<path fill="#fed800" opacity="0.016" d="M370.114 903.58c2.634 1.321 2.634 1.321 0 0z"></path>
<path fill="#fed800" opacity="0.004" d="M591.906 903.58c2.634 1.321 2.634 1.321 0 0z"></path>
<path fill="#fed800" opacity="0.004" d="M395.858 909.522c2.634 1.321 2.634 1.321 0 0z"></path>
<path fill="#fed800" opacity="0.004" d="M383.975 949.126c2.634 1.321 2.634 1.321 0 0z"></path>
<path fill="#fed800" opacity="0.004" d="M23.563 984.772c2.634 1.321 2.634 1.321 0 0z"></path>
</svg>
