<svg aria-hidden="true" style="position: absolute; width: 0; height: 0; overflow: hidden;" version="1.1" xmlns="http://www.w3.org/2000/svg" xmlns:xlink="http://www.w3.org/1999/xlink">
<defs>
<symbol id="icon-NovaPoshta" viewBox="0 0 33 32">
<path fill="#ed1c24" style="fill: var(--color1, #ed1c24)" d="M39.222 5.428c0 0 0 0 1.885 0 0.687 0 1.033 0.339 1.033 1.105 0 0 0 0 0 2.714 0 0 0 0 3.692 0 0 0 0 0 0-2.714 0-0.766 0.341-1.105 1.115-1.105 0 0 0 0 1.802 0 0 0 0 0 0 1.784 0 0 0 0-0.769 0 0 0-0.088 0.087-0.088 0.087s0 0 0 7.639c0 0 0 0-2.060 0 0 0 0 0 0-3.819 0 0 0 0-3.692 0 0 0 0 0 0 3.819 0 0 0 0-2.060 0 0 0 0 0 0-7.639 0 0 0-0.087-0.088-0.087 0 0 0 0-0.769 0 0 0 0 0 0-1.784z"></path>
<path fill="#ed1c24" style="fill: var(--color1, #ed1c24)" d="M54.154 5.259l0.046 0.005v1.959l-0.046-0.010c-1.544 0-2.747 1.275-2.747 2.889 0 1.696 1.203 3.053 2.747 3.053l0.046-0.010v1.959l-0.046 0.005c-2.747 0-4.977-2.205-4.977-5.007 0-2.719 2.23-4.842 4.977-4.842z"></path>
<path fill="#ed1c24" style="fill: var(--color1, #ed1c24)" d="M54.201 5.264l0.955 0.093c2.267 0.442 3.976 2.365 3.976 4.745 0 2.447-1.709 4.447-3.976 4.904l-0.955 0.098v-1.959l1.048-0.226c1.012-0.463 1.74-1.547 1.74-2.817 0-1.213-0.728-2.231-1.74-2.663l-1.048-0.216v-1.959z"></path>
<path fill="#ed1c24" style="fill: var(--color1, #ed1c24)" d="M59.56 5.428c0 0 0 0 2.876 0h1.373v1.784h-0.129c-0.17 0-0.516 0-1.203 0 0 0 0 0 0 1.953 0 0 0 0 0.583 0h0.749v1.696h-0.439c-0.217 0-0.506 0-0.893 0 0 0 0 0 0 2.123 0 0.087 0 0.087 0.088 0.087 0 0 0 0 0.614 0h0.63v1.866h-0.181c-0.31 0-0.935 0-2.179 0-0.687 0-1.027-0.339-1.027-1.105v-6.621c0 0 0 0-0.862 0 0 0 0 0 0-1.784z"></path>
<path fill="#ed1c24" style="fill: var(--color1, #ed1c24)" d="M63.81 5.428h0.041c1.89 0 3.005 1.018 3.005 2.55 0 0.93-0.429 1.527-0.857 1.953 0.774 0.339 1.286 1.187 1.286 2.118 0 1.784-1.373 2.889-3.346 2.889 0 0 0 0-0.036 0h-0.093v-1.866h0.212c0.687 0 1.12-0.427 1.12-1.105s-0.434-1.105-1.12-1.105c0 0 0 0-0.191 0h-0.021v-1.696h0.041c0.604 0 0.945-0.427 0.945-1.018 0-0.596-0.341-0.936-0.945-0.936 0 0 0 0-0.021 0h-0.021v-1.784z"></path>
<path fill="#ed1c24" style="fill: var(--color1, #ed1c24)" d="M71.234 5.428c0 0 0 0 0.867 0h0.16v2.719c-0.083 0.17-0.17 0.422-0.17 0.679 0 0 0 0-0.687 1.953 0 0 0 0 0.728 0h0.129v1.779h-0.465c-0.263 0-0.563 0-0.904 0 0 0 0 0-0.604 1.532-0.17 0.591-0.511 0.848-1.198 0.848 0 0 0 0-1.291 0 0 0 0 0 0-1.866 0 0 0 0 0.429 0 0.176 0 0.176 0 0.258-0.087 0 0 0 0 2.747-7.557z"></path>
<path fill="#ed1c24" style="fill: var(--color1, #ed1c24)" d="M72.262 5.428h1.033c0 0 0 0 2.747 7.557 0.083 0.087 0.083 0.087 0.253 0.087 0 0 0 0 0.346 0 0 0 0 0 0 1.866 0 0 0 0-1.203 0-0.687 0-1.027-0.257-1.203-0.936 0 0 0 0-0.599-1.444 0 0 0 0-1.157 0h-0.217v-1.779h0.857c0 0 0 0-0.682-1.953 0-0.257-0.088-0.509-0.176-0.679v-2.719z"></path>
<path fill="#ed1c24" style="fill: var(--color1, #ed1c24)" d="M39.222 17.653c0 0 0 0 7.466 0 0.687 0 1.115 0.339 1.115 1.105 0 0 0 0 0 6.451 0 0.082 0 0.082 0.088 0.082 0 0 0 0 0.687 0 0 0 0 0 0 1.871 0 0 0 0-1.802 0-0.774 0-1.115-0.339-1.115-1.105 0 0 0 0 0-6.534 0 0 0-0.087-0.088-0.087 0 0 0 0-3.434 0 0 0 0 0 0 7.726 0 0 0 0-2.060 0 0 0 0 0 0-7.726 0 0 0 0-0.857 0 0 0 0 0 0-1.784z"></path>
<path fill="#ed1c24" style="fill: var(--color1, #ed1c24)" d="M53.984 17.483l0.041 0.005v1.959l-0.041-0.010c-1.549 0-2.747 1.275-2.747 2.889 0 1.696 1.198 3.053 2.747 3.053l0.041-0.010v1.959l-0.041 0.005c-2.747 0-4.895-2.21-4.895-5.007 0-2.719 2.148-4.842 4.895-4.842z"></path>
<path fill="#ed1c24" style="fill: var(--color1, #ed1c24)" d="M54.025 17.488l0.986 0.093c2.308 0.442 3.95 2.365 3.95 4.745 0 2.447-1.642 4.447-3.95 4.904l-0.986 0.098v-1.959l1.089-0.226c1.027-0.463 1.704-1.547 1.704-2.817 0-1.213-0.676-2.231-1.704-2.663l-1.089-0.216v-1.959z"></path>
<path fill="#ed1c24" style="fill: var(--color1, #ed1c24)" d="M59.39 17.653c0 0 0 0 1.89 0 0.687 0 1.027 0.339 1.027 1.105 0 0 0 0 0 6.451 0 0.082 0 0.082 0.088 0.082 0 0 0 0 2.489 0 0 0 0 0 0-7.639 0 0 0 0 2.060 0 0 0 0 0 0 7.639 0 0 0 0 2.489 0 0.088 0 0.088 0 0.088-0.082 0 0 0 0 0-6.451 0-0.766 0.341-1.105 1.027-1.105 0 0 0 0 1.89 0 0 0 0 0 0 1.784 0 0 0 0-0.774 0-0.088 0-0.088 0.087-0.088 0.087s0 0 0 6.534c0 0.766-0.341 1.105-1.027 1.105 0 0 0 0-9.185 0-0.769 0-1.115-0.339-1.115-1.105 0 0 0 0 0-6.534 0 0 0-0.087-0.083-0.087 0 0 0 0-0.774 0 0 0 0 0 0-1.784z"></path>
<path fill="#ed1c24" style="fill: var(--color1, #ed1c24)" d="M74.064 17.653c0 0 0 0 6.439 0 0.774 0 1.033 0.339 1.033 1.018 0 0 0 0 0 1.614h-1.89c0 0 0 0 0-0.761 0-0.087 0-0.087-0.088-0.087 0 0 0 0-1.198 0 0 0 0 0 0 7.726 0 0 0 0-2.065 0 0 0 0 0 0-7.726 0 0 0 0-1.198 0-0.088 0-0.088 0-0.088 0.087 0 0 0 0 0 0.761 0 0 0 0-1.89 0 0 0 0 0 0-1.614 0-0.679 0.258-1.018 0.945-1.018z"></path>
<path fill="#ed1c24" style="fill: var(--color1, #ed1c24)" d="M84.194 17.653c0 0 0 0 0.867 0h0.16v2.719c-0.088 0.17-0.17 0.422-0.17 0.679 0 0 0 0-0.687 1.953 0 0 0 0 0.723 0h0.134v1.779h-0.465c-0.263 0-0.563 0-0.909 0 0 0 0 0-0.599 1.445-0.17 0.679-0.516 0.936-1.203 0.936 0 0 0 0-1.286 0 0 0 0 0 0-1.871 0 0 0 0 0.429 0 0.176 0 0.176 0 0.258-0.082 0 0 0 0 2.747-7.557z"></path>
<path fill="#ed1c24" style="fill: var(--color1, #ed1c24)" d="M85.222 17.653h1.027c0 0 0 0 2.752 7.557 0.083 0.082 0.083 0.082 0.258 0.082h0.341c0 0 0 0 0 1.871 0 0 0 0-1.203 0-0.687 0-1.027-0.257-1.203-0.936 0 0 0 0-0.599-1.445 0 0 0 0-1.157 0h-0.217v-1.779h0.857c0 0 0 0-0.687-1.953 0-0.257-0.083-0.509-0.17-0.679v-2.719z"></path>
<path fill="#ed1c24" style="fill: var(--color1, #ed1c24)" d="M25.994 9.474c0.098-0.031 0.227 0.031 0.356 0.2 0 0 0 0 5.834 5.685 0.341 0.339 0.341 0.853 0 1.105 0 0 0 0-5.834 5.773-0.129 0.17-0.258 0.211-0.356 0.159s-0.16-0.2-0.16-0.416v-12.137c0-0.211 0.062-0.339 0.16-0.37z"></path>
<path fill="#ed1c24" style="fill: var(--color1, #ed1c24)" d="M16.014 0h0.413l0.398 0.165c0 0 0 0 6.005 5.942 0.258 0.339 0.17 0.596-0.258 0.596 0 0 0 0-2.489 0-0.429 0-0.769 0.339-0.769 0.766 0 0 0 0 0 4.411 0 0.427-0.346 0.766-0.862 0.766 0 0 0 0-4.373 0-0.429 0-0.774-0.339-0.774-0.766 0 0 0 0 0-4.411 0-0.427-0.341-0.766-0.774-0.766h-2.659c-0.429 0-0.516-0.257-0.258-0.596 0 0 0 0 6.010-5.942l0.392-0.165z"></path>
<path fill="#ed1c24" style="fill: var(--color1, #ed1c24)" d="M6.606 9.346c0.108 0.051 0.176 0.2 0.176 0.416v12.389c0 0.216-0.067 0.344-0.176 0.386-0.103 0.041-0.253 0-0.429-0.128 0 0 0 0-5.922-5.942-0.341-0.252-0.341-0.766 0-1.105 0 0 0 0 5.922-5.855 0.176-0.17 0.325-0.211 0.429-0.159z"></path>
<path fill="#ed1c24" style="fill: var(--color1, #ed1c24)" d="M14.078 19.097c0 0 0 0 4.373 0 0.516 0 0.862 0.339 0.862 0.766 0 0 0 0 0 4.668 0 0.509 0.341 0.848 0.769 0.848h2.318c0.429 0 0.599 0.252 0.258 0.509 0 0 0 0-5.834 5.855-0.176 0.17-0.387 0.257-0.604 0.257-0.212 0-0.429-0.087-0.599-0.257 0 0 0 0-5.834-5.855-0.346-0.257-0.176-0.509 0.253-0.509 0 0 0 0 2.489 0 0.434 0 0.774-0.339 0.774-0.848 0 0 0 0 0-4.668 0-0.427 0.346-0.766 0.774-0.766z"></path>
</symbol>
</defs>
</svg>
